Walleye-BoldItalic.ufo
<glyph name="exclam" format="1">
  <advance width="239"/>
  <unicode hex="0021"/>
  <outline>
    <contour>
      <point x="123" y="642" type="curve"/>
      <point x="152" y="638"/>
      <point x="184" y="635"/>
      <point x="217" y="635" type="curve" smooth="yes"/>
      <point x="235" y="635"/>
      <point x="253" y="636"/>
      <point x="271" y="638" type="curve"/>
      <point x="203" y="472"/>
      <point x="174" y="386"/>
      <point x="120" y="176" type="curve"/>
      <point x="80" y="178" type="line"/>
      <point x="113" y="377"/>
      <point x="120" y="480"/>
    </contour>
    <contour>
      <point x="61" y="-10" type="curve" smooth="yes"/>
      <point x="14" y="-6"/>
      <point x="3" y="25"/>
      <point x="9" y="55" type="curve" smooth="yes"/>
      <point x="15" y="91"/>
      <point x="44" y="125"/>
      <point x="92" y="121" type="curve" smooth="yes"/>
      <point x="139" y="117"/>
      <point x="150" y="86"/>
      <point x="144" y="56" type="curve"/>
      <point x="139" y="20"/>
      <point x="115" y="-15"/>
    </contour>
  </outline>
</glyph>
<glyph name="quotedbl" format="1">
  <advance width="361"/>
  <unicode hex="0022"/>
  <outline>
    <contour>
      <point x="98" y="702" type="curve"/>
      <point x="116" y="700"/>
      <point x="143" y="699"/>
      <point x="170" y="699" type="curve" smooth="yes"/>
      <point x="197" y="699"/>
      <point x="223" y="700"/>
      <point x="243" y="702" type="curve"/>
      <point x="203" y="623"/>
      <point x="153" y="503"/>
      <point x="134" y="437" type="curve"/>
      <point x="93" y="437" type="line"/>
      <point x="100" y="479"/>
      <point x="103" y="535"/>
      <point x="103" y="589" type="curve" smooth="yes"/>
      <point x="103" y="630"/>
      <point x="101" y="670"/>
    </contour>
    <contour>
      <point x="275" y="702" type="curve"/>
      <point x="293" y="700"/>
      <point x="320" y="699"/>
      <point x="347" y="699" type="curve" smooth="yes"/>
      <point x="374" y="699"/>
      <point x="400" y="700"/>
      <point x="420" y="702" type="curve"/>
      <point x="380" y="623"/>
      <point x="330" y="503"/>
      <point x="311" y="437" type="curve"/>
      <point x="270" y="437" type="line"/>
      <point x="277" y="479"/>
      <point x="280" y="535"/>
      <point x="280" y="589" type="curve" smooth="yes"/>
      <point x="280" y="630"/>
      <point x="278" y="670"/>
    </contour>
  </outline>
</glyph>
<glyph name="numbersign" format="1">
  <advance width="548"/>
  <unicode hex="0023"/>
  <outline>
    <contour>
      <point x="68" y="431" type="line"/>
      <point x="80" y="475" type="line"/>
      <point x="198" y="475" type="line"/>
      <point x="210" y="529"/>
      <point x="220" y="583"/>
      <point x="231" y="636" type="curve"/>
      <point x="283" y="642" type="line"/>
      <point x="244" y="475" type="line"/>
      <point x="382" y="475" type="line"/>
      <point x="415" y="636" type="line"/>
      <point x="467" y="642" type="line"/>
      <point x="428" y="475" type="line"/>
      <point x="555" y="475" type="line"/>
      <point x="542" y="431" type="line"/>
      <point x="418" y="431" type="line"/>
      <point x="402" y="360"/>
      <point x="390" y="301"/>
      <point x="375" y="230" type="curve"/>
      <point x="501" y="230" type="line"/>
      <point x="490" y="183" type="line"/>
      <point x="365" y="183" type="line"/>
      <point x="352" y="116"/>
      <point x="341" y="67"/>
      <point x="328" y="2" type="curve"/>
      <point x="275" y="-6" type="line"/>
      <point x="320" y="183" type="line"/>
      <point x="181" y="183" type="line"/>
      <point x="168" y="116"/>
      <point x="157" y="67"/>
      <point x="144" y="2" type="curve"/>
      <point x="92" y="-6" type="line"/>
      <point x="136" y="183" type="line"/>
      <point x="15" y="183" type="line"/>
      <point x="27" y="230" type="line"/>
      <point x="145" y="230" type="line"/>
      <point x="161" y="301"/>
      <point x="174" y="360"/>
      <point x="189" y="431" type="curve"/>
    </contour>
    <contour>
      <point x="234" y="431" type="line"/>
      <point x="218" y="360"/>
      <point x="206" y="301"/>
      <point x="191" y="230" type="curve"/>
      <point x="329" y="230" type="line"/>
      <point x="345" y="301"/>
      <point x="358" y="360"/>
      <point x="373" y="431" type="curve"/>
    </contour>
  </outline>
</glyph>
<glyph name="dollar" format="1">
  <advance width="362"/>
  <unicode hex="0024"/>
  <outline>
    <contour>
      <point x="2" y="21" type="curve"/>
      <point x="16" y="41"/>
      <point x="38" y="93"/>
      <point x="49" y="132" type="curve"/>
      <point x="68" y="120"/>
      <point x="126" y="94"/>
      <point x="160" y="83" type="curve" smooth="yes"/>
      <point x="174" y="78"/>
      <point x="185" y="76"/>
      <point x="193" y="76" type="curve" smooth="yes"/>
      <point x="219" y="76"/>
      <point x="217" y="100"/>
      <point x="197" y="150" type="curve" smooth="yes"/>
      <point x="162" y="238"/>
      <point x="107" y="345"/>
      <point x="80" y="418" type="curve" smooth="yes"/>
      <point x="71" y="443"/>
      <point x="66" y="464"/>
      <point x="66" y="483" type="curve" smooth="yes"/>
      <point x="66" y="522"/>
      <point x="86" y="551"/>
      <point x="125" y="591" type="curve"/>
      <point x="169" y="638"/>
      <point x="193" y="640"/>
      <point x="228" y="638" type="curve"/>
      <point x="238" y="671"/>
      <point x="250" y="703"/>
      <point x="256" y="729" type="curve"/>
      <point x="291" y="716" type="line"/>
      <point x="284" y="692"/>
      <point x="277" y="666"/>
      <point x="271" y="635" type="curve"/>
      <point x="307" y="631"/>
      <point x="342" y="625"/>
      <point x="360" y="620" type="curve"/>
      <point x="345" y="597"/>
      <point x="320" y="532"/>
      <point x="315" y="510" type="curve"/>
      <point x="284" y="527"/>
      <point x="245" y="543"/>
      <point x="214" y="550" type="curve" smooth="yes"/>
      <point x="202" y="553"/>
      <point x="192" y="555"/>
      <point x="184" y="555" type="curve" smooth="yes"/>
      <point x="168" y="555"/>
      <point x="162" y="548"/>
      <point x="162" y="536" type="curve" smooth="yes"/>
      <point x="162" y="524"/>
      <point x="169" y="507"/>
      <point x="177" y="486" type="curve" smooth="yes"/>
      <point x="214" y="397"/>
      <point x="264" y="298"/>
      <point x="285" y="242" type="curve" smooth="yes"/>
      <point x="297" y="211"/>
      <point x="305" y="183"/>
      <point x="305" y="158" type="curve" smooth="yes"/>
      <point x="305" y="122"/>
      <point x="290" y="89"/>
      <point x="254" y="53" type="curve" smooth="yes"/>
      <point x="211" y="10"/>
      <point x="187" y="-9"/>
      <point x="146" y="-9" type="curve" smooth="yes"/>
      <point x="134" y="-9" type="line"/>
      <point x="124" y="-42"/>
      <point x="112" y="-75"/>
      <point x="106" y="-100" type="curve"/>
      <point x="71" y="-88" type="line"/>
      <point x="79" y="-63"/>
      <point x="85" y="-35"/>
      <point x="92" y="-2" type="curve"/>
      <point x="60" y="3"/>
      <point x="28" y="11"/>
    </contour>
  </outline>
</glyph>
<glyph name="percent" format="1">
  <advance width="743"/>
  <unicode hex="0025"/>
  <outline>
    <contour>
      <point x="46" y="15" type="curve"/>
      <point x="158" y="125"/>
      <point x="424" y="401"/>
      <point x="592" y="583" type="curve"/>
      <point x="499" y="556"/>
      <point x="462" y="546"/>
      <point x="405" y="546" type="curve" smooth="yes"/>
      <point x="390" y="546"/>
      <point x="374" y="547"/>
      <point x="355" y="548" type="curve"/>
      <point x="358" y="533"/>
      <point x="359" y="518"/>
      <point x="359" y="502" type="curve" smooth="yes"/>
      <point x="359" y="478"/>
      <point x="356" y="456"/>
      <point x="350" y="442" type="curve" smooth="yes"/>
      <point x="340" y="416"/>
      <point x="311" y="376"/>
      <point x="281" y="350" type="curve" smooth="yes"/>
      <point x="253" y="326"/>
      <point x="223" y="314"/>
      <point x="193" y="314" type="curve" smooth="yes"/>
      <point x="168" y="314"/>
      <point x="143" y="322"/>
      <point x="119" y="338" type="curve" smooth="yes"/>
      <point x="83" y="362"/>
      <point x="67" y="394"/>
      <point x="67" y="429" type="curve" smooth="yes"/>
      <point x="67" y="458"/>
      <point x="77" y="488"/>
      <point x="95" y="518" type="curve" smooth="yes"/>
      <point x="116" y="555"/>
      <point x="183" y="617"/>
      <point x="241" y="645" type="curve"/>
      <point x="302" y="627"/>
      <point x="376" y="616"/>
      <point x="454" y="616" type="curve" smooth="yes"/>
      <point x="527" y="616"/>
      <point x="604" y="626"/>
      <point x="674" y="650" type="curve"/>
      <point x="701" y="630" type="line"/>
      <point x="593" y="534"/>
      <point x="213" y="115"/>
      <point x="105" y="-15" type="curve"/>
      <point x="85" y="-2"/>
      <point x="67" y="8"/>
    </contour>
    <contour>
      <point x="386" y="173" type="curve" smooth="yes"/>
      <point x="401" y="216"/>
      <point x="438" y="262"/>
      <point x="484" y="299" type="curve" smooth="yes"/>
      <point x="506" y="317"/>
      <point x="534" y="326"/>
      <point x="562" y="326" type="curve" smooth="yes"/>
      <point x="591" y="326"/>
      <point x="620" y="316"/>
      <point x="640" y="295" type="curve" smooth="yes"/>
      <point x="671" y="263"/>
      <point x="683" y="226"/>
      <point x="683" y="192" type="curve" smooth="yes"/>
      <point x="683" y="173"/>
      <point x="679" y="156"/>
      <point x="673" y="141" type="curve" smooth="yes"/>
      <point x="650" y="87"/>
      <point x="609" y="41"/>
      <point x="578" y="19" type="curve"/>
      <point x="552" y="-1"/>
      <point x="525" y="-10"/>
      <point x="498" y="-10" type="curve" smooth="yes"/>
      <point x="469" y="-10"/>
      <point x="440" y="1"/>
      <point x="415" y="24" type="curve" smooth="yes"/>
      <point x="385" y="52"/>
      <point x="376" y="85"/>
      <point x="376" y="115" type="curve" smooth="yes"/>
      <point x="376" y="138"/>
      <point x="381" y="159"/>
    </contour>
    <contour>
      <point x="566" y="205" type="curve" smooth="yes"/>
      <point x="548" y="222"/>
      <point x="531" y="229"/>
      <point x="515" y="229" type="curve" smooth="yes"/>
      <point x="501" y="229"/>
      <point x="489" y="223"/>
      <point x="482" y="215" type="curve" smooth="yes"/>
      <point x="474" y="205"/>
      <point x="470" y="191"/>
      <point x="470" y="177" type="curve" smooth="yes"/>
      <point x="470" y="155"/>
      <point x="479" y="132"/>
      <point x="495" y="116" type="curve" smooth="yes"/>
      <point x="509" y="102"/>
      <point x="530" y="94"/>
      <point x="549" y="94" type="curve" smooth="yes"/>
      <point x="563" y="94"/>
      <point x="575" y="98"/>
      <point x="584" y="107" type="curve" smooth="yes"/>
      <point x="591" y="114"/>
      <point x="594" y="125"/>
      <point x="594" y="139" type="curve" smooth="yes"/>
      <point x="594" y="159"/>
      <point x="586" y="185"/>
    </contour>
    <contour>
      <point x="219" y="571" type="curve"/>
      <point x="208" y="564"/>
      <point x="193" y="547"/>
      <point x="187" y="538" type="curve" smooth="yes"/>
      <point x="178" y="522"/>
      <point x="174" y="506"/>
      <point x="174" y="491" type="curve" smooth="yes"/>
      <point x="174" y="471"/>
      <point x="182" y="452"/>
      <point x="200" y="435" type="curve" smooth="yes"/>
      <point x="211" y="425"/>
      <point x="229" y="418"/>
      <point x="247" y="418" type="curve" smooth="yes"/>
      <point x="261" y="418"/>
      <point x="275" y="423"/>
      <point x="283" y="433" type="curve" smooth="yes"/>
      <point x="294" y="446"/>
      <point x="298" y="462"/>
      <point x="298" y="481" type="curve" smooth="yes"/>
      <point x="298" y="491"/>
      <point x="297" y="502"/>
      <point x="295" y="513" type="curve" smooth="yes"/>
      <point x="289" y="542"/>
      <point x="264" y="557"/>
    </contour>
  </outline>
</glyph>
<glyph name="ampersand" format="1">
  <advance width="769"/>
  <unicode hex="0026"/>
  <outline>
    <contour>
      <point x="411" y="405" type="curve"/>
      <point x="408" y="397" type="line"/>
      <point x="351" y="386"/>
      <point x="309" y="379"/>
      <point x="265" y="362" type="curve" smooth="yes"/>
      <point x="207" y="340"/>
      <point x="179" y="322"/>
      <point x="168" y="277" type="curve" smooth="yes"/>
      <point x="165" y="263"/>
      <point x="163" y="244"/>
      <point x="163" y="224" type="curve" smooth="yes"/>
      <point x="163" y="198"/>
      <point x="167" y="172"/>
      <point x="178" y="153" type="curve" smooth="yes"/>
      <point x="193" y="126"/>
      <point x="218" y="108"/>
      <point x="250" y="100" type="curve" smooth="yes"/>
      <point x="285" y="92"/>
      <point x="343" y="86"/>
      <point x="396" y="88" type="curve"/>
      <point x="458" y="89"/>
      <point x="483" y="115"/>
      <point x="500" y="137" type="curve" smooth="yes"/>
      <point x="511" y="151"/>
      <point x="516" y="180"/>
      <point x="516" y="212" type="curve" smooth="yes"/>
      <point x="516" y="231"/>
      <point x="514" y="252"/>
      <point x="510" y="271" type="curve"/>
      <point x="489" y="272"/>
      <point x="465" y="275"/>
      <point x="442" y="275" type="curve" smooth="yes"/>
      <point x="411" y="275"/>
      <point x="400" y="266"/>
      <point x="400" y="214" type="curve" smooth="yes"/>
      <point x="400" y="205"/>
      <point x="400" y="194"/>
      <point x="401" y="182" type="curve"/>
      <point x="342" y="181"/>
      <point x="322" y="174"/>
      <point x="272" y="160" type="curve"/>
      <point x="270" y="223"/>
      <point x="279" y="233"/>
      <point x="311" y="259" type="curve" smooth="yes"/>
      <point x="341" y="283"/>
      <point x="371" y="298"/>
      <point x="410" y="333" type="curve" smooth="yes"/>
      <point x="443" y="362"/>
      <point x="462" y="361"/>
      <point x="494" y="364" type="curve" smooth="yes"/>
      <point x="582" y="370"/>
      <point x="688" y="378"/>
      <point x="765" y="408" type="curve"/>
      <point x="768" y="405" type="line"/>
      <point x="743" y="375"/>
      <point x="714" y="296"/>
      <point x="707" y="268" type="curve"/>
      <point x="694" y="265"/>
      <point x="674" y="263"/>
      <point x="649" y="263" type="curve" smooth="yes"/>
      <point x="634" y="263"/>
      <point x="617" y="264"/>
      <point x="598" y="265" type="curve"/>
      <point x="597" y="244"/>
      <point x="592" y="200"/>
      <point x="584" y="177" type="curve" smooth="yes"/>
      <point x="564" y="121"/>
      <point x="517" y="69"/>
      <point x="483" y="40" type="curve" smooth="yes"/>
      <point x="451" y="12"/>
      <point x="420" y="-4"/>
      <point x="379" y="-7" type="curve" smooth="yes"/>
      <point x="359" y="-9"/>
      <point x="338" y="-10"/>
      <point x="317" y="-10" type="curve" smooth="yes"/>
      <point x="267" y="-10"/>
      <point x="216" y="-5"/>
      <point x="172" y="5" type="curve" smooth="yes"/>
      <point x="135" y="13"/>
      <point x="100" y="42"/>
      <point x="76" y="74" type="curve" smooth="yes"/>
      <point x="54" y="103"/>
      <point x="36" y="153"/>
      <point x="36" y="205" type="curve" smooth="yes"/>
      <point x="36" y="217"/>
      <point x="37" y="229"/>
      <point x="39" y="241" type="curve" smooth="yes"/>
      <point x="52" y="316"/>
      <point x="81" y="340"/>
      <point x="116" y="357" type="curve" smooth="yes"/>
      <point x="158" y="378"/>
      <point x="195" y="392"/>
      <point x="260" y="412" type="curve"/>
      <point x="231" y="451"/>
      <point x="219" y="482"/>
      <point x="219" y="508" type="curve" smooth="yes"/>
      <point x="219" y="531"/>
      <point x="229" y="550"/>
      <point x="246" y="569" type="curve" smooth="yes"/>
      <point x="267" y="592"/>
      <point x="294" y="612"/>
      <point x="317" y="627" type="curve" smooth="yes"/>
      <point x="343" y="643"/>
      <point x="359" y="650"/>
      <point x="391" y="650" type="curve" smooth="yes"/>
      <point x="401" y="650"/>
      <point x="413" y="649"/>
      <point x="427" y="648" type="curve" smooth="yes"/>
      <point x="457" y="645"/>
      <point x="508" y="638"/>
      <point x="553" y="625" type="curve"/>
      <point x="522" y="590"/>
      <point x="498" y="553"/>
      <point x="485" y="517" type="curve"/>
      <point x="431" y="548"/>
      <point x="380" y="564"/>
      <point x="348" y="569" type="curve" smooth="yes"/>
      <point x="327" y="573"/>
      <point x="311" y="559"/>
      <point x="325" y="531" type="curve" smooth="yes"/>
      <point x="340" y="502"/>
      <point x="380" y="440"/>
    </contour>
  </outline>
</glyph>
<glyph name="quotesingle" format="1">
  <advance width="194"/>
  <unicode hex="0027"/>
  <outline>
    <contour>
      <point x="108" y="702" type="curve"/>
      <point x="126" y="700"/>
      <point x="153" y="699"/>
      <point x="180" y="699" type="curve" smooth="yes"/>
      <point x="207" y="699"/>
      <point x="233" y="700"/>
      <point x="253" y="702" type="curve"/>
      <point x="213" y="623"/>
      <point x="163" y="503"/>
      <point x="144" y="437" type="curve"/>
      <point x="103" y="437" type="line"/>
      <point x="110" y="479"/>
      <point x="113" y="535"/>
      <point x="113" y="589" type="curve" smooth="yes"/>
      <point x="113" y="630"/>
      <point x="111" y="670"/>
    </contour>
  </outline>
</glyph>
<glyph name="parenleft" format="1">
  <advance width="392"/>
  <unicode hex="0028"/>
  <outline>
    <contour>
      <point x="254" y="-166" type="curve"/>
      <point x="224" y="-193" type="line"/>
      <point x="175" y="-155"/>
      <point x="166" y="-140"/>
      <point x="127" y="-89" type="curve" smooth="yes"/>
      <point x="70" y="-13"/>
      <point x="51" y="67"/>
      <point x="49" y="154" type="curve" smooth="yes"/>
      <point x="47" y="246"/>
      <point x="67" y="380"/>
      <point x="117" y="469" type="curve" smooth="yes"/>
      <point x="149" y="527"/>
      <point x="189" y="574"/>
      <point x="269" y="620" type="curve" smooth="yes"/>
      <point x="315" y="646"/>
      <point x="347" y="660"/>
      <point x="404" y="678" type="curve"/>
      <point x="422" y="640" type="line"/>
      <point x="387" y="622"/>
      <point x="356" y="607"/>
      <point x="333" y="590" type="curve" smooth="yes"/>
      <point x="290" y="559"/>
      <point x="258" y="529"/>
      <point x="227" y="465" type="curve" smooth="yes"/>
      <point x="182" y="370"/>
      <point x="160" y="238"/>
      <point x="162" y="127" type="curve" smooth="yes"/>
      <point x="163" y="49"/>
      <point x="172" y="-6"/>
      <point x="191" y="-57" type="curve" smooth="yes"/>
      <point x="205" y="-92"/>
      <point x="225" y="-126"/>
    </contour>
  </outline>
</glyph>
<glyph name="parenright" format="1">
  <advance width="392"/>
  <unicode hex="0029"/>
  <outline>
    <contour>
      <point x="114" y="651" type="curve"/>
      <point x="145" y="678" type="line"/>
      <point x="193" y="640"/>
      <point x="203" y="631"/>
      <point x="244" y="581" type="curve" smooth="yes"/>
      <point x="302" y="510"/>
      <point x="318" y="448"/>
      <point x="323" y="366" type="curve" smooth="yes"/>
      <point x="328" y="277"/>
      <point x="300" y="113"/>
      <point x="253" y="23" type="curve"/>
      <point x="221" y="-36"/>
      <point x="180" y="-85"/>
      <point x="99" y="-131" type="curve" smooth="yes"/>
      <point x="53" y="-157"/>
      <point x="20" y="-173"/>
      <point x="-35" y="-193" type="curve"/>
      <point x="-53" y="-155" type="line"/>
      <point x="-18" y="-137"/>
      <point x="18" y="-118"/>
      <point x="41" y="-100" type="curve" smooth="yes"/>
      <point x="83" y="-67"/>
      <point x="113" y="-36"/>
      <point x="143" y="27" type="curve" smooth="yes"/>
      <point x="188" y="122"/>
      <point x="218" y="292"/>
      <point x="213" y="388" type="curve" smooth="yes"/>
      <point x="208" y="467"/>
      <point x="199" y="498"/>
      <point x="179" y="550" type="curve" smooth="yes"/>
      <point x="165" y="586"/>
      <point x="144" y="614"/>
    </contour>
  </outline>
</glyph>
<glyph name="asterisk" format="1">
  <advance width="406"/>
  <unicode hex="002A"/>
  <outline>
    <contour>
      <point x="73" y="365" type="curve"/>
      <point x="118" y="389"/>
      <point x="171" y="420"/>
      <point x="211" y="455" type="curve"/>
      <point x="165" y="474"/>
      <point x="104" y="490"/>
      <point x="60" y="500" type="curve"/>
      <point x="75" y="523"/>
      <point x="96" y="557"/>
      <point x="106" y="584" type="curve"/>
      <point x="144" y="546"/>
      <point x="183" y="511"/>
      <point x="227" y="483" type="curve"/>
      <point x="229" y="503"/>
      <point x="230" y="525"/>
      <point x="230" y="547" type="curve" smooth="yes"/>
      <point x="230" y="581"/>
      <point x="228" y="615"/>
      <point x="225" y="647" type="curve"/>
      <point x="252" y="639"/>
      <point x="296" y="631"/>
      <point x="325" y="629" type="curve"/>
      <point x="304" y="588"/>
      <point x="272" y="525"/>
      <point x="260" y="478" type="curve"/>
      <point x="310" y="490"/>
      <point x="362" y="511"/>
      <point x="407" y="536" type="curve"/>
      <point x="409" y="507"/>
      <point x="415" y="465"/>
      <point x="421" y="436" type="curve"/>
      <point x="376" y="442"/>
      <point x="315" y="449"/>
      <point x="265" y="447" type="curve"/>
      <point x="290" y="401"/>
      <point x="328" y="356"/>
      <point x="365" y="318" type="curve"/>
      <point x="340" y="308"/>
      <point x="302" y="288"/>
      <point x="278" y="273" type="curve"/>
      <point x="270" y="319"/>
      <point x="251" y="387"/>
      <point x="235" y="434" type="curve"/>
      <point x="203" y="395"/>
      <point x="163" y="332"/>
      <point x="140" y="293" type="curve"/>
      <point x="124" y="315"/>
      <point x="97" y="345"/>
    </contour>
  </outline>
</glyph>
<glyph name="plus" format="1">
  <advance width="470"/>
  <unicode hex="002B"/>
  <outline>
    <contour>
      <point x="23" y="270" type="line"/>
      <point x="23" y="305" type="line"/>
      <point x="212" y="305" type="line"/>
      <point x="212" y="495" type="line"/>
      <point x="248" y="495" type="line"/>
      <point x="248" y="305" type="line"/>
      <point x="438" y="305" type="line"/>
      <point x="438" y="270" type="line"/>
      <point x="248" y="270" type="line"/>
      <point x="248" y="80" type="line"/>
      <point x="212" y="80" type="line"/>
      <point x="212" y="270" type="line"/>
    </contour>
  </outline>
</glyph>
<glyph name="hyphen" format="1">
  <advance width="274"/>
  <unicode hex="002D"/>
  <outline>
    <contour>
      <point x="19" y="241" type="curve"/>
      <point x="26" y="259"/>
      <point x="35" y="294"/>
      <point x="35" y="305" type="curve"/>
      <point x="70" y="303"/>
      <point x="105" y="302"/>
      <point x="140" y="302" type="curve" smooth="yes"/>
      <point x="175" y="302"/>
      <point x="210" y="303"/>
      <point x="245" y="305" type="curve"/>
      <point x="239" y="290"/>
      <point x="229" y="253"/>
      <point x="229" y="241" type="curve"/>
      <point x="194" y="243"/>
      <point x="159" y="245"/>
      <point x="124" y="245" type="curve" smooth="yes"/>
      <point x="89" y="245"/>
      <point x="54" y="243"/>
    </contour>
  </outline>
</glyph>
<glyph name="period" format="1">
  <advance width="224"/>
  <unicode hex="002E"/>
  <outline>
    <contour>
      <point x="55" y="-10" type="curve" smooth="yes"/>
      <point x="7" y="-6"/>
      <point x="-3" y="25"/>
      <point x="2" y="55" type="curve" smooth="yes"/>
      <point x="8" y="91"/>
      <point x="38" y="125"/>
      <point x="86" y="121" type="curve" smooth="yes"/>
      <point x="132" y="117"/>
      <point x="144" y="86"/>
      <point x="138" y="56" type="curve" smooth="yes"/>
      <point x="132" y="20"/>
      <point x="109" y="-15"/>
    </contour>
  </outline>
</glyph>
<glyph name="slash" format="1">
  <advance width="435"/>
  <unicode hex="002F"/>
  <outline>
    <contour>
      <point x="440" y="681" type="curve"/>
      <point x="482" y="661" type="line"/>
      <point x="365" y="482"/>
      <point x="127" y="110"/>
      <point x="14" y="-71" type="curve"/>
      <point x="-28" y="-51" type="line"/>
      <point x="88" y="129"/>
      <point x="326" y="500"/>
    </contour>
  </outline>
</glyph>
<glyph name="one" format="1">
  <advance width="449"/>
  <unicode hex="0031"/>
  <outline>
    <contour>
      <point x="134" y="107" type="curve" smooth="yes"/>
      <point x="168" y="245"/>
      <point x="197" y="400"/>
      <point x="223" y="536" type="curve"/>
      <point x="162" y="514"/>
      <point x="130" y="496"/>
      <point x="68" y="462" type="curve"/>
      <point x="77" y="487"/>
      <point x="85" y="525"/>
      <point x="88" y="542" type="curve"/>
      <point x="182" y="585"/>
      <point x="251" y="609"/>
      <point x="401" y="647" type="curve"/>
      <point x="405" y="614" type="line"/>
      <point x="360" y="584"/>
      <point x="355" y="575"/>
      <point x="344" y="531" type="curve" smooth="yes"/>
      <point x="314" y="410"/>
      <point x="284" y="249"/>
      <point x="260" y="108" type="curve" smooth="yes"/>
      <point x="252" y="64"/>
      <point x="265" y="55"/>
      <point x="374" y="36" type="curve"/>
      <point x="360" y="-3" type="line"/>
      <point x="312" y="1"/>
      <point x="243" y="3"/>
      <point x="173" y="3" type="curve" smooth="yes"/>
      <point x="103" y="3"/>
      <point x="33" y="1"/>
      <point x="-16" y="-3" type="curve"/>
      <point x="-13" y="36" type="line"/>
      <point x="106" y="50"/>
      <point x="124" y="67"/>
    </contour>
  </outline>
</glyph>
<glyph name="two" format="1">
  <advance width="471"/>
  <unicode hex="0032"/>
  <outline>
    <contour>
      <point x="228" y="269" type="curve" smooth="yes"/>
      <point x="290" y="333"/>
      <point x="325" y="392"/>
      <point x="333" y="454" type="curve" smooth="yes"/>
      <point x="340" y="503"/>
      <point x="311" y="531"/>
      <point x="243" y="527" type="curve" smooth="yes"/>
      <point x="209" y="525"/>
      <point x="151" y="519"/>
      <point x="113" y="507" type="curve"/>
      <point x="134" y="550"/>
      <point x="149" y="589"/>
      <point x="157" y="632" type="curve"/>
      <point x="197" y="637"/>
      <point x="257" y="640"/>
      <point x="314" y="640" type="curve" smooth="yes"/>
      <point x="409" y="640"/>
      <point x="454" y="555"/>
      <point x="445" y="492" type="curve" smooth="yes"/>
      <point x="431" y="403"/>
      <point x="357" y="323"/>
      <point x="271" y="236" type="curve" smooth="yes"/>
      <point x="224" y="189"/>
      <point x="180" y="151"/>
      <point x="138" y="113" type="curve"/>
      <point x="173" y="118"/>
      <point x="198" y="120"/>
      <point x="220" y="120" type="curve" smooth="yes"/>
      <point x="244" y="120"/>
      <point x="264" y="118"/>
      <point x="287" y="114" type="curve" smooth="yes"/>
      <point x="325" y="108"/>
      <point x="352" y="110"/>
      <point x="393" y="174" type="curve"/>
      <point x="429" y="154" type="line"/>
      <point x="390" y="92"/>
      <point x="374" y="60"/>
      <point x="343" y="-10" type="curve"/>
      <point x="295" y="3"/>
      <point x="232" y="9"/>
      <point x="169" y="9" type="curve" smooth="yes"/>
      <point x="98" y="9"/>
      <point x="27" y="2"/>
      <point x="-23" y="-9" type="curve"/>
      <point x="-9" y="23"/>
      <point x="3" y="71"/>
      <point x="8" y="100" type="curve"/>
      <point x="66" y="123"/>
      <point x="158" y="196"/>
    </contour>
  </outline>
</glyph>
<glyph name="three" format="1">
  <advance width="444"/>
  <unicode hex="0033"/>
  <outline>
    <contour>
      <point x="102" y="-6" type="curve" smooth="yes"/>
      <point x="72" y="-3"/>
      <point x="27" y="5"/>
      <point x="-18" y="17" type="curve"/>
      <point x="1" y="42"/>
      <point x="33" y="114"/>
      <point x="43" y="145" type="curve"/>
      <point x="87" y="121"/>
      <point x="126" y="104"/>
      <point x="179" y="90" type="curve" smooth="yes"/>
      <point x="213" y="80"/>
      <point x="249" y="78"/>
      <point x="261" y="85" type="curve" smooth="yes"/>
      <point x="275" y="92"/>
      <point x="291" y="125"/>
      <point x="291" y="165" type="curve" smooth="yes"/>
      <point x="291" y="192"/>
      <point x="283" y="222"/>
      <point x="263" y="249" type="curve"/>
      <point x="237" y="281"/>
      <point x="193" y="296"/>
      <point x="134" y="296" type="curve" smooth="yes"/>
      <point x="124" y="296"/>
      <point x="113" y="296"/>
      <point x="102" y="295" type="curve"/>
      <point x="115" y="316"/>
      <point x="133" y="358"/>
      <point x="139" y="391" type="curve"/>
      <point x="221" y="407"/>
      <point x="280" y="428"/>
      <point x="291" y="487" type="curve" smooth="yes"/>
      <point x="297" y="521"/>
      <point x="266" y="536"/>
      <point x="202" y="532" type="curve" smooth="yes"/>
      <point x="186" y="531"/>
      <point x="148" y="528"/>
      <point x="121" y="521" type="curve"/>
      <point x="140" y="556"/>
      <point x="153" y="606"/>
      <point x="160" y="636" type="curve"/>
      <point x="182" y="641"/>
      <point x="250" y="642"/>
      <point x="277" y="642" type="curve" smooth="yes"/>
      <point x="356" y="642"/>
      <point x="412" y="595"/>
      <point x="398" y="523" type="curve" smooth="yes"/>
      <point x="383" y="448"/>
      <point x="343" y="415"/>
      <point x="274" y="391" type="curve"/>
      <point x="361" y="375"/>
      <point x="415" y="309"/>
      <point x="402" y="215" type="curve" smooth="yes"/>
      <point x="392" y="145"/>
      <point x="361" y="95"/>
      <point x="330" y="69" type="curve" smooth="yes"/>
      <point x="305" y="48"/>
      <point x="270" y="27"/>
      <point x="239" y="14" type="curve" smooth="yes"/>
      <point x="202" y="-1"/>
      <point x="174" y="-8"/>
      <point x="139" y="-8" type="curve" smooth="yes"/>
      <point x="128" y="-8"/>
      <point x="115" y="-7"/>
    </contour>
  </outline>
</glyph>
<glyph name="four" format="1">
  <advance width="610"/>
  <unicode hex="0034"/>
  <outline>
    <contour>
      <point x="238" y="-47" type="curve"/>
      <point x="262" y="16"/>
      <point x="277" y="84"/>
      <point x="296" y="175" type="curve"/>
      <point x="281" y="176"/>
      <point x="264" y="176"/>
      <point x="247" y="176" type="curve" smooth="yes"/>
      <point x="173" y="176"/>
      <point x="81" y="170"/>
      <point x="20" y="154" type="curve"/>
      <point x="6" y="184" type="line"/>
      <point x="182" y="338"/>
      <point x="263" y="444"/>
      <point x="396" y="623" type="curve"/>
      <point x="433" y="628"/>
      <point x="474" y="635"/>
      <point x="513" y="650" type="curve"/>
      <point x="494" y="596"/>
      <point x="446" y="364"/>
      <point x="428" y="247" type="curve"/>
      <point x="443" y="246"/>
      <point x="458" y="246"/>
      <point x="474" y="246" type="curve" smooth="yes"/>
      <point x="516" y="246"/>
      <point x="559" y="248"/>
      <point x="603" y="255" type="curve"/>
      <point x="567" y="219"/>
      <point x="540" y="182"/>
      <point x="521" y="155" type="curve"/>
      <point x="489" y="163"/>
      <point x="462" y="168"/>
      <point x="414" y="170" type="curve"/>
      <point x="401" y="96"/>
      <point x="393" y="35"/>
      <point x="397" y="12" type="curve"/>
      <point x="345" y="2"/>
      <point x="276" y="-27"/>
    </contour>
    <contour>
      <point x="358" y="485" type="curve"/>
      <point x="275" y="384"/>
      <point x="225" y="321"/>
      <point x="141" y="240" type="curve"/>
      <point x="192" y="249"/>
      <point x="226" y="251"/>
      <point x="269" y="251" type="curve" smooth="yes"/>
      <point x="310" y="251" type="line"/>
      <point x="320" y="290"/>
      <point x="344" y="402"/>
    </contour>
  </outline>
</glyph>
<glyph name="five" format="1">
  <advance width="495"/>
  <unicode hex="0035"/>
  <outline>
    <contour>
      <point x="130" y="-7" type="curve" smooth="yes"/>
      <point x="69" y="5"/>
      <point x="31" y="13"/>
      <point x="-11" y="27" type="curve"/>
      <point x="17" y="60"/>
      <point x="39" y="130"/>
      <point x="47" y="155" type="curve"/>
      <point x="85" y="133"/>
      <point x="156" y="100"/>
      <point x="198" y="90" type="curve" smooth="yes"/>
      <point x="230" y="83"/>
      <point x="262" y="76"/>
      <point x="277" y="85" type="curve" smooth="yes"/>
      <point x="298" y="97"/>
      <point x="311" y="136"/>
      <point x="311" y="179" type="curve" smooth="yes"/>
      <point x="311" y="207"/>
      <point x="306" y="237"/>
      <point x="293" y="263" type="curve" smooth="yes"/>
      <point x="272" y="308"/>
      <point x="240" y="341"/>
      <point x="165" y="341" type="curve" smooth="yes"/>
      <point x="144" y="341"/>
      <point x="121" y="337"/>
      <point x="95" y="328" type="curve"/>
      <point x="68" y="352" type="line"/>
      <point x="102" y="411"/>
      <point x="163" y="549"/>
      <point x="197" y="639" type="curve"/>
      <point x="232" y="635"/>
      <point x="278" y="633"/>
      <point x="326" y="633" type="curve" smooth="yes"/>
      <point x="385" y="633"/>
      <point x="445" y="636"/>
      <point x="490" y="642" type="curve"/>
      <point x="472" y="616"/>
      <point x="442" y="555"/>
      <point x="435" y="526" type="curve"/>
      <point x="355" y="537"/>
      <point x="312" y="540"/>
      <point x="240" y="540" type="curve" smooth="yes"/>
      <point x="210" y="540" type="line"/>
      <point x="189" y="500"/>
      <point x="163" y="437"/>
      <point x="142" y="390" type="curve"/>
      <point x="190" y="403"/>
      <point x="251" y="415"/>
      <point x="274" y="417" type="curve" smooth="yes"/>
      <point x="395" y="429"/>
      <point x="443" y="319"/>
      <point x="435" y="245" type="curve" smooth="yes"/>
      <point x="425" y="152"/>
      <point x="397" y="108"/>
      <point x="360" y="76" type="curve" smooth="yes"/>
      <point x="333" y="52"/>
      <point x="281" y="20"/>
      <point x="256" y="10" type="curve" smooth="yes"/>
      <point x="222" y="-4"/>
      <point x="193" y="-11"/>
      <point x="165" y="-11" type="curve" smooth="yes"/>
      <point x="153" y="-11"/>
      <point x="141" y="-9"/>
    </contour>
  </outline>
</glyph>
<glyph name="seven" format="1">
  <advance width="450"/>
  <unicode hex="0037"/>
  <outline>
    <contour>
      <point x="41" y="-31" type="curve"/>
      <point x="84" y="121"/>
      <point x="102" y="156"/>
      <point x="213" y="316" type="curve" smooth="yes"/>
      <point x="262" y="387"/>
      <point x="315" y="456"/>
      <point x="364" y="521" type="curve"/>
      <point x="323" y="516"/>
      <point x="296" y="514"/>
      <point x="271" y="514" type="curve" smooth="yes"/>
      <point x="247" y="514"/>
      <point x="225" y="516"/>
      <point x="193" y="517" type="curve" smooth="yes"/>
      <point x="137" y="520"/>
      <point x="135" y="513"/>
      <point x="84" y="440" type="curve"/>
      <point x="49" y="457" type="line"/>
      <point x="90" y="527"/>
      <point x="110" y="578"/>
      <point x="130" y="641" type="curve"/>
      <point x="206" y="634"/>
      <point x="267" y="631"/>
      <point x="323" y="631" type="curve" smooth="yes"/>
      <point x="379" y="631"/>
      <point x="430" y="634"/>
      <point x="485" y="641" type="curve"/>
      <point x="492" y="627"/>
      <point x="500" y="621"/>
      <point x="500" y="621" type="curve"/>
      <point x="395" y="495"/>
      <point x="316" y="385"/>
      <point x="276" y="317" type="curve" smooth="yes"/>
      <point x="234" y="245"/>
      <point x="215" y="220"/>
      <point x="174" y="18" type="curve"/>
      <point x="132" y="9"/>
      <point x="85" y="-7"/>
    </contour>
  </outline>
</glyph>
<glyph name="eight" format="1">
  <advance width="517"/>
  <unicode hex="0038"/>
  <outline>
    <contour>
      <point x="285" y="-2" type="curve" smooth="yes"/>
      <point x="259" y="-13"/>
      <point x="226" y="-21"/>
      <point x="192" y="-21" type="curve" smooth="yes"/>
      <point x="166" y="-21"/>
      <point x="140" y="-16"/>
      <point x="117" y="-7" type="curve" smooth="yes"/>
      <point x="68" y="13"/>
      <point x="14" y="70"/>
      <point x="13" y="147" type="curve" smooth="yes"/>
      <point x="13" y="200"/>
      <point x="33" y="233"/>
      <point x="84" y="271" type="curve" smooth="yes"/>
      <point x="111" y="292"/>
      <point x="138" y="312"/>
      <point x="194" y="345" type="curve"/>
      <point x="175" y="365"/>
      <point x="145" y="400"/>
      <point x="133" y="420" type="curve"/>
      <point x="117" y="444"/>
      <point x="107" y="473"/>
      <point x="107" y="502" type="curve" smooth="yes"/>
      <point x="107" y="534"/>
      <point x="119" y="566"/>
      <point x="151" y="595" type="curve"/>
      <point x="166" y="610"/>
      <point x="212" y="639"/>
      <point x="246" y="650" type="curve" smooth="yes"/>
      <point x="271" y="658"/>
      <point x="297" y="661"/>
      <point x="321" y="661" type="curve" smooth="yes"/>
      <point x="345" y="661"/>
      <point x="366" y="658"/>
      <point x="383" y="652" type="curve" smooth="yes"/>
      <point x="446" y="629"/>
      <point x="475" y="584"/>
      <point x="475" y="530" type="curve" smooth="yes"/>
      <point x="475" y="513"/>
      <point x="472" y="495"/>
      <point x="467" y="477" type="curve" smooth="yes"/>
      <point x="459" y="449"/>
      <point x="438" y="424"/>
      <point x="405" y="401" type="curve" smooth="yes"/>
      <point x="385" y="388"/>
      <point x="371" y="377"/>
      <point x="347" y="363" type="curve"/>
      <point x="389" y="320"/>
      <point x="422" y="280"/>
      <point x="430" y="265" type="curve" smooth="yes"/>
      <point x="442" y="241"/>
      <point x="448" y="214"/>
      <point x="448" y="187" type="curve" smooth="yes"/>
      <point x="448" y="148"/>
      <point x="435" y="109"/>
      <point x="407" y="80" type="curve"/>
      <point x="375" y="50"/>
      <point x="340" y="20"/>
    </contour>
    <contour>
      <point x="142" y="188" type="curve" smooth="yes"/>
      <point x="142" y="136"/>
      <point x="170" y="103"/>
      <point x="200" y="84" type="curve" smooth="yes"/>
      <point x="219" y="72"/>
      <point x="242" y="67"/>
      <point x="264" y="67" type="curve" smooth="yes"/>
      <point x="285" y="67"/>
      <point x="305" y="72"/>
      <point x="319" y="83" type="curve" smooth="yes"/>
      <point x="331" y="93"/>
      <point x="337" y="109"/>
      <point x="337" y="129" type="curve" smooth="yes"/>
      <point x="337" y="148"/>
      <point x="332" y="170"/>
      <point x="319" y="193" type="curve" smooth="yes"/>
      <point x="298" y="232"/>
      <point x="276" y="259"/>
      <point x="234" y="303" type="curve"/>
      <point x="175" y="267"/>
      <point x="142" y="237"/>
    </contour>
    <contour>
      <point x="234" y="585" type="curve" smooth="yes"/>
      <point x="222" y="578"/>
      <point x="218" y="565"/>
      <point x="218" y="550" type="curve" smooth="yes"/>
      <point x="218" y="535"/>
      <point x="222" y="519"/>
      <point x="229" y="505" type="curve" smooth="yes"/>
      <point x="248" y="466"/>
      <point x="282" y="430"/>
      <point x="308" y="403" type="curve"/>
      <point x="346" y="423"/>
      <point x="359" y="455"/>
      <point x="359" y="485" type="curve" smooth="yes"/>
      <point x="359" y="500"/>
      <point x="355" y="514"/>
      <point x="350" y="527" type="curve" smooth="yes"/>
      <point x="331" y="572"/>
      <point x="298" y="594"/>
      <point x="267" y="594" type="curve" smooth="yes"/>
      <point x="256" y="594"/>
      <point x="244" y="591"/>
    </contour>
  </outline>
</glyph>
<glyph name="nine" format="1">
  <advance width="544"/>
  <unicode hex="0039"/>
  <outline>
    <contour>
      <point x="266" y="632" type="curve" smooth="yes"/>
      <point x="287" y="640"/>
      <point x="310" y="645"/>
      <point x="334" y="645" type="curve" smooth="yes"/>
      <point x="358" y="645"/>
      <point x="382" y="640"/>
      <point x="405" y="625" type="curve" smooth="yes"/>
      <point x="460" y="589"/>
      <point x="496" y="520"/>
      <point x="499" y="451" type="curve" smooth="yes"/>
      <point x="503" y="364"/>
      <point x="487" y="263"/>
      <point x="432" y="154" type="curve" smooth="yes"/>
      <point x="417" y="123"/>
      <point x="395" y="98"/>
      <point x="367" y="77" type="curve" smooth="yes"/>
      <point x="332" y="51"/>
      <point x="291" y="28"/>
      <point x="259" y="12" type="curve" smooth="yes"/>
      <point x="220" y="-8"/>
      <point x="176" y="-16"/>
      <point x="131" y="-11" type="curve" smooth="yes"/>
      <point x="80" y="-5"/>
      <point x="39" y="3"/>
      <point x="5" y="12" type="curve"/>
      <point x="23" y="37"/>
      <point x="51" y="94"/>
      <point x="63" y="124" type="curve"/>
      <point x="98" y="108"/>
      <point x="166" y="87"/>
      <point x="205" y="80" type="curve" smooth="yes"/>
      <point x="221" y="77"/>
      <point x="234" y="76"/>
      <point x="244" y="76" type="curve" smooth="yes"/>
      <point x="273" y="76"/>
      <point x="283" y="88"/>
      <point x="301" y="120" type="curve" smooth="yes"/>
      <point x="322" y="157"/>
      <point x="340" y="220"/>
      <point x="350" y="261" type="curve"/>
      <point x="320" y="250"/>
      <point x="300" y="242"/>
      <point x="272" y="233" type="curve" smooth="yes"/>
      <point x="242" y="223"/>
      <point x="221" y="217"/>
      <point x="202" y="217" type="curve" smooth="yes"/>
      <point x="178" y="217"/>
      <point x="158" y="226"/>
      <point x="131" y="245" type="curve" smooth="yes"/>
      <point x="94" y="271"/>
      <point x="62" y="325"/>
      <point x="62" y="395" type="curve" smooth="yes"/>
      <point x="62" y="421"/>
      <point x="67" y="450"/>
      <point x="77" y="480" type="curve" smooth="yes"/>
      <point x="94" y="527"/>
      <point x="112" y="542"/>
      <point x="157" y="575" type="curve" smooth="yes"/>
      <point x="181" y="593"/>
      <point x="238" y="622"/>
    </contour>
    <contour>
      <point x="360" y="315" type="curve"/>
      <point x="366" y="346"/>
      <point x="370" y="376"/>
      <point x="370" y="403" type="curve" smooth="yes"/>
      <point x="370" y="456"/>
      <point x="358" y="499"/>
      <point x="336" y="524" type="curve" smooth="yes"/>
      <point x="302" y="563"/>
      <point x="272" y="573"/>
      <point x="242" y="560" type="curve" smooth="yes"/>
      <point x="205" y="545"/>
      <point x="194" y="516"/>
      <point x="190" y="462" type="curve" smooth="yes"/>
      <point x="187" y="435"/>
      <point x="190" y="378"/>
      <point x="214" y="343" type="curve"/>
      <point x="236" y="309"/>
      <point x="266" y="293"/>
      <point x="305" y="301" type="curve" smooth="yes"/>
      <point x="325" y="305"/>
      <point x="339" y="308"/>
    </contour>
  </outline>
</glyph>
<glyph name="colon" format="1">
  <advance width="199"/>
  <unicode hex="003A"/>
  <outline>
    <contour>
      <point x="55" y="-10" type="curve" smooth="yes"/>
      <point x="7" y="-6"/>
      <point x="-3" y="25"/>
      <point x="2" y="55" type="curve" smooth="yes"/>
      <point x="8" y="91"/>
      <point x="38" y="125"/>
      <point x="86" y="121" type="curve" smooth="yes"/>
      <point x="132" y="117"/>
      <point x="144" y="86"/>
      <point x="138" y="56" type="curve" smooth="yes"/>
      <point x="132" y="20"/>
      <point x="109" y="-15"/>
    </contour>
    <contour>
      <point x="115" y="295" type="curve" smooth="yes"/>
      <point x="67" y="299"/>
      <point x="57" y="330"/>
      <point x="62" y="360" type="curve" smooth="yes"/>
      <point x="68" y="396"/>
      <point x="98" y="430"/>
      <point x="146" y="426" type="curve" smooth="yes"/>
      <point x="192" y="422"/>
      <point x="204" y="391"/>
      <point x="198" y="361" type="curve" smooth="yes"/>
      <point x="192" y="325"/>
      <point x="169" y="290"/>
    </contour>
  </outline>
</glyph>
<glyph name="less" format="1">
  <advance width="470"/>
  <unicode hex="003C"/>
  <outline>
    <contour>
      <point x="34" y="273" type="line"/>
      <point x="34" y="300" type="line"/>
      <point x="405" y="485" type="line"/>
      <point x="426" y="444" type="line"/>
      <point x="106" y="287" type="line"/>
      <point x="426" y="133" type="line"/>
      <point x="405" y="89" type="line"/>
    </contour>
  </outline>
</glyph>
<glyph name="equal" format="1">
  <advance width="470"/>
  <unicode hex="003D"/>
  <outline>
    <contour>
      <point x="29" y="331" type="line"/>
      <point x="29" y="378" type="line"/>
      <point x="444" y="378" type="line"/>
      <point x="444" y="331" type="line"/>
    </contour>
    <contour>
      <point x="29" y="190" type="line"/>
      <point x="29" y="237" type="line"/>
      <point x="444" y="237" type="line"/>
      <point x="444" y="190" type="line"/>
    </contour>
  </outline>
</glyph>
<glyph name="greater" format="1">
  <advance width="470"/>
  <unicode hex="003E"/>
  <outline>
    <contour>
      <point x="446" y="301" type="line"/>
      <point x="446" y="274" type="line"/>
      <point x="75" y="89" type="line"/>
      <point x="54" y="130" type="line"/>
      <point x="374" y="287" type="line"/>
      <point x="54" y="441" type="line"/>
      <point x="75" y="485" type="line"/>
    </contour>
  </outline>
</glyph>
<glyph name="question" format="1">
  <advance width="410"/>
  <unicode hex="003F"/>
  <outline>
    <contour>
      <point x="141" y="162" type="curve"/>
      <point x="103" y="165" type="line"/>
      <point x="118" y="208"/>
      <point x="139" y="285"/>
      <point x="156" y="345" type="curve"/>
      <point x="184" y="337"/>
      <point x="222" y="328"/>
      <point x="251" y="325" type="curve" smooth="yes"/>
      <point x="296" y="321"/>
      <point x="330" y="330"/>
      <point x="349" y="365" type="curve" smooth="yes"/>
      <point x="366" y="396"/>
      <point x="345" y="432"/>
      <point x="277" y="471" type="curve" smooth="yes"/>
      <point x="221" y="503"/>
      <point x="136" y="530"/>
      <point x="81" y="538" type="curve"/>
      <point x="104" y="571"/>
      <point x="120" y="609"/>
      <point x="130" y="652" type="curve"/>
      <point x="155" y="646"/>
      <point x="177" y="638"/>
      <point x="203" y="629" type="curve" smooth="yes"/>
      <point x="244" y="615"/>
      <point x="301" y="590"/>
      <point x="339" y="565" type="curve" smooth="yes"/>
      <point x="395" y="527"/>
      <point x="431" y="485"/>
      <point x="420" y="420" type="curve" smooth="yes"/>
      <point x="410" y="358"/>
      <point x="384" y="306"/>
      <point x="350" y="271" type="curve" smooth="yes"/>
      <point x="315" y="235"/>
      <point x="286" y="220"/>
      <point x="240" y="223" type="curve" smooth="yes"/>
      <point x="220" y="224"/>
      <point x="185" y="230"/>
      <point x="166" y="235" type="curve"/>
      <point x="156" y="211"/>
      <point x="152" y="202"/>
    </contour>
    <contour>
      <point x="85" y="-10" type="curve" smooth="yes"/>
      <point x="38" y="-6"/>
      <point x="27" y="25"/>
      <point x="32" y="55" type="curve" smooth="yes"/>
      <point x="37" y="91"/>
      <point x="67" y="125"/>
      <point x="115" y="121" type="curve" smooth="yes"/>
      <point x="161" y="117"/>
      <point x="173" y="86"/>
      <point x="167" y="56" type="curve"/>
      <point x="162" y="20"/>
      <point x="140" y="-15"/>
    </contour>
  </outline>
</glyph>
<glyph name="at" format="1">
  <advance width="828"/>
  <unicode hex="0040"/>
  <outline>
    <contour>
      <point x="452" y="-14" type="curve" smooth="yes"/>
      <point x="423" y="-14"/>
      <point x="399" y="-5"/>
      <point x="397" y="32" type="curve"/>
      <point x="355" y="12"/>
      <point x="301" y="-11"/>
      <point x="274" y="-11" type="curve" smooth="yes"/>
      <point x="223" y="-11"/>
      <point x="186" y="40"/>
      <point x="194" y="120" type="curve"/>
      <point x="199" y="181"/>
      <point x="216" y="247"/>
      <point x="250" y="309" type="curve" smooth="yes"/>
      <point x="280" y="362"/>
      <point x="301" y="378"/>
      <point x="370" y="408" type="curve" smooth="yes"/>
      <point x="404" y="423"/>
      <point x="433" y="428"/>
      <point x="463" y="428" type="curve" smooth="yes"/>
      <point x="475" y="428"/>
      <point x="486" y="427"/>
      <point x="498" y="426" type="curve" smooth="yes"/>
      <point x="520" y="424"/>
      <point x="585" y="416"/>
      <point x="612" y="407" type="curve"/>
      <point x="592" y="383"/>
      <point x="586" y="364"/>
      <point x="582" y="350" type="curve" smooth="yes"/>
      <point x="553" y="268"/>
      <point x="530" y="148"/>
      <point x="525" y="106" type="curve" smooth="yes"/>
      <point x="522" y="74"/>
      <point x="545" y="70"/>
      <point x="564" y="70" type="curve" smooth="yes"/>
      <point x="589" y="69"/>
      <point x="624" y="97"/>
      <point x="644" y="123" type="curve" smooth="yes"/>
      <point x="680" y="168"/>
      <point x="709" y="223"/>
      <point x="720" y="304" type="curve" smooth="yes"/>
      <point x="723" y="324"/>
      <point x="724" y="344"/>
      <point x="724" y="361" type="curve" smooth="yes"/>
      <point x="724" y="522"/>
      <point x="614" y="566"/>
      <point x="509" y="566" type="curve" smooth="yes"/>
      <point x="242" y="566"/>
      <point x="135" y="366"/>
      <point x="102" y="247" type="curve" smooth="yes"/>
      <point x="88" y="194"/>
      <point x="77" y="138"/>
      <point x="77" y="85" type="curve" smooth="yes"/>
      <point x="77" y="-41"/>
      <point x="136" y="-148"/>
      <point x="333" y="-148" type="curve" smooth="yes"/>
      <point x="384" y="-148"/>
      <point x="453" y="-131"/>
      <point x="487" y="-117" type="curve"/>
      <point x="498" y="-159" type="line"/>
      <point x="452" y="-180"/>
      <point x="378" y="-196"/>
      <point x="327" y="-196" type="curve" smooth="yes"/>
      <point x="113" y="-196"/>
      <point x="27" y="-77"/>
      <point x="27" y="88" type="curve" smooth="yes"/>
      <point x="27" y="141"/>
      <point x="36" y="198"/>
      <point x="52" y="258" type="curve" smooth="yes"/>
      <point x="107" y="461"/>
      <point x="279" y="612"/>
      <point x="514" y="612" type="curve" smooth="yes"/>
      <point x="667" y="612"/>
      <point x="774" y="523"/>
      <point x="774" y="363" type="curve" smooth="yes"/>
      <point x="774" y="344"/>
      <point x="772" y="323"/>
      <point x="769" y="302" type="curve" smooth="yes"/>
      <point x="760" y="237"/>
      <point x="726" y="152"/>
      <point x="682" y="98" type="curve" smooth="yes"/>
      <point x="620" y="20"/>
      <point x="550" y="-14"/>
    </contour>
    <contour>
      <point x="316" y="131" type="curve" smooth="yes"/>
      <point x="313" y="92"/>
      <point x="323" y="69"/>
      <point x="356" y="69" type="curve" smooth="yes"/>
      <point x="375" y="69"/>
      <point x="388" y="70"/>
      <point x="402" y="74" type="curve"/>
      <point x="428" y="197"/>
      <point x="445" y="278"/>
      <point x="471" y="366" type="curve"/>
      <point x="461" y="370"/>
      <point x="449" y="374"/>
      <point x="436" y="375" type="curve"/>
      <point x="405" y="380"/>
      <point x="388" y="374"/>
      <point x="355" y="300" type="curve" smooth="yes"/>
      <point x="334" y="253"/>
      <point x="320" y="183"/>
    </contour>
  </outline>
</glyph>
<glyph name="D" format="1">
  <advance width="711"/>
  <unicode hex="0044"/>
  <outline>
    <contour>
      <point x="291" y="-2" type="curve" smooth="yes"/>
      <point x="258" y="-2"/>
      <point x="204" y="2"/>
      <point x="135" y="2" type="curve" smooth="yes"/>
      <point x="99" y="2" type="line" smooth="yes"/>
      <point x="66" y="2"/>
      <point x="29" y="0"/>
      <point x="-9" y="-3" type="curve"/>
      <point x="-6" y="36" type="line"/>
      <point x="76" y="53"/>
      <point x="73" y="55"/>
      <point x="86" y="107" type="curve" smooth="yes"/>
      <point x="120" y="244"/>
      <point x="149" y="396"/>
      <point x="171" y="533" type="curve" smooth="yes"/>
      <point x="180" y="584"/>
      <point x="171" y="590"/>
      <point x="105" y="600" type="curve"/>
      <point x="118" y="639" type="line"/>
      <point x="119" y="639" type="line"/>
      <point x="155" y="635"/>
      <point x="192" y="634"/>
      <point x="229" y="634" type="curve" smooth="yes"/>
      <point x="261" y="634" type="line"/>
      <point x="296" y="635"/>
      <point x="337" y="636"/>
      <point x="377" y="636" type="curve" smooth="yes"/>
      <point x="395" y="636"/>
      <point x="413" y="636"/>
      <point x="430" y="635" type="curve" smooth="yes"/>
      <point x="619" y="627"/>
      <point x="681" y="499"/>
      <point x="681" y="374" type="curve" smooth="yes"/>
      <point x="681" y="342"/>
      <point x="677" y="310"/>
      <point x="670" y="281" type="curve" smooth="yes"/>
      <point x="641" y="165"/>
      <point x="574" y="91"/>
      <point x="487" y="45" type="curve"/>
      <point x="446" y="22"/>
      <point x="350" y="-2"/>
    </contour>
    <contour>
      <point x="374" y="584" type="curve" smooth="yes"/>
      <point x="363" y="585"/>
      <point x="327" y="585"/>
      <point x="309" y="582" type="curve"/>
      <point x="278" y="459"/>
      <point x="231" y="215"/>
      <point x="206" y="75" type="curve"/>
      <point x="239" y="65"/>
      <point x="295" y="59"/>
      <point x="313" y="57" type="curve" smooth="yes"/>
      <point x="439" y="47"/>
      <point x="516" y="169"/>
      <point x="540" y="300" type="curve" smooth="yes"/>
      <point x="545" y="326"/>
      <point x="547" y="352"/>
      <point x="547" y="376" type="curve" smooth="yes"/>
      <point x="547" y="488"/>
      <point x="495" y="574"/>
    </contour>
  </outline>
</glyph>
<glyph name="K" format="1">
  <advance width="726"/>
  <unicode hex="004B"/>
  <outline>
    <contour>
      <point x="256" y="346" type="curve"/>
      <point x="430" y="491"/>
      <point x="544" y="570"/>
      <point x="715" y="652" type="curve"/>
      <point x="714" y="643"/>
      <point x="713" y="626"/>
      <point x="713" y="607" type="curve" smooth="yes"/>
      <point x="713" y="576"/>
      <point x="715" y="541"/>
      <point x="720" y="522" type="curve"/>
      <point x="555" y="480"/>
      <point x="501" y="461"/>
      <point x="377" y="380" type="curve"/>
      <point x="420" y="312"/>
      <point x="491" y="198"/>
      <point x="540" y="130" type="curve" smooth="yes"/>
      <point x="591" y="60"/>
      <point x="598" y="50"/>
      <point x="661" y="39" type="curve"/>
      <point x="650" y="-3" type="line"/>
      <point x="621" y="2"/>
      <point x="576" y="3"/>
      <point x="534" y="3" type="curve" smooth="yes"/>
      <point x="484" y="3"/>
      <point x="440" y="1"/>
      <point x="434" y="-3" type="curve"/>
      <point x="432" y="23"/>
      <point x="430" y="40"/>
      <point x="411" y="78" type="curve" smooth="yes"/>
      <point x="369" y="164"/>
      <point x="302" y="283"/>
    </contour>
    <contour>
      <point x="118" y="639" type="line"/>
      <point x="119" y="639" type="line"/>
      <point x="167" y="634"/>
      <point x="209" y="631"/>
      <point x="252" y="631" type="curve" smooth="yes"/>
      <point x="295" y="631"/>
      <point x="338" y="634"/>
      <point x="388" y="639" type="curve"/>
      <point x="384" y="600" type="line"/>
      <point x="314" y="588"/>
      <point x="310" y="585"/>
      <point x="297" y="534" type="curve" smooth="yes"/>
      <point x="271" y="431"/>
      <point x="235" y="242"/>
      <point x="212" y="108" type="curve" smooth="yes"/>
      <point x="210" y="95"/>
      <point x="209" y="86"/>
      <point x="209" y="78" type="curve" smooth="yes"/>
      <point x="209" y="51"/>
      <point x="223" y="47"/>
      <point x="272" y="36" type="curve"/>
      <point x="259" y="-3" type="line"/>
      <point x="210" y="1"/>
      <point x="168" y="3"/>
      <point x="126" y="3" type="curve" smooth="yes"/>
      <point x="83" y="3"/>
      <point x="40" y="1"/>
      <point x="-9" y="-3" type="curve"/>
      <point x="-6" y="36" type="line"/>
      <point x="76" y="53"/>
      <point x="73" y="55"/>
      <point x="86" y="107" type="curve" smooth="yes"/>
      <point x="120" y="244"/>
      <point x="149" y="396"/>
      <point x="171" y="533" type="curve" smooth="yes"/>
      <point x="180" y="584"/>
      <point x="171" y="590"/>
      <point x="105" y="600" type="curve"/>
    </contour>
  </outline>
</glyph>
<glyph name="L" format="1">
  <advance width="587"/>
  <unicode hex="004C"/>
  <outline>
    <contour>
      <point x="297" y="534" type="curve" smooth="yes"/>
      <point x="267" y="414"/>
      <point x="231" y="219"/>
      <point x="206" y="71" type="curve"/>
      <point x="255" y="60"/>
      <point x="290" y="55"/>
      <point x="323" y="55" type="curve" smooth="yes"/>
      <point x="399" y="55"/>
      <point x="433" y="62"/>
      <point x="525" y="172" type="curve"/>
      <point x="562" y="152" type="line"/>
      <point x="530" y="96"/>
      <point x="504" y="47"/>
      <point x="485" y="-6" type="curve"/>
      <point x="336" y="1"/>
      <point x="293" y="3"/>
      <point x="171" y="3" type="curve" smooth="yes"/>
      <point x="95" y="3" type="line" smooth="yes"/>
      <point x="63" y="3"/>
      <point x="29" y="0"/>
      <point x="-9" y="-3" type="curve"/>
      <point x="-6" y="36" type="line"/>
      <point x="76" y="53"/>
      <point x="73" y="55"/>
      <point x="86" y="107" type="curve" smooth="yes"/>
      <point x="120" y="244"/>
      <point x="149" y="396"/>
      <point x="171" y="533" type="curve" smooth="yes"/>
      <point x="180" y="584"/>
      <point x="171" y="590"/>
      <point x="105" y="600" type="curve"/>
      <point x="118" y="639" type="line"/>
      <point x="119" y="639" type="line"/>
      <point x="167" y="634"/>
      <point x="209" y="631"/>
      <point x="252" y="631" type="curve" smooth="yes"/>
      <point x="295" y="631"/>
      <point x="338" y="634"/>
      <point x="388" y="639" type="curve"/>
      <point x="384" y="600" type="line"/>
      <point x="314" y="588"/>
      <point x="310" y="585"/>
    </contour>
  </outline>
</glyph>
<glyph name="M" format="1">
  <advance width="990"/>
  <unicode hex="004D"/>
  <outline>
    <contour>
      <point x="161" y="126" type="curve"/>
      <point x="154" y="70"/>
      <point x="165" y="58"/>
      <point x="230" y="36" type="curve"/>
      <point x="216" y="-3" type="line"/>
      <point x="168" y="1"/>
      <point x="137" y="3"/>
      <point x="105" y="3" type="curve" smooth="yes"/>
      <point x="73" y="3"/>
      <point x="40" y="1"/>
      <point x="-9" y="-3" type="curve"/>
      <point x="-6" y="36" type="line"/>
      <point x="70" y="55"/>
      <point x="79" y="74"/>
      <point x="94" y="125" type="curve" smooth="yes"/>
      <point x="124" y="230"/>
      <point x="153" y="373"/>
      <point x="180" y="515" type="curve" smooth="yes"/>
      <point x="190" y="569"/>
      <point x="171" y="584"/>
      <point x="104" y="600" type="curve"/>
      <point x="117" y="639" type="line"/>
      <point x="152" y="635"/>
      <point x="195" y="633"/>
      <point x="236" y="633" type="curve" smooth="yes"/>
      <point x="277" y="633"/>
      <point x="315" y="635"/>
      <point x="343" y="638" type="curve"/>
      <point x="342" y="615"/>
      <point x="347" y="580"/>
      <point x="358" y="541" type="curve" smooth="yes"/>
      <point x="393" y="411"/>
      <point x="446" y="259"/>
      <point x="477" y="159" type="curve"/>
      <point x="563" y="269"/>
      <point x="681" y="423"/>
      <point x="760" y="536" type="curve" smooth="yes"/>
      <point x="789" y="577"/>
      <point x="804" y="610"/>
      <point x="809" y="639" type="curve"/>
      <point x="839" y="635"/>
      <point x="871" y="633"/>
      <point x="905" y="633" type="curve" smooth="yes"/>
      <point x="943" y="633"/>
      <point x="982" y="635"/>
      <point x="1019" y="639" type="curve"/>
      <point x="1015" y="600" type="line"/>
      <point x="945" y="588"/>
      <point x="941" y="585"/>
      <point x="928" y="534" type="curve" smooth="yes"/>
      <point x="902" y="431"/>
      <point x="866" y="242"/>
      <point x="843" y="108" type="curve" smooth="yes"/>
      <point x="841" y="95"/>
      <point x="840" y="86"/>
      <point x="840" y="78" type="curve" smooth="yes"/>
      <point x="840" y="51"/>
      <point x="854" y="47"/>
      <point x="903" y="36" type="curve"/>
      <point x="890" y="-3" type="line"/>
      <point x="841" y="1"/>
      <point x="799" y="3"/>
      <point x="757" y="3" type="curve" smooth="yes"/>
      <point x="714" y="3"/>
      <point x="671" y="1"/>
      <point x="622" y="-3" type="curve"/>
      <point x="625" y="36" type="line"/>
      <point x="707" y="53"/>
      <point x="705" y="55"/>
      <point x="717" y="107" type="curve" smooth="yes"/>
      <point x="751" y="243"/>
      <point x="775" y="348"/>
      <point x="794" y="491" type="curve"/>
      <point x="696" y="353"/>
      <point x="513" y="128"/>
      <point x="437" y="-5" type="curve"/>
      <point x="386" y="-7" type="line"/>
      <point x="340" y="190"/>
      <point x="299" y="318"/>
      <point x="235" y="498" type="curve"/>
      <point x="233" y="485"/>
      <point x="232" y="496"/>
    </contour>
  </outline>
</glyph>
<glyph name="N" format="1">
  <advance width="767"/>
  <unicode hex="004E"/>
  <outline>
    <contour>
      <point x="714" y="515" type="curve" smooth="yes"/>
      <point x="676" y="386"/>
      <point x="650" y="276"/>
      <point x="623" y="140" type="curve" smooth="yes"/>
      <point x="621" y="132"/>
      <point x="620" y="123"/>
      <point x="620" y="111" type="curve" smooth="yes"/>
      <point x="620" y="89"/>
      <point x="624" y="59"/>
      <point x="635" y="19" type="curve"/>
      <point x="599" y="13"/>
      <point x="554" y="-5"/>
      <point x="528" y="-21" type="curve"/>
      <point x="471" y="94"/>
      <point x="290" y="420"/>
      <point x="235" y="510" type="curve"/>
      <point x="207" y="375"/>
      <point x="172" y="209"/>
      <point x="161" y="126" type="curve" smooth="yes"/>
      <point x="154" y="70"/>
      <point x="165" y="58"/>
      <point x="230" y="36" type="curve"/>
      <point x="216" y="-3" type="line"/>
      <point x="168" y="1"/>
      <point x="137" y="3"/>
      <point x="105" y="3" type="curve" smooth="yes"/>
      <point x="73" y="3"/>
      <point x="40" y="1"/>
      <point x="-9" y="-3" type="curve"/>
      <point x="-6" y="36" type="line"/>
      <point x="70" y="55"/>
      <point x="79" y="74"/>
      <point x="94" y="125" type="curve" smooth="yes"/>
      <point x="124" y="230"/>
      <point x="153" y="373"/>
      <point x="180" y="515" type="curve" smooth="yes"/>
      <point x="190" y="569"/>
      <point x="171" y="584"/>
      <point x="104" y="600" type="curve"/>
      <point x="117" y="639" type="line"/>
      <point x="149" y="635"/>
      <point x="187" y="634"/>
      <point x="223" y="634" type="curve" smooth="yes"/>
      <point x="265" y="634"/>
      <point x="305" y="636"/>
      <point x="334" y="639" type="curve"/>
      <point x="338" y="607"/>
      <point x="352" y="575"/>
      <point x="367" y="545" type="curve" smooth="yes"/>
      <point x="420" y="438"/>
      <point x="502" y="305"/>
      <point x="572" y="178" type="curve"/>
      <point x="602" y="294"/>
      <point x="630" y="413"/>
      <point x="645" y="517" type="curve" smooth="yes"/>
      <point x="653" y="568"/>
      <point x="642" y="582"/>
      <point x="575" y="600" type="curve"/>
      <point x="588" y="639" type="line"/>
      <point x="589" y="639" type="line"/>
      <point x="637" y="634"/>
      <point x="667" y="631"/>
      <point x="698" y="631" type="curve" smooth="yes"/>
      <point x="729" y="631"/>
      <point x="761" y="634"/>
      <point x="811" y="639" type="curve"/>
      <point x="807" y="600" type="line"/>
      <point x="739" y="579"/>
      <point x="729" y="567"/>
    </contour>
  </outline>
</glyph>
<glyph name="Q" format="1">
  <advance width="767"/>
  <unicode hex="0051"/>
  <outline>
    <contour>
      <point x="677" y="162" type="curve" smooth="yes"/>
      <point x="638" y="79"/>
      <point x="560" y="31"/>
      <point x="473" y="-3" type="curve" smooth="yes"/>
      <point x="383" y="-38"/>
      <point x="262" y="-65"/>
      <point x="172" y="-78" type="curve"/>
      <point x="268" y="-105"/>
      <point x="360" y="-119"/>
      <point x="486" y="-119" type="curve" smooth="yes"/>
      <point x="529" y="-119"/>
      <point x="575" y="-117"/>
      <point x="627" y="-114" type="curve"/>
      <point x="602" y="-149"/>
      <point x="581" y="-218"/>
      <point x="578" y="-243" type="curve"/>
      <point x="253" y="-228"/>
      <point x="148" y="-188"/>
      <point x="-39" y="-93" type="curve"/>
      <point x="-22" y="-78"/>
      <point x="-3" y="-51"/>
      <point x="8" y="-24" type="curve"/>
      <point x="37" y="-34"/>
      <point x="70" y="-38"/>
      <point x="102" y="-38" type="curve" smooth="yes"/>
      <point x="166" y="-38"/>
      <point x="230" y="-23"/>
      <point x="277" y="-8" type="curve"/>
      <point x="215" y="3"/>
      <point x="176" y="28"/>
      <point x="145" y="56" type="curve" smooth="yes"/>
      <point x="95" y="101"/>
      <point x="65" y="166"/>
      <point x="57" y="224" type="curve" smooth="yes"/>
      <point x="56" y="234"/>
      <point x="55" y="246"/>
      <point x="55" y="258" type="curve" smooth="yes"/>
      <point x="55" y="332"/>
      <point x="78" y="435"/>
      <point x="121" y="498" type="curve" smooth="yes"/>
      <point x="145" y="533"/>
      <point x="182" y="580"/>
      <point x="242" y="607" type="curve" smooth="yes"/>
      <point x="278" y="624"/>
      <point x="341" y="642"/>
      <point x="384" y="649" type="curve" smooth="yes"/>
      <point x="404" y="652"/>
      <point x="424" y="653"/>
      <point x="443" y="653" type="curve" smooth="yes"/>
      <point x="516" y="653"/>
      <point x="581" y="631"/>
      <point x="639" y="583" type="curve" smooth="yes"/>
      <point x="689" y="542"/>
      <point x="711" y="483"/>
      <point x="720" y="438" type="curve" smooth="yes"/>
      <point x="723" y="421"/>
      <point x="725" y="401"/>
      <point x="725" y="380" type="curve" smooth="yes"/>
      <point x="725" y="309"/>
      <point x="706" y="225"/>
    </contour>
    <contour>
      <point x="235" y="479" type="curve"/>
      <point x="204" y="420"/>
      <point x="185" y="335"/>
      <point x="189" y="265" type="curve" smooth="yes"/>
      <point x="193" y="186"/>
      <point x="233" y="117"/>
      <point x="292" y="83" type="curve" smooth="yes"/>
      <point x="331" y="61"/>
      <point x="369" y="49"/>
      <point x="404" y="49" type="curve" smooth="yes"/>
      <point x="467" y="49"/>
      <point x="521" y="86"/>
      <point x="555" y="168" type="curve" smooth="yes"/>
      <point x="576" y="217"/>
      <point x="590" y="276"/>
      <point x="590" y="342" type="curve" smooth="yes"/>
      <point x="590" y="357"/>
      <point x="589" y="372"/>
      <point x="588" y="387" type="curve" smooth="yes"/>
      <point x="582" y="447"/>
      <point x="553" y="513"/>
      <point x="501" y="548" type="curve" smooth="yes"/>
      <point x="461" y="574"/>
      <point x="422" y="589"/>
      <point x="385" y="589" type="curve" smooth="yes"/>
      <point x="328" y="589"/>
      <point x="277" y="555"/>
    </contour>
  </outline>
</glyph>
<glyph name="S" format="1">
  <advance width="515"/>
  <unicode hex="0053"/>
  <outline>
    <contour>
      <point x="454" y="143" type="curve" smooth="yes"/>
      <point x="441" y="103"/>
      <point x="405" y="50"/>
      <point x="369" y="22" type="curve" smooth="yes"/>
      <point x="334" y="-5"/>
      <point x="301" y="-15"/>
      <point x="260" y="-15" type="curve" smooth="yes"/>
      <point x="246" y="-15"/>
      <point x="230" y="-14"/>
      <point x="214" y="-12" type="curve" smooth="yes"/>
      <point x="138" y="-3"/>
      <point x="58" y="17"/>
      <point x="-25" y="48" type="curve"/>
      <point x="-8" y="69"/>
      <point x="28" y="153"/>
      <point x="36" y="185" type="curve"/>
      <point x="85" y="149"/>
      <point x="164" y="106"/>
      <point x="238" y="87" type="curve" smooth="yes"/>
      <point x="268" y="80"/>
      <point x="291" y="77"/>
      <point x="309" y="77" type="curve" smooth="yes"/>
      <point x="345" y="77"/>
      <point x="362" y="88"/>
      <point x="370" y="100" type="curve" smooth="yes"/>
      <point x="378" y="112"/>
      <point x="381" y="125"/>
      <point x="381" y="138" type="curve" smooth="yes"/>
      <point x="381" y="174"/>
      <point x="355" y="210"/>
      <point x="326" y="233" type="curve" smooth="yes"/>
      <point x="262" y="283"/>
      <point x="202" y="309"/>
      <point x="142" y="363" type="curve" smooth="yes"/>
      <point x="111" y="391"/>
      <point x="98" y="427"/>
      <point x="98" y="464" type="curve" smooth="yes"/>
      <point x="98" y="490"/>
      <point x="105" y="516"/>
      <point x="116" y="541" type="curve" smooth="yes"/>
      <point x="146" y="609"/>
      <point x="214" y="647"/>
      <point x="303" y="647" type="curve" smooth="yes"/>
      <point x="357" y="647"/>
      <point x="410" y="626"/>
      <point x="438" y="632" type="curve"/>
      <point x="445" y="600"/>
      <point x="466" y="525"/>
      <point x="484" y="491" type="curve"/>
      <point x="450" y="475" type="line"/>
      <point x="403" y="548"/>
      <point x="352" y="596"/>
      <point x="292" y="596" type="curve" smooth="yes"/>
      <point x="244" y="596"/>
      <point x="210" y="580"/>
      <point x="197" y="551" type="curve" smooth="yes"/>
      <point x="193" y="541"/>
      <point x="190" y="531"/>
      <point x="190" y="520" type="curve" smooth="yes"/>
      <point x="190" y="496"/>
      <point x="201" y="471"/>
      <point x="225" y="450" type="curve" smooth="yes"/>
      <point x="271" y="411"/>
      <point x="336" y="381"/>
      <point x="394" y="338" type="curve"/>
      <point x="436" y="305"/>
      <point x="464" y="264"/>
      <point x="464" y="207" type="curve" smooth="yes"/>
      <point x="464" y="188"/>
      <point x="461" y="166"/>
    </contour>
  </outline>
</glyph>
<glyph name="V" format="1">
  <advance width="646"/>
  <unicode hex="0056"/>
  <outline>
    <contour>
      <point x="288" y="541" type="curve" smooth="yes"/>
      <point x="302" y="418"/>
      <point x="315" y="266"/>
      <point x="325" y="155" type="curve"/>
      <point x="351" y="200"/>
      <point x="419" y="270"/>
      <point x="435" y="288" type="curve" smooth="yes"/>
      <point x="510" y="372"/>
      <point x="537" y="439"/>
      <point x="537" y="520" type="curve" smooth="yes"/>
      <point x="537" y="550"/>
      <point x="533" y="581"/>
      <point x="527" y="616" type="curve"/>
      <point x="575" y="622"/>
      <point x="629" y="640"/>
      <point x="661" y="663" type="curve"/>
      <point x="666" y="634"/>
      <point x="669" y="607"/>
      <point x="669" y="582" type="curve" smooth="yes"/>
      <point x="669" y="470"/>
      <point x="614" y="393"/>
      <point x="485" y="267" type="curve" smooth="yes"/>
      <point x="405" y="189"/>
      <point x="341" y="131"/>
      <point x="305" y="3" type="curve"/>
      <point x="225" y="-15" type="line"/>
      <point x="215" y="147"/>
      <point x="186" y="393"/>
      <point x="164" y="532" type="curve" smooth="yes"/>
      <point x="157" y="572"/>
      <point x="145" y="585"/>
      <point x="89" y="602" type="curve"/>
      <point x="99" y="640" type="line"/>
      <point x="135" y="635"/>
      <point x="179" y="633"/>
      <point x="223" y="633" type="curve" smooth="yes"/>
      <point x="272" y="633"/>
      <point x="323" y="636"/>
      <point x="365" y="640" type="curve"/>
      <point x="363" y="602" type="line"/>
      <point x="298" y="585"/>
      <point x="285" y="573"/>
    </contour>
  </outline>
</glyph>
<glyph name="X" format="1">
  <advance width="740"/>
  <unicode hex="0058"/>
  <outline>
    <contour>
      <point x="664" y="36" type="curve"/>
      <point x="652" y="-3" type="line"/>
      <point x="632" y="1"/>
      <point x="597" y="2"/>
      <point x="558" y="2" type="curve" smooth="yes"/>
      <point x="510" y="2"/>
      <point x="456" y="0"/>
      <point x="418" y="-3" type="curve"/>
      <point x="422" y="18"/>
      <point x="423" y="34"/>
      <point x="423" y="47" type="curve" smooth="yes"/>
      <point x="423" y="68"/>
      <point x="419" y="81"/>
      <point x="414" y="95" type="curve" smooth="yes"/>
      <point x="397" y="145"/>
      <point x="367" y="225"/>
      <point x="346" y="271" type="curve"/>
      <point x="299" y="223"/>
      <point x="250" y="171"/>
      <point x="206" y="115" type="curve" smooth="yes"/>
      <point x="193" y="99"/>
      <point x="186" y="86"/>
      <point x="186" y="75" type="curve" smooth="yes"/>
      <point x="186" y="60"/>
      <point x="198" y="48"/>
      <point x="223" y="36" type="curve"/>
      <point x="214" y="-3" type="line"/>
      <point x="192" y="0"/>
      <point x="149" y="2"/>
      <point x="103" y="2" type="curve" smooth="yes"/>
      <point x="57" y="2"/>
      <point x="9" y="0"/>
      <point x="-23" y="-3" type="curve"/>
      <point x="-22" y="36" type="line"/>
      <point x="54" y="48"/>
      <point x="66" y="62"/>
      <point x="119" y="109" type="curve" smooth="yes"/>
      <point x="181" y="163"/>
      <point x="264" y="254"/>
      <point x="323" y="320" type="curve"/>
      <point x="299" y="384"/>
      <point x="259" y="472"/>
      <point x="234" y="528" type="curve" smooth="yes"/>
      <point x="212" y="576"/>
      <point x="194" y="588"/>
      <point x="131" y="600" type="curve"/>
      <point x="142" y="639" type="line"/>
      <point x="170" y="636"/>
      <point x="207" y="634"/>
      <point x="247" y="634" type="curve" smooth="yes"/>
      <point x="284" y="634"/>
      <point x="324" y="636"/>
      <point x="362" y="639" type="curve"/>
      <point x="356" y="614"/>
      <point x="353" y="596"/>
      <point x="353" y="582" type="curve" smooth="yes"/>
      <point x="353" y="559"/>
      <point x="360" y="545"/>
      <point x="367" y="522" type="curve" smooth="yes"/>
      <point x="374" y="501"/>
      <point x="391" y="457"/>
      <point x="417" y="395" type="curve"/>
      <point x="463" y="440"/>
      <point x="493" y="470"/>
      <point x="545" y="536" type="curve" smooth="yes"/>
      <point x="554" y="547"/>
      <point x="559" y="557"/>
      <point x="559" y="566" type="curve" smooth="yes"/>
      <point x="559" y="580"/>
      <point x="547" y="590"/>
      <point x="520" y="600" type="curve"/>
      <point x="530" y="639" type="line"/>
      <point x="564" y="635"/>
      <point x="599" y="633"/>
      <point x="634" y="633" type="curve" smooth="yes"/>
      <point x="672" y="633"/>
      <point x="710" y="635"/>
      <point x="747" y="639" type="curve"/>
      <point x="746" y="600" type="line"/>
      <point x="692" y="589"/>
      <point x="668" y="572"/>
      <point x="628" y="535" type="curve" smooth="yes"/>
      <point x="562" y="475"/>
      <point x="478" y="389"/>
      <point x="437" y="347" type="curve"/>
      <point x="455" y="301"/>
      <point x="529" y="145"/>
      <point x="544" y="118" type="curve" smooth="yes"/>
      <point x="574" y="61"/>
      <point x="585" y="58"/>
    </contour>
  </outline>
</glyph>
<glyph name="bracketleft" format="1">
  <advance width="354"/>
  <unicode hex="005B"/>
  <outline>
    <contour>
      <point x="-9" y="-159" type="curve"/>
      <point x="33" y="-35"/>
      <point x="150" y="548"/>
      <point x="157" y="653" type="curve"/>
      <point x="170" y="653"/>
      <point x="182" y="652"/>
      <point x="195" y="652" type="curve" smooth="yes"/>
      <point x="260" y="652"/>
      <point x="323" y="659"/>
      <point x="370" y="674" type="curve"/>
      <point x="377" y="628" type="line"/>
      <point x="339" y="614"/>
      <point x="302" y="609"/>
      <point x="263" y="606" type="curve"/>
      <point x="215" y="396"/>
      <point x="158" y="101"/>
      <point x="123" y="-120" type="curve"/>
      <point x="161" y="-124"/>
      <point x="198" y="-133"/>
      <point x="228" y="-147" type="curve"/>
      <point x="200" y="-192" type="line"/>
      <point x="152" y="-169"/>
      <point x="68" y="-158"/>
    </contour>
  </outline>
</glyph>
<glyph name="backslash" format="1">
  <advance width="387"/>
  <unicode hex="005C"/>
  <outline>
    <contour>
      <point x="92" y="674" type="curve"/>
      <point x="138" y="685" type="line"/>
      <point x="189" y="476"/>
      <point x="272" y="149"/>
      <point x="326" y="-58" type="curve"/>
      <point x="280" y="-69" type="line"/>
      <point x="229" y="139"/>
      <point x="146" y="467"/>
    </contour>
  </outline>
</glyph>
<glyph name="bracketright" format="1">
  <advance width="354"/>
  <unicode hex="005D"/>
  <outline>
    <contour>
      <point x="352" y="641" type="curve"/>
      <point x="310" y="517"/>
      <point x="193" y="-66"/>
      <point x="186" y="-171" type="curve"/>
      <point x="173" y="-171"/>
      <point x="161" y="-170"/>
      <point x="148" y="-170" type="curve" smooth="yes"/>
      <point x="83" y="-170"/>
      <point x="20" y="-177"/>
      <point x="-27" y="-192" type="curve"/>
      <point x="-34" y="-146" type="line"/>
      <point x="4" y="-132"/>
      <point x="41" y="-127"/>
      <point x="80" y="-124" type="curve"/>
      <point x="128" y="86"/>
      <point x="185" y="381"/>
      <point x="220" y="602" type="curve"/>
      <point x="182" y="606"/>
      <point x="145" y="615"/>
      <point x="115" y="629" type="curve"/>
      <point x="143" y="674" type="line"/>
      <point x="191" y="651"/>
      <point x="275" y="640"/>
    </contour>
  </outline>
</glyph>
<glyph name="asciicircum" format="1">
  <advance width="360"/>
  <unicode hex="005E"/>
  <outline>
    <contour>
      <point x="76" y="382" type="line"/>
      <point x="36" y="405" type="line"/>
      <point x="189" y="659" type="line"/>
      <point x="208" y="659" type="line"/>
      <point x="360" y="405" type="line"/>
      <point x="320" y="380" type="line"/>
      <point x="199" y="582" type="line"/>
    </contour>
  </outline>
</glyph>
<glyph name="grave" format="1">
  <advance width="364"/>
  <unicode hex="0060"/>
  <outline>
    <contour>
      <point x="255" y="502" type="curve"/>
      <point x="223" y="487" type="line"/>
      <point x="189" y="546"/>
      <point x="148" y="603"/>
      <point x="108" y="648" type="curve"/>
      <point x="146" y="656"/>
      <point x="175" y="670"/>
      <point x="219" y="692" type="curve"/>
      <point x="227" y="620"/>
      <point x="238" y="564"/>
    </contour>
  </outline>
</glyph>
<glyph name="b" format="1">
  <advance width="449"/>
  <unicode hex="0062"/>
  <outline>
    <contour>
      <point x="17" y="85" type="curve" smooth="yes"/>
      <point x="63" y="246"/>
      <point x="108" y="433"/>
      <point x="139" y="595" type="curve" smooth="yes"/>
      <point x="145" y="627"/>
      <point x="141" y="634"/>
      <point x="77" y="634" type="curve"/>
      <point x="75" y="680" type="line"/>
      <point x="185" y="680"/>
      <point x="193" y="681"/>
      <point x="298" y="703" type="curve"/>
      <point x="282" y="670"/>
      <point x="262" y="613"/>
      <point x="241" y="539" type="curve"/>
      <point x="205" y="400" type="line"/>
      <point x="247" y="418"/>
      <point x="294" y="434"/>
      <point x="322" y="434" type="curve" smooth="yes"/>
      <point x="372" y="434"/>
      <point x="410" y="381"/>
      <point x="403" y="301" type="curve" smooth="yes"/>
      <point x="397" y="240"/>
      <point x="384" y="169"/>
      <point x="347" y="110" type="curve" smooth="yes"/>
      <point x="314" y="58"/>
      <point x="291" y="39"/>
      <point x="222" y="9" type="curve" smooth="yes"/>
      <point x="193" y="-4"/>
      <point x="161" y="-12"/>
      <point x="127" y="-12" type="curve" smooth="yes"/>
      <point x="107" y="-12"/>
      <point x="86" y="-9"/>
      <point x="65" y="-3" type="curve" smooth="yes"/>
      <point x="40" y="4"/>
      <point x="8" y="18"/>
      <point x="-9" y="28" type="curve"/>
      <point x="5" y="48"/>
      <point x="12" y="71"/>
    </contour>
    <contour>
      <point x="281" y="292" type="curve" smooth="yes"/>
      <point x="281" y="331"/>
      <point x="272" y="354"/>
      <point x="239" y="354" type="curve" smooth="yes"/>
      <point x="221" y="354"/>
      <point x="208" y="354"/>
      <point x="194" y="351" type="curve"/>
      <point x="168" y="228"/>
      <point x="148" y="142"/>
      <point x="122" y="54" type="curve"/>
      <point x="132" y="49"/>
      <point x="143" y="43"/>
      <point x="156" y="41" type="curve" smooth="yes"/>
      <point x="187" y="37"/>
      <point x="204" y="45"/>
      <point x="240" y="118" type="curve" smooth="yes"/>
      <point x="262" y="163"/>
      <point x="281" y="237"/>
    </contour>
  </outline>
</glyph>
<glyph name="f" format="1">
  <advance width="351"/>
  <unicode hex="0066"/>
  <outline>
    <contour>
      <point x="25" y="-77" type="curve" smooth="yes"/>
      <point x="48" y="13"/>
      <point x="82" y="220"/>
      <point x="99" y="360" type="curve"/>
      <point x="87" y="360"/>
      <point x="59" y="359"/>
      <point x="37" y="358" type="curve"/>
      <point x="34" y="380" type="line"/>
      <point x="61" y="388"/>
      <point x="80" y="400"/>
      <point x="106" y="419" type="curve"/>
      <point x="111" y="456"/>
      <point x="116" y="504"/>
      <point x="126" y="557" type="curve" smooth="yes"/>
      <point x="140" y="629"/>
      <point x="163" y="637"/>
      <point x="207" y="666" type="curve" smooth="yes"/>
      <point x="242" y="689"/>
      <point x="291" y="713"/>
      <point x="338" y="713" type="curve" smooth="yes"/>
      <point x="372" y="713"/>
      <point x="452" y="692"/>
      <point x="494" y="681" type="curve"/>
      <point x="463" y="633"/>
      <point x="449" y="595"/>
      <point x="441" y="553" type="curve"/>
      <point x="407" y="578"/>
      <point x="326" y="614"/>
      <point x="306" y="621" type="curve" smooth="yes"/>
      <point x="291" y="626"/>
      <point x="281" y="629"/>
      <point x="272" y="629" type="curve" smooth="yes"/>
      <point x="255" y="629"/>
      <point x="247" y="617"/>
      <point x="238" y="580" type="curve" smooth="yes"/>
      <point x="229" y="541"/>
      <point x="219" y="455"/>
      <point x="214" y="416" type="curve"/>
      <point x="264" y="416"/>
      <point x="330" y="417"/>
      <point x="360" y="422" type="curve"/>
      <point x="347" y="404"/>
      <point x="336" y="363"/>
      <point x="329" y="349" type="curve"/>
      <point x="302" y="355"/>
      <point x="242" y="360"/>
      <point x="207" y="360" type="curve"/>
      <point x="184" y="218"/>
      <point x="168" y="105"/>
      <point x="149" y="-19" type="curve" smooth="yes"/>
      <point x="141" y="-71"/>
      <point x="130" y="-106"/>
      <point x="93" y="-135" type="curve"/>
      <point x="43" y="-172"/>
      <point x="16" y="-193"/>
      <point x="-28" y="-227" type="curve" smooth="yes"/>
      <point x="-56" y="-249"/>
      <point x="-80" y="-248"/>
      <point x="-111" y="-246" type="curve" smooth="yes"/>
      <point x="-141" y="-245"/>
      <point x="-190" y="-236"/>
      <point x="-220" y="-229" type="curve"/>
      <point x="-200" y="-200"/>
      <point x="-174" y="-128"/>
      <point x="-165" y="-97" type="curve"/>
      <point x="-131" y="-115"/>
      <point x="-89" y="-133"/>
      <point x="-41" y="-142" type="curve" smooth="yes"/>
      <point x="5" y="-150"/>
      <point x="20" y="-99"/>
    </contour>
  </outline>
</glyph>
<glyph name="h" format="1">
  <advance width="530"/>
  <unicode hex="0068"/>
  <outline>
    <contour>
      <point x="70" y="228" type="curve" smooth="yes"/>
      <point x="99" y="339"/>
      <point x="132" y="482"/>
      <point x="151" y="595" type="curve" smooth="yes"/>
      <point x="157" y="627"/>
      <point x="153" y="634"/>
      <point x="89" y="634" type="curve"/>
      <point x="88" y="680" type="line"/>
      <point x="198" y="680"/>
      <point x="208" y="681"/>
      <point x="313" y="703" type="curve"/>
      <point x="297" y="670"/>
      <point x="278" y="610"/>
      <point x="256" y="536" type="curve" smooth="yes"/>
      <point x="241" y="485"/>
      <point x="227" y="433"/>
      <point x="215" y="380" type="curve"/>
      <point x="268" y="402"/>
      <point x="347" y="432"/>
      <point x="373" y="432" type="curve" smooth="yes"/>
      <point x="406" y="432"/>
      <point x="450" y="399"/>
      <point x="439" y="337" type="curve" smooth="yes"/>
      <point x="426" y="261"/>
      <point x="400" y="188"/>
      <point x="392" y="106" type="curve" smooth="yes"/>
      <point x="388" y="65"/>
      <point x="423" y="68"/>
      <point x="441" y="68" type="curve" smooth="yes"/>
      <point x="452" y="68"/>
      <point x="463" y="68"/>
      <point x="476" y="69" type="curve"/>
      <point x="478" y="35" type="line"/>
      <point x="431" y="15"/>
      <point x="329" y="-13"/>
      <point x="305" y="-13" type="curve" smooth="yes"/>
      <point x="269" y="-13"/>
      <point x="260" y="10"/>
      <point x="260" y="35" type="curve" smooth="yes"/>
      <point x="260" y="51"/>
      <point x="264" y="67"/>
      <point x="267" y="80" type="curve" smooth="yes"/>
      <point x="285" y="155"/>
      <point x="303" y="212"/>
      <point x="316" y="290" type="curve" smooth="yes"/>
      <point x="322" y="326"/>
      <point x="295" y="339"/>
      <point x="265" y="339" type="curve" smooth="yes"/>
      <point x="246" y="339"/>
      <point x="223" y="336"/>
      <point x="203" y="334" type="curve"/>
      <point x="187" y="273"/>
      <point x="174" y="212"/>
      <point x="162" y="143" type="curve" smooth="yes"/>
      <point x="154" y="99"/>
      <point x="150" y="53"/>
      <point x="151" y="7" type="curve"/>
      <point x="97" y="8"/>
      <point x="28" y="0"/>
      <point x="0" y="-6" type="curve"/>
      <point x="13" y="30"/>
      <point x="45" y="133"/>
    </contour>
  </outline>
</glyph>
<glyph name="p" format="1">
  <advance width="476"/>
  <unicode hex="0070"/>
  <outline>
    <contour>
      <point x="-5" y="-119" type="curve" smooth="yes"/>
      <point x="36" y="36"/>
      <point x="75" y="187"/>
      <point x="97" y="343" type="curve"/>
      <point x="79" y="341"/>
      <point x="60" y="337"/>
      <point x="37" y="332" type="curve"/>
      <point x="40" y="373" type="line"/>
      <point x="63" y="381"/>
      <point x="92" y="389"/>
      <point x="105" y="393" type="curve"/>
      <point x="109" y="422"/>
      <point x="110" y="450"/>
      <point x="109" y="484" type="curve"/>
      <point x="142" y="486"/>
      <point x="212" y="498"/>
      <point x="267" y="514" type="curve"/>
      <point x="250" y="477"/>
      <point x="245" y="458"/>
      <point x="231" y="414" type="curve"/>
      <point x="273" y="424"/>
      <point x="319" y="435"/>
      <point x="346" y="435" type="curve" smooth="yes"/>
      <point x="396" y="435"/>
      <point x="430" y="381"/>
      <point x="426" y="301" type="curve" smooth="yes"/>
      <point x="423" y="243"/>
      <point x="412" y="170"/>
      <point x="375" y="111" type="curve"/>
      <point x="344" y="59"/>
      <point x="316" y="37"/>
      <point x="247" y="7" type="curve" smooth="yes"/>
      <point x="224" y="-3"/>
      <point x="201" y="-9"/>
      <point x="176" y="-9" type="curve" smooth="yes"/>
      <point x="162" y="-9"/>
      <point x="148" y="-7"/>
      <point x="134" y="-3" type="curve"/>
      <point x="125" y="-44"/>
      <point x="118" y="-90"/>
      <point x="113" y="-120" type="curve" smooth="yes"/>
      <point x="106" y="-161"/>
      <point x="100" y="-175"/>
      <point x="192" y="-195" type="curve"/>
      <point x="183" y="-233" type="line"/>
      <point x="132" y="-228"/>
      <point x="79" y="-225"/>
      <point x="29" y="-225" type="curve" smooth="yes"/>
      <point x="-19" y="-225"/>
      <point x="-65" y="-228"/>
      <point x="-108" y="-232" type="curve"/>
      <point x="-110" y="-196" type="line"/>
      <point x="-23" y="-176"/>
      <point x="-20" y="-175"/>
    </contour>
    <contour>
      <point x="307" y="292" type="curve" smooth="yes"/>
      <point x="307" y="331"/>
      <point x="296" y="355"/>
      <point x="263" y="355" type="curve" smooth="yes"/>
      <point x="245" y="355"/>
      <point x="233" y="355"/>
      <point x="219" y="353" type="curve"/>
      <point x="217" y="352" type="line"/>
      <point x="187" y="230"/>
      <point x="170" y="149"/>
      <point x="148" y="60" type="curve"/>
      <point x="158" y="55"/>
      <point x="170" y="48"/>
      <point x="182" y="45" type="curve" smooth="yes"/>
      <point x="213" y="36"/>
      <point x="230" y="38"/>
      <point x="266" y="110" type="curve" smooth="yes"/>
      <point x="289" y="155"/>
      <point x="308" y="239"/>
    </contour>
  </outline>
</glyph>
<glyph name="q" format="1">
  <advance width="478"/>
  <unicode hex="0071"/>
  <outline>
    <contour>
      <point x="192" y="-119" type="curve" smooth="yes"/>
      <point x="203" y="-85"/>
      <point x="219" y="-7"/>
      <point x="227" y="32" type="curve"/>
      <point x="185" y="12"/>
      <point x="132" y="-11"/>
      <point x="104" y="-11" type="curve" smooth="yes"/>
      <point x="53" y="-11"/>
      <point x="17" y="40"/>
      <point x="24" y="120" type="curve" smooth="yes"/>
      <point x="29" y="181"/>
      <point x="51" y="262"/>
      <point x="86" y="324" type="curve" smooth="yes"/>
      <point x="115" y="377"/>
      <point x="137" y="393"/>
      <point x="205" y="423" type="curve" smooth="yes"/>
      <point x="239" y="438"/>
      <point x="268" y="443"/>
      <point x="298" y="443" type="curve" smooth="yes"/>
      <point x="310" y="443"/>
      <point x="321" y="442"/>
      <point x="333" y="441" type="curve" smooth="yes"/>
      <point x="356" y="439"/>
      <point x="420" y="431"/>
      <point x="447" y="422" type="curve"/>
      <point x="427" y="398"/>
      <point x="422" y="379"/>
      <point x="417" y="365" type="curve" smooth="yes"/>
      <point x="395" y="301"/>
      <point x="382" y="243"/>
      <point x="369" y="185" type="curve" smooth="yes"/>
      <point x="354" y="116"/>
      <point x="321" y="-38"/>
      <point x="307" y="-120" type="curve" smooth="yes"/>
      <point x="301" y="-161"/>
      <point x="294" y="-175"/>
      <point x="387" y="-195" type="curve"/>
      <point x="377" y="-233" type="line"/>
      <point x="326" y="-228"/>
      <point x="273" y="-225"/>
      <point x="223" y="-225" type="curve" smooth="yes"/>
      <point x="175" y="-225"/>
      <point x="129" y="-228"/>
      <point x="86" y="-232" type="curve"/>
      <point x="84" y="-196" type="line"/>
      <point x="172" y="-176"/>
      <point x="173" y="-175"/>
    </contour>
    <contour>
      <point x="146" y="131" type="curve" smooth="yes"/>
      <point x="143" y="92"/>
      <point x="153" y="69"/>
      <point x="187" y="69" type="curve" smooth="yes"/>
      <point x="205" y="69"/>
      <point x="218" y="70"/>
      <point x="232" y="74" type="curve"/>
      <point x="258" y="197"/>
      <point x="281" y="293"/>
      <point x="306" y="381" type="curve"/>
      <point x="297" y="385"/>
      <point x="284" y="389"/>
      <point x="272" y="390" type="curve" smooth="yes"/>
      <point x="241" y="395"/>
      <point x="223" y="389"/>
      <point x="190" y="315" type="curve" smooth="yes"/>
      <point x="169" y="268"/>
      <point x="150" y="183"/>
    </contour>
  </outline>
</glyph>
<glyph name="v" format="1">
  <advance width="479"/>
  <unicode hex="0076"/>
  <outline>
    <contour>
      <point x="215" y="3" type="curve"/>
      <point x="136" y="-13" type="line"/>
      <point x="136" y="61"/>
      <point x="115" y="245"/>
      <point x="93" y="330" type="curve" smooth="yes"/>
      <point x="85" y="359"/>
      <point x="65" y="364"/>
      <point x="15" y="360" type="curve"/>
      <point x="17" y="405" type="line"/>
      <point x="97" y="411"/>
      <point x="132" y="414"/>
      <point x="210" y="436" type="curve"/>
      <point x="209" y="420"/>
      <point x="208" y="406"/>
      <point x="208" y="391" type="curve" smooth="yes"/>
      <point x="208" y="374"/>
      <point x="209" y="358"/>
      <point x="211" y="340" type="curve" smooth="yes"/>
      <point x="218" y="275"/>
      <point x="232" y="200"/>
      <point x="235" y="127" type="curve"/>
      <point x="255" y="160"/>
      <point x="279" y="193"/>
      <point x="293" y="211" type="curve" smooth="yes"/>
      <point x="317" y="241"/>
      <point x="326" y="265"/>
      <point x="326" y="291" type="curve" smooth="yes"/>
      <point x="326" y="300"/>
      <point x="325" y="311"/>
      <point x="323" y="321" type="curve" smooth="yes"/>
      <point x="320" y="342"/>
      <point x="313" y="368"/>
      <point x="301" y="397" type="curve"/>
      <point x="346" y="408"/>
      <point x="388" y="420"/>
      <point x="426" y="441" type="curve"/>
      <point x="433" y="421"/>
      <point x="439" y="398"/>
      <point x="440" y="383" type="curve" smooth="yes"/>
      <point x="444" y="321"/>
      <point x="432" y="288"/>
      <point x="388" y="240" type="curve" smooth="yes"/>
      <point x="369" y="220"/>
      <point x="349" y="198"/>
      <point x="322" y="167" type="curve" smooth="yes"/>
      <point x="274" y="111"/>
      <point x="233" y="65"/>
    </contour>
  </outline>
</glyph>
<glyph name="x" format="1">
  <advance width="506"/>
  <unicode hex="0078"/>
  <outline>
    <contour>
      <point x="260" y="349" type="curve" smooth="yes"/>
      <point x="265" y="328"/>
      <point x="270" y="306"/>
      <point x="277" y="285" type="curve"/>
      <point x="297" y="310"/>
      <point x="322" y="340"/>
      <point x="336" y="356" type="curve" smooth="yes"/>
      <point x="376" y="402"/>
      <point x="388" y="411"/>
      <point x="436" y="416" type="curve" smooth="yes"/>
      <point x="449" y="418"/>
      <point x="481" y="421"/>
      <point x="500" y="427" type="curve"/>
      <point x="479" y="397"/>
      <point x="454" y="335"/>
      <point x="443" y="289" type="curve"/>
      <point x="423" y="294"/>
      <point x="405" y="299"/>
      <point x="388" y="299" type="curve" smooth="yes"/>
      <point x="370" y="299"/>
      <point x="354" y="294"/>
      <point x="339" y="281" type="curve" smooth="yes"/>
      <point x="328" y="272"/>
      <point x="309" y="253"/>
      <point x="292" y="235" type="curve"/>
      <point x="306" y="187"/>
      <point x="322" y="139"/>
      <point x="340" y="97" type="curve"/>
      <point x="353" y="70"/>
      <point x="387" y="67"/>
      <point x="405" y="67" type="curve" smooth="yes"/>
      <point x="416" y="67"/>
      <point x="428" y="68"/>
      <point x="438" y="69" type="curve"/>
      <point x="441" y="35" type="line"/>
      <point x="394" y="15"/>
      <point x="322" y="-13"/>
      <point x="298" y="-13" type="curve" smooth="yes"/>
      <point x="244" y="-13"/>
      <point x="232" y="31"/>
      <point x="221" y="69" type="curve"/>
      <point x="214" y="89"/>
      <point x="208" y="110"/>
      <point x="202" y="132" type="curve"/>
      <point x="178" y="97"/>
      <point x="147" y="51"/>
      <point x="125" y="25" type="curve"/>
      <point x="96" y="-12"/>
      <point x="87" y="-24"/>
      <point x="45" y="-39" type="curve" smooth="yes"/>
      <point x="24" y="-47"/>
      <point x="-11" y="-57"/>
      <point x="-42" y="-62" type="curve"/>
      <point x="-19" y="-24"/>
      <point x="1" y="30"/>
      <point x="7" y="76" type="curve"/>
      <point x="21" y="72"/>
      <point x="34" y="71"/>
      <point x="46" y="71" type="curve" smooth="yes"/>
      <point x="74" y="71"/>
      <point x="97" y="80"/>
      <point x="112" y="96" type="curve"/>
      <point x="148" y="131"/>
      <point x="163" y="149"/>
      <point x="188" y="183" type="curve"/>
      <point x="174" y="234"/>
      <point x="157" y="285"/>
      <point x="138" y="330" type="curve" smooth="yes"/>
      <point x="128" y="354"/>
      <point x="117" y="361"/>
      <point x="83" y="361" type="curve" smooth="yes"/>
      <point x="74" y="361"/>
      <point x="64" y="361"/>
      <point x="52" y="360" type="curve"/>
      <point x="53" y="405" type="line"/>
      <point x="148" y="410"/>
      <point x="170" y="414"/>
      <point x="248" y="436" type="curve"/>
      <point x="249" y="405"/>
      <point x="253" y="377"/>
    </contour>
  </outline>
</glyph>
<glyph name="braceleft" format="1">
  <advance width="341"/>
  <unicode hex="007B"/>
  <outline>
    <contour>
      <point x="217" y="-153" type="curve"/>
      <point x="194" y="-189" type="line"/>
      <point x="152" y="-174"/>
      <point x="108" y="-154"/>
      <point x="83" y="-139" type="curve" smooth="yes"/>
      <point x="57" y="-123"/>
      <point x="43" y="-89"/>
      <point x="49" y="-49" type="curve" smooth="yes"/>
      <point x="54" y="-13"/>
      <point x="78" y="75"/>
      <point x="90" y="128" type="curve" smooth="yes"/>
      <point x="94" y="143"/>
      <point x="97" y="158"/>
      <point x="97" y="174" type="curve" smooth="yes"/>
      <point x="97" y="197"/>
      <point x="90" y="219"/>
      <point x="70" y="236" type="curve" smooth="yes"/>
      <point x="59" y="245"/>
      <point x="44" y="254"/>
      <point x="25" y="263" type="curve"/>
      <point x="34" y="298" type="line"/>
      <point x="59" y="305"/>
      <point x="78" y="311"/>
      <point x="92" y="318" type="curve" smooth="yes"/>
      <point x="130" y="336"/>
      <point x="139" y="364"/>
      <point x="147" y="404" type="curve" smooth="yes"/>
      <point x="155" y="441"/>
      <point x="165" y="527"/>
      <point x="171" y="552" type="curve" smooth="yes"/>
      <point x="183" y="606"/>
      <point x="209" y="635"/>
      <point x="255" y="651" type="curve" smooth="yes"/>
      <point x="280" y="659"/>
      <point x="325" y="669"/>
      <point x="369" y="680" type="curve"/>
      <point x="380" y="641" type="line"/>
      <point x="313" y="619"/>
      <point x="295" y="605"/>
      <point x="282" y="562" type="curve" smooth="yes"/>
      <point x="273" y="532"/>
      <point x="251" y="412"/>
      <point x="239" y="372" type="curve" smooth="yes"/>
      <point x="230" y="344"/>
      <point x="218" y="327"/>
      <point x="191" y="313" type="curve" smooth="yes"/>
      <point x="171" y="303"/>
      <point x="132" y="284"/>
      <point x="101" y="274" type="curve"/>
      <point x="129" y="260"/>
      <point x="157" y="245"/>
      <point x="172" y="233" type="curve" smooth="yes"/>
      <point x="191" y="218"/>
      <point x="198" y="204"/>
      <point x="198" y="183" type="curve" smooth="yes"/>
      <point x="198" y="174"/>
      <point x="196" y="163"/>
      <point x="194" y="151" type="curve" smooth="yes"/>
      <point x="190" y="129"/>
      <point x="161" y="-21"/>
      <point x="159" y="-44" type="curve" smooth="yes"/>
      <point x="157" y="-61"/>
      <point x="156" y="-74"/>
      <point x="156" y="-84" type="curve" smooth="yes"/>
      <point x="156" y="-117"/>
      <point x="169" y="-123"/>
    </contour>
  </outline>
</glyph>
<glyph name="bar" format="1">
  <advance width="233"/>
  <unicode hex="007C"/>
  <outline>
    <contour>
      <point x="106" y="676" type="curve"/>
      <point x="155" y="676" type="line"/>
      <point x="153" y="512"/>
      <point x="151" y="290"/>
      <point x="151" y="98" type="curve" smooth="yes"/>
      <point x="151" y="40"/>
      <point x="152" y="-15"/>
      <point x="152" y="-65" type="curve"/>
      <point x="104" y="-65" type="line"/>
      <point x="105" y="87"/>
      <point x="107" y="288"/>
      <point x="107" y="468" type="curve" smooth="yes"/>
      <point x="107" y="543"/>
      <point x="107" y="613"/>
    </contour>
  </outline>
</glyph>
<glyph name="braceright" format="1">
  <advance width="341"/>
  <unicode hex="007D"/>
  <outline>
    <contour>
      <point x="116" y="646" type="curve"/>
      <point x="139" y="681" type="line"/>
      <point x="178" y="664"/>
      <point x="212" y="648"/>
      <point x="246" y="622" type="curve" smooth="yes"/>
      <point x="269" y="604"/>
      <point x="285" y="564"/>
      <point x="280" y="523" type="curve"/>
      <point x="274" y="483"/>
      <point x="259" y="424"/>
      <point x="256" y="395" type="curve" smooth="yes"/>
      <point x="251" y="336"/>
      <point x="263" y="326"/>
      <point x="318" y="297" type="curve"/>
      <point x="310" y="260" type="line"/>
      <point x="255" y="247"/>
      <point x="227" y="231"/>
      <point x="218" y="199" type="curve" smooth="yes"/>
      <point x="210" y="169"/>
      <point x="173" y="-21"/>
      <point x="164" y="-50" type="curve" smooth="yes"/>
      <point x="147" y="-104"/>
      <point x="130" y="-125"/>
      <point x="82" y="-148" type="curve" smooth="yes"/>
      <point x="60" y="-159"/>
      <point x="16" y="-176"/>
      <point x="-34" y="-190" type="curve"/>
      <point x="-49" y="-150" type="line"/>
      <point x="18" y="-126"/>
      <point x="37" y="-106"/>
      <point x="50" y="-69" type="curve"/>
      <point x="69" y="-9"/>
      <point x="97" y="149"/>
      <point x="109" y="189" type="curve" smooth="yes"/>
      <point x="117" y="216"/>
      <point x="128" y="237"/>
      <point x="157" y="253" type="curve" smooth="yes"/>
      <point x="177" y="264"/>
      <point x="212" y="278"/>
      <point x="243" y="289" type="curve"/>
      <point x="215" y="305"/>
      <point x="188" y="325"/>
      <point x="176" y="336" type="curve" smooth="yes"/>
      <point x="151" y="360"/>
      <point x="147" y="366"/>
      <point x="151" y="407" type="curve"/>
      <point x="152" y="430"/>
      <point x="168" y="511"/>
      <point x="171" y="534" type="curve" smooth="yes"/>
      <point x="177" y="581"/>
      <point x="172" y="605"/>
    </contour>
  </outline>
</glyph>
<glyph name="asciitilde" format="1">
  <advance width="505"/>
  <unicode hex="007E"/>
  <outline>
    <contour>
      <point x="184" y="344" type="curve" smooth="yes"/>
      <point x="236" y="338"/>
      <point x="319" y="321"/>
      <point x="361" y="320" type="curve" smooth="yes"/>
      <point x="396" y="319"/>
      <point x="420" y="326"/>
      <point x="458" y="361" type="curve"/>
      <point x="485" y="334" type="line"/>
      <point x="449" y="298"/>
      <point x="420" y="275"/>
      <point x="396" y="257" type="curve" smooth="yes"/>
      <point x="369" y="238"/>
      <point x="349" y="233"/>
      <point x="315" y="237" type="curve" smooth="yes"/>
      <point x="273" y="242"/>
      <point x="186" y="257"/>
      <point x="133" y="262" type="curve" smooth="yes"/>
      <point x="111" y="264"/>
      <point x="96" y="264"/>
      <point x="52" y="226" type="curve"/>
      <point x="23" y="251" type="line"/>
      <point x="62" y="293"/>
      <point x="83" y="308"/>
      <point x="102" y="323" type="curve"/>
      <point x="132" y="344"/>
      <point x="149" y="348"/>
    </contour>
  </outline>
</glyph>
<glyph name="exclamdown" format="1">
  <advance width="202"/>
  <unicode hex="00A1"/>
  <outline>
    <contour>
      <point x="61" y="-209" type="curve"/>
      <point x="32" y="-205"/>
      <point x="0" y="-202"/>
      <point x="-33" y="-202" type="curve" smooth="yes"/>
      <point x="-51" y="-202"/>
      <point x="-69" y="-203"/>
      <point x="-87" y="-205" type="curve"/>
      <point x="-19" y="-39"/>
      <point x="10" y="47"/>
      <point x="64" y="257" type="curve"/>
      <point x="104" y="255" type="line"/>
      <point x="71" y="56"/>
      <point x="64" y="-47"/>
    </contour>
    <contour>
      <point x="123" y="443" type="curve" smooth="yes"/>
      <point x="170" y="439"/>
      <point x="181" y="408"/>
      <point x="175" y="378" type="curve" smooth="yes"/>
      <point x="169" y="342"/>
      <point x="140" y="308"/>
      <point x="92" y="312" type="curve" smooth="yes"/>
      <point x="45" y="316"/>
      <point x="34" y="347"/>
      <point x="40" y="377" type="curve"/>
      <point x="45" y="413"/>
      <point x="69" y="448"/>
    </contour>
  </outline>
</glyph>
<glyph name="cent" format="1">
  <advance width="367"/>
  <unicode hex="00A2"/>
  <outline>
    <contour>
      <point x="19" y="112" type="curve"/>
      <point x="22" y="167"/>
      <point x="36" y="241"/>
      <point x="67" y="306" type="curve" smooth="yes"/>
      <point x="86" y="347"/>
      <point x="130" y="374"/>
      <point x="160" y="390" type="curve" smooth="yes"/>
      <point x="199" y="411"/>
      <point x="225" y="426"/>
      <point x="266" y="426" type="curve" smooth="yes"/>
      <point x="273" y="426"/>
      <point x="281" y="426"/>
      <point x="289" y="425" type="curve"/>
      <point x="334" y="518" type="line"/>
      <point x="373" y="500" type="line"/>
      <point x="333" y="416" type="line"/>
      <point x="365" y="408" type="line"/>
      <point x="338" y="370"/>
      <point x="322" y="337"/>
      <point x="305" y="295" type="curve"/>
      <point x="284" y="312" type="line"/>
      <point x="169" y="72" type="line"/>
      <point x="178" y="68"/>
      <point x="189" y="66"/>
      <point x="203" y="66" type="curve" smooth="yes"/>
      <point x="243" y="66"/>
      <point x="265" y="69"/>
      <point x="297" y="75" type="curve"/>
      <point x="302" y="37" type="line"/>
      <point x="266" y="23"/>
      <point x="222" y="7"/>
      <point x="179" y="-6" type="curve" smooth="yes"/>
      <point x="161" y="-11"/>
      <point x="144" y="-15"/>
      <point x="127" y="-16" type="curve"/>
      <point x="89" y="-97" type="line"/>
      <point x="50" y="-77" type="line"/>
      <point x="83" y="-7" type="line"/>
      <point x="72" y="-2"/>
      <point x="62" y="4"/>
      <point x="53" y="14" type="curve" smooth="yes"/>
      <point x="23" y="44"/>
      <point x="16" y="77"/>
    </contour>
    <contour>
      <point x="135" y="138" type="curve" smooth="yes"/>
      <point x="135" y="128"/>
      <point x="136" y="118"/>
      <point x="139" y="109" type="curve"/>
      <point x="247" y="336" type="line"/>
      <point x="241" y="339"/>
      <point x="234" y="342"/>
      <point x="230" y="345" type="curve" smooth="yes"/>
      <point x="193" y="366"/>
      <point x="182" y="346"/>
      <point x="168" y="309" type="curve" smooth="yes"/>
      <point x="147" y="251"/>
      <point x="133" y="176"/>
    </contour>
  </outline>
</glyph>
<glyph name="sterling" format="1">
  <advance width="490"/>
  <unicode hex="00A3"/>
  <outline>
    <contour>
      <point x="93" y="216" type="curve" smooth="yes"/>
      <point x="111" y="307" type="line"/>
      <point x="97" y="307"/>
      <point x="74" y="306"/>
      <point x="53" y="305" type="curve"/>
      <point x="50" y="327" type="line"/>
      <point x="86" y="340"/>
      <point x="94" y="341"/>
      <point x="121" y="360" type="curve"/>
      <point x="137" y="440" type="line"/>
      <point x="149" y="493"/>
      <point x="155" y="530"/>
      <point x="210" y="569" type="curve" smooth="yes"/>
      <point x="239" y="589"/>
      <point x="273" y="608"/>
      <point x="308" y="625" type="curve"/>
      <point x="331" y="635"/>
      <point x="356" y="642"/>
      <point x="384" y="642" type="curve" smooth="yes"/>
      <point x="396" y="642"/>
      <point x="409" y="641"/>
      <point x="423" y="638" type="curve" smooth="yes"/>
      <point x="461" y="630"/>
      <point x="482" y="625"/>
      <point x="505" y="621" type="curve"/>
      <point x="486" y="600"/>
      <point x="432" y="529"/>
      <point x="422" y="500" type="curve"/>
      <point x="392" y="519"/>
      <point x="355" y="538"/>
      <point x="320" y="547" type="curve" smooth="yes"/>
      <point x="281" y="557"/>
      <point x="276" y="541"/>
      <point x="260" y="479" type="curve"/>
      <point x="233" y="359" type="line"/>
      <point x="283" y="359"/>
      <point x="369" y="361"/>
      <point x="399" y="366" type="curve"/>
      <point x="382" y="342"/>
      <point x="369" y="315"/>
      <point x="363" y="297" type="curve"/>
      <point x="336" y="304"/>
      <point x="257" y="307"/>
      <point x="221" y="308" type="curve"/>
      <point x="207" y="253" type="line" smooth="yes"/>
      <point x="190" y="185"/>
      <point x="190" y="183"/>
      <point x="92" y="114" type="curve"/>
      <point x="139" y="122"/>
      <point x="173" y="125"/>
      <point x="209" y="125" type="curve" smooth="yes"/>
      <point x="233" y="125"/>
      <point x="257" y="124"/>
      <point x="285" y="121" type="curve" smooth="yes"/>
      <point x="296" y="120"/>
      <point x="305" y="119"/>
      <point x="314" y="119" type="curve" smooth="yes"/>
      <point x="349" y="119"/>
      <point x="368" y="131"/>
      <point x="402" y="175" type="curve"/>
      <point x="440" y="151" type="line"/>
      <point x="390" y="90"/>
      <point x="372" y="49"/>
      <point x="357" y="-7" type="curve"/>
      <point x="298" y="5"/>
      <point x="224" y="13"/>
      <point x="150" y="13" type="curve" smooth="yes"/>
      <point x="88" y="13"/>
      <point x="27" y="7"/>
      <point x="-25" y="-6" type="curve"/>
      <point x="-3" y="39"/>
      <point x="7" y="81"/>
      <point x="13" y="112" type="curve"/>
      <point x="65" y="140"/>
      <point x="83" y="169"/>
    </contour>
  </outline>
</glyph>
<glyph name="currency" format="1">
  <advance width="420"/>
  <unicode hex="00A4"/>
  <outline>
    <contour>
      <point x="69" y="330" type="curve" smooth="yes"/>
      <point x="70" y="361"/>
      <point x="81" y="389"/>
      <point x="97" y="412" type="curve"/>
      <point x="19" y="484" type="line"/>
      <point x="62" y="528" type="line"/>
      <point x="133" y="447" type="line"/>
      <point x="157" y="464"/>
      <point x="187" y="474"/>
      <point x="219" y="474" type="curve" smooth="yes"/>
      <point x="247" y="474"/>
      <point x="274" y="467"/>
      <point x="297" y="454" type="curve"/>
      <point x="368" y="531" type="line"/>
      <point x="411" y="490" type="line"/>
      <point x="334" y="422" type="line"/>
      <point x="354" y="398"/>
      <point x="365" y="367"/>
      <point x="365" y="330" type="curve" smooth="yes"/>
      <point x="365" y="298"/>
      <point x="354" y="270"/>
      <point x="336" y="247" type="curve"/>
      <point x="416" y="179" type="line"/>
      <point x="372" y="135" type="line"/>
      <point x="298" y="213" type="line"/>
      <point x="273" y="197"/>
      <point x="243" y="188"/>
      <point x="211" y="188" type="curve" smooth="yes"/>
      <point x="180" y="188"/>
      <point x="150" y="198"/>
      <point x="125" y="215" type="curve"/>
      <point x="54" y="141" type="line"/>
      <point x="9" y="182" type="line"/>
      <point x="91" y="249" type="line"/>
      <point x="76" y="271"/>
      <point x="68" y="299"/>
    </contour>
    <contour>
      <point x="129" y="331" type="curve"/>
      <point x="127" y="282"/>
      <point x="165" y="243"/>
      <point x="214" y="243" type="curve" smooth="yes"/>
      <point x="269" y="243"/>
      <point x="303" y="282"/>
      <point x="305" y="331" type="curve"/>
      <point x="306" y="381"/>
      <point x="267" y="419"/>
      <point x="218" y="419" type="curve" smooth="yes"/>
      <point x="165" y="419"/>
      <point x="130" y="381"/>
    </contour>
  </outline>
</glyph>
<glyph name="yen" format="1">
  <advance width="611"/>
  <unicode hex="00A5"/>
  <outline>
    <contour>
      <point x="350" y="148" type="line"/>
      <point x="346" y="135"/>
      <point x="344" y="121"/>
      <point x="342" y="108" type="curve" smooth="yes"/>
      <point x="340" y="95"/>
      <point x="339" y="86"/>
      <point x="339" y="78" type="curve" smooth="yes"/>
      <point x="339" y="51"/>
      <point x="353" y="47"/>
      <point x="401" y="36" type="curve"/>
      <point x="388" y="-3" type="line"/>
      <point x="339" y="1"/>
      <point x="297" y="3"/>
      <point x="255" y="3" type="curve" smooth="yes"/>
      <point x="213" y="3"/>
      <point x="170" y="1"/>
      <point x="121" y="-3" type="curve"/>
      <point x="123" y="36" type="line"/>
      <point x="206" y="53"/>
      <point x="205" y="55"/>
      <point x="216" y="107" type="curve" smooth="yes"/>
      <point x="219" y="120"/>
      <point x="222" y="132"/>
      <point x="225" y="148" type="curve"/>
      <point x="105" y="148" type="line"/>
      <point x="112" y="184" type="line"/>
      <point x="233" y="184" type="line"/>
      <point x="245" y="244" type="line"/>
      <point x="124" y="244" type="line"/>
      <point x="131" y="279" type="line"/>
      <point x="245" y="279" type="line"/>
      <point x="227" y="372"/>
      <point x="204" y="451"/>
      <point x="178" y="529" type="curve" smooth="yes"/>
      <point x="159" y="585"/>
      <point x="150" y="593"/>
      <point x="100" y="600" type="curve"/>
      <point x="112" y="639" type="line"/>
      <point x="140" y="636"/>
      <point x="173" y="635"/>
      <point x="208" y="635" type="curve" smooth="yes"/>
      <point x="240" y="635"/>
      <point x="272" y="636"/>
      <point x="303" y="639" type="curve"/>
      <point x="300" y="624"/>
      <point x="299" y="615"/>
      <point x="299" y="606" type="curve" smooth="yes"/>
      <point x="299" y="595"/>
      <point x="301" y="585"/>
      <point x="304" y="566" type="curve" smooth="yes"/>
      <point x="320" y="473"/>
      <point x="341" y="408"/>
      <point x="360" y="324" type="curve"/>
      <point x="405" y="389"/>
      <point x="443" y="443"/>
      <point x="491" y="523" type="curve" smooth="yes"/>
      <point x="500" y="537"/>
      <point x="506" y="551"/>
      <point x="506" y="563" type="curve" smooth="yes"/>
      <point x="506" y="579"/>
      <point x="495" y="593"/>
      <point x="461" y="603" type="curve"/>
      <point x="471" y="639" type="line"/>
      <point x="501" y="636"/>
      <point x="539" y="634"/>
      <point x="578" y="634" type="curve" smooth="yes"/>
      <point x="612" y="634"/>
      <point x="646" y="635"/>
      <point x="675" y="639" type="curve"/>
      <point x="675" y="600" type="line"/>
      <point x="626" y="590"/>
      <point x="611" y="575"/>
      <point x="578" y="535" type="curve" smooth="yes"/>
      <point x="522" y="465"/>
      <point x="448" y="367"/>
      <point x="388" y="279" type="curve"/>
      <point x="505" y="279" type="line"/>
      <point x="498" y="244" type="line"/>
      <point x="371" y="244" type="line"/>
      <point x="357" y="184" type="line"/>
      <point x="485" y="184" type="line"/>
      <point x="478" y="148" type="line"/>
    </contour>
  </outline>
</glyph>
<glyph name="brokenbar" format="1">
  <advance width="233"/>
  <unicode hex="00A6"/>
  <outline>
    <contour>
      <point x="106" y="291" type="curve"/>
      <point x="152" y="291" type="line"/>
      <point x="151" y="225"/>
      <point x="151" y="163"/>
      <point x="151" y="104" type="curve" smooth="yes"/>
      <point x="151" y="45"/>
      <point x="151" y="-12"/>
      <point x="152" y="-65" type="curve"/>
      <point x="104" y="-65" type="line"/>
      <point x="105" y="42"/>
      <point x="106" y="160"/>
    </contour>
    <contour>
      <point x="152" y="354" type="line"/>
      <point x="106" y="354" type="line"/>
      <point x="106" y="412"/>
      <point x="107" y="469"/>
      <point x="107" y="523" type="curve" smooth="yes"/>
      <point x="107" y="577"/>
      <point x="106" y="628"/>
      <point x="106" y="676" type="curve"/>
      <point x="155" y="676" type="line"/>
    </contour>
  </outline>
</glyph>
<glyph name="section" format="1">
  <advance width="367"/>
  <unicode hex="00A7"/>
  <outline>
    <contour>
      <point x="12" y="13" type="curve"/>
      <point x="25" y="45"/>
      <point x="40" y="90"/>
      <point x="46" y="135" type="curve"/>
      <point x="69" y="117"/>
      <point x="125" y="90"/>
      <point x="160" y="82" type="curve" smooth="yes"/>
      <point x="189" y="75"/>
      <point x="215" y="74"/>
      <point x="220" y="85" type="curve" smooth="yes"/>
      <point x="224" y="94"/>
      <point x="209" y="114"/>
      <point x="193" y="130" type="curve"/>
      <point x="148" y="171"/>
      <point x="83" y="217"/>
      <point x="50" y="256" type="curve" smooth="yes"/>
      <point x="40" y="269"/>
      <point x="33" y="285"/>
      <point x="33" y="303" type="curve" smooth="yes"/>
      <point x="33" y="321"/>
      <point x="40" y="340"/>
      <point x="55" y="358" type="curve" smooth="yes"/>
      <point x="82" y="388"/>
      <point x="107" y="410"/>
      <point x="135" y="429" type="curve"/>
      <point x="121" y="443"/>
      <point x="114" y="461"/>
      <point x="114" y="481" type="curve" smooth="yes"/>
      <point x="114" y="497"/>
      <point x="118" y="515"/>
      <point x="126" y="533" type="curve" smooth="yes"/>
      <point x="143" y="572"/>
      <point x="171" y="610"/>
      <point x="200" y="629" type="curve" smooth="yes"/>
      <point x="223" y="644"/>
      <point x="247" y="646"/>
      <point x="269" y="643" type="curve" smooth="yes"/>
      <point x="311" y="637"/>
      <point x="348" y="628"/>
      <point x="372" y="629" type="curve"/>
      <point x="351" y="594"/>
      <point x="333" y="543"/>
      <point x="327" y="513" type="curve"/>
      <point x="303" y="527"/>
      <point x="266" y="543"/>
      <point x="238" y="554" type="curve" smooth="yes"/>
      <point x="218" y="561"/>
      <point x="201" y="564"/>
      <point x="199" y="558" type="curve"/>
      <point x="195" y="551"/>
      <point x="197" y="535"/>
      <point x="212" y="518" type="curve" smooth="yes"/>
      <point x="230" y="499"/>
      <point x="320" y="427"/>
      <point x="340" y="406" type="curve"/>
      <point x="358" y="389"/>
      <point x="372" y="363"/>
      <point x="372" y="335" type="curve" smooth="yes"/>
      <point x="372" y="324"/>
      <point x="370" y="313"/>
      <point x="365" y="302" type="curve" smooth="yes"/>
      <point x="353" y="275"/>
      <point x="310" y="226"/>
      <point x="275" y="197" type="curve"/>
      <point x="290" y="176"/>
      <point x="298" y="151"/>
      <point x="290" y="122" type="curve" smooth="yes"/>
      <point x="280" y="85"/>
      <point x="255" y="43"/>
      <point x="225" y="14" type="curve" smooth="yes"/>
      <point x="196" y="-14"/>
      <point x="156" y="-20"/>
      <point x="117" y="-14" type="curve" smooth="yes"/>
      <point x="90" y="-10"/>
      <point x="40" y="2"/>
    </contour>
    <contour>
      <point x="135" y="330" type="curve" smooth="yes"/>
      <point x="144" y="315"/>
      <point x="202" y="269"/>
      <point x="237" y="239" type="curve"/>
      <point x="246" y="247"/>
      <point x="255" y="255"/>
      <point x="262" y="265" type="curve" smooth="yes"/>
      <point x="270" y="275"/>
      <point x="275" y="284"/>
      <point x="275" y="293" type="curve" smooth="yes"/>
      <point x="275" y="303"/>
      <point x="270" y="313"/>
      <point x="258" y="325" type="curve" smooth="yes"/>
      <point x="235" y="348"/>
      <point x="203" y="372"/>
      <point x="173" y="396" type="curve"/>
      <point x="161" y="386"/>
      <point x="151" y="378"/>
      <point x="145" y="370" type="curve" smooth="yes"/>
      <point x="131" y="354"/>
      <point x="127" y="342"/>
    </contour>
  </outline>
</glyph>
<glyph name="dieresis" format="1">
  <advance width="364"/>
  <unicode hex="00A8"/>
  <outline>
    <contour>
      <point x="98" y="494" type="curve"/>
      <point x="59" y="491"/>
      <point x="48" y="520"/>
      <point x="49" y="541" type="curve" smooth="yes"/>
      <point x="50" y="567"/>
      <point x="70" y="592"/>
      <point x="104" y="595" type="curve"/>
      <point x="140" y="596"/>
      <point x="152" y="571"/>
      <point x="150" y="549" type="curve"/>
      <point x="150" y="522"/>
      <point x="132" y="495"/>
    </contour>
    <contour>
      <point x="261" y="494" type="curve"/>
      <point x="223" y="491"/>
      <point x="212" y="520"/>
      <point x="213" y="541" type="curve" smooth="yes"/>
      <point x="214" y="567"/>
      <point x="234" y="592"/>
      <point x="267" y="595" type="curve"/>
      <point x="303" y="596"/>
      <point x="315" y="571"/>
      <point x="314" y="549" type="curve"/>
      <point x="314" y="522"/>
      <point x="295" y="495"/>
    </contour>
  </outline>
</glyph>
<glyph name="copyright" format="1">
  <advance width="843"/>
  <unicode hex="00A9"/>
  <outline>
    <contour>
      <point x="66" y="365" type="curve" smooth="yes"/>
      <point x="66" y="575"/>
      <point x="236" y="746"/>
      <point x="446" y="746" type="curve" smooth="yes"/>
      <point x="656" y="746"/>
      <point x="827" y="575"/>
      <point x="827" y="365" type="curve" smooth="yes"/>
      <point x="827" y="155"/>
      <point x="656" y="-15"/>
      <point x="446" y="-15" type="curve" smooth="yes"/>
      <point x="236" y="-15"/>
      <point x="66" y="155"/>
    </contour>
    <contour>
      <point x="115" y="364" type="curve" smooth="yes"/>
      <point x="115" y="181"/>
      <point x="263" y="31"/>
      <point x="446" y="31" type="curve" smooth="yes"/>
      <point x="630" y="31"/>
      <point x="778" y="181"/>
      <point x="778" y="364" type="curve" smooth="yes"/>
      <point x="778" y="548"/>
      <point x="630" y="698"/>
      <point x="446" y="698" type="curve" smooth="yes"/>
      <point x="263" y="698"/>
      <point x="115" y="548"/>
    </contour>
    <contour>
      <point x="450" y="113" type="curve" smooth="yes"/>
      <point x="306" y="113"/>
      <point x="208" y="200"/>
      <point x="208" y="355" type="curve" smooth="yes"/>
      <point x="208" y="506"/>
      <point x="334" y="622"/>
      <point x="470" y="622" type="curve" smooth="yes"/>
      <point x="507" y="622"/>
      <point x="547" y="618"/>
      <point x="591" y="602" type="curve"/>
      <point x="600" y="574"/>
      <point x="614" y="530"/>
      <point x="628" y="503" type="curve"/>
      <point x="601" y="488" type="line"/>
      <point x="559" y="545"/>
      <point x="525" y="577"/>
      <point x="467" y="577" type="curve" smooth="yes"/>
      <point x="389" y="577"/>
      <point x="311" y="507"/>
      <point x="311" y="367" type="curve" smooth="yes"/>
      <point x="311" y="195"/>
      <point x="408" y="161"/>
      <point x="464" y="161" type="curve" smooth="yes"/>
      <point x="526" y="161"/>
      <point x="577" y="175"/>
      <point x="608" y="229" type="curve"/>
      <point x="635" y="218" type="line"/>
      <point x="624" y="198"/>
      <point x="612" y="163"/>
      <point x="607" y="147" type="curve"/>
      <point x="576" y="130"/>
      <point x="528" y="113"/>
    </contour>
  </outline>
</glyph>
<glyph name="ordfeminine" format="1">
  <advance width="421"/>
  <unicode hex="00AA"/>
  <outline>
    <contour>
      <point x="268" y="314" type="curve" smooth="yes"/>
      <point x="246" y="314"/>
      <point x="236" y="330"/>
      <point x="237" y="348" type="curve"/>
      <point x="205" y="333"/>
      <point x="159" y="315"/>
      <point x="139" y="315" type="curve" smooth="yes"/>
      <point x="101" y="315"/>
      <point x="71" y="353"/>
      <point x="76" y="414" type="curve" smooth="yes"/>
      <point x="80" y="460"/>
      <point x="90" y="508"/>
      <point x="116" y="554" type="curve" smooth="yes"/>
      <point x="138" y="594"/>
      <point x="165" y="607"/>
      <point x="216" y="630" type="curve" smooth="yes"/>
      <point x="251" y="645"/>
      <point x="280" y="646"/>
      <point x="313" y="644" type="curve" smooth="yes"/>
      <point x="335" y="642"/>
      <point x="389" y="635"/>
      <point x="410" y="629" type="curve"/>
      <point x="395" y="611"/>
      <point x="390" y="597"/>
      <point x="387" y="586" type="curve" smooth="yes"/>
      <point x="365" y="525"/>
      <point x="348" y="440"/>
      <point x="346" y="408" type="curve" smooth="yes"/>
      <point x="344" y="377"/>
      <point x="369" y="379"/>
      <point x="383" y="379" type="curve" smooth="yes"/>
      <point x="391" y="379"/>
      <point x="405" y="379"/>
      <point x="415" y="380" type="curve"/>
      <point x="416" y="349" type="line"/>
      <point x="380" y="335"/>
      <point x="286" y="314"/>
    </contour>
    <contour>
      <point x="177" y="428" type="curve" smooth="yes"/>
      <point x="175" y="399"/>
      <point x="182" y="382"/>
      <point x="207" y="382" type="curve" smooth="yes"/>
      <point x="221" y="382"/>
      <point x="231" y="383"/>
      <point x="242" y="385" type="curve"/>
      <point x="261" y="478"/>
      <point x="272" y="526"/>
      <point x="291" y="592" type="curve"/>
      <point x="284" y="595"/>
      <point x="275" y="598"/>
      <point x="265" y="600" type="curve" smooth="yes"/>
      <point x="238" y="603"/>
      <point x="225" y="593"/>
      <point x="205" y="549" type="curve" smooth="yes"/>
      <point x="189" y="514"/>
      <point x="180" y="467"/>
    </contour>
  </outline>
</glyph>
<glyph name="guillemotleft" format="1">
  <advance width="432"/>
  <unicode hex="00AB"/>
  <outline>
    <contour>
      <point x="18" y="214" type="curve"/>
      <point x="22" y="239" type="line"/>
      <point x="98" y="294"/>
      <point x="131" y="319"/>
      <point x="205" y="385" type="curve"/>
      <point x="228" y="349" type="line"/>
      <point x="172" y="289"/>
      <point x="160" y="274"/>
      <point x="123" y="220" type="curve"/>
      <point x="132" y="171"/>
      <point x="141" y="139"/>
      <point x="169" y="71" type="curve"/>
      <point x="136" y="46" type="line"/>
      <point x="83" y="129"/>
      <point x="69" y="158"/>
    </contour>
    <contour>
      <point x="193" y="214" type="curve"/>
      <point x="197" y="239" type="line"/>
      <point x="273" y="294"/>
      <point x="306" y="319"/>
      <point x="380" y="385" type="curve"/>
      <point x="403" y="349" type="line"/>
      <point x="347" y="289"/>
      <point x="335" y="274"/>
      <point x="298" y="220" type="curve"/>
      <point x="307" y="171"/>
      <point x="316" y="139"/>
      <point x="344" y="71" type="curve"/>
      <point x="311" y="46" type="line"/>
      <point x="258" y="129"/>
      <point x="244" y="158"/>
    </contour>
  </outline>
</glyph>
<glyph name="uni00AD" format="1">
  <advance width="274"/>
  <unicode hex="00AD"/>
  <outline>
    <contour>
      <point x="16" y="241" type="curve"/>
      <point x="23" y="259"/>
      <point x="32" y="294"/>
      <point x="32" y="305" type="curve"/>
      <point x="67" y="303"/>
      <point x="102" y="302"/>
      <point x="137" y="302" type="curve" smooth="yes"/>
      <point x="172" y="302"/>
      <point x="207" y="303"/>
      <point x="242" y="305" type="curve"/>
      <point x="236" y="290"/>
      <point x="226" y="253"/>
      <point x="226" y="241" type="curve"/>
      <point x="191" y="243"/>
      <point x="156" y="245"/>
      <point x="121" y="245" type="curve" smooth="yes"/>
      <point x="86" y="245"/>
      <point x="51" y="243"/>
    </contour>
  </outline>
</glyph>
<glyph name="registered" format="1">
  <advance width="843"/>
  <unicode hex="00AE"/>
  <outline>
    <contour>
      <point x="66" y="365" type="curve" smooth="yes"/>
      <point x="66" y="575"/>
      <point x="236" y="746"/>
      <point x="446" y="746" type="curve" smooth="yes"/>
      <point x="656" y="746"/>
      <point x="827" y="575"/>
      <point x="827" y="365" type="curve" smooth="yes"/>
      <point x="827" y="155"/>
      <point x="656" y="-15"/>
      <point x="446" y="-15" type="curve" smooth="yes"/>
      <point x="236" y="-15"/>
      <point x="66" y="155"/>
    </contour>
    <contour>
      <point x="115" y="364" type="curve" smooth="yes"/>
      <point x="115" y="181"/>
      <point x="263" y="31"/>
      <point x="446" y="31" type="curve" smooth="yes"/>
      <point x="630" y="31"/>
      <point x="778" y="181"/>
      <point x="778" y="364" type="curve" smooth="yes"/>
      <point x="778" y="548"/>
      <point x="630" y="698"/>
      <point x="446" y="698" type="curve" smooth="yes"/>
      <point x="263" y="698"/>
      <point x="115" y="548"/>
    </contour>
    <contour>
      <point x="482" y="372" type="curve" smooth="yes"/>
      <point x="523" y="372"/>
      <point x="550" y="402"/>
      <point x="550" y="461" type="curve" smooth="yes"/>
      <point x="550" y="542"/>
      <point x="500" y="561"/>
      <point x="452" y="561" type="curve" smooth="yes"/>
      <point x="439" y="561"/>
      <point x="402" y="560"/>
      <point x="392" y="557" type="curve"/>
      <point x="390" y="490"/>
      <point x="388" y="430"/>
      <point x="388" y="367" type="curve" smooth="yes"/>
      <point x="388" y="318"/>
      <point x="389" y="268"/>
      <point x="391" y="213" type="curve" smooth="yes"/>
      <point x="392" y="172"/>
      <point x="394" y="169"/>
      <point x="446" y="160" type="curve"/>
      <point x="441" y="127" type="line"/>
      <point x="405" y="130"/>
      <point x="373" y="131"/>
      <point x="342" y="131" type="curve" smooth="yes"/>
      <point x="311" y="131"/>
      <point x="280" y="130"/>
      <point x="244" y="127" type="curve"/>
      <point x="239" y="160" type="line"/>
      <point x="299" y="172"/>
      <point x="295" y="174"/>
      <point x="298" y="212" type="curve"/>
      <point x="300" y="259"/>
      <point x="301" y="307"/>
      <point x="301" y="355" type="curve" smooth="yes"/>
      <point x="301" y="410"/>
      <point x="300" y="465"/>
      <point x="298" y="519" type="curve" smooth="yes"/>
      <point x="296" y="556"/>
      <point x="290" y="562"/>
      <point x="239" y="569" type="curve"/>
      <point x="243" y="602" type="line"/>
      <point x="244" y="602" type="line"/>
      <point x="276" y="598"/>
      <point x="305" y="598"/>
      <point x="335" y="597" type="curve" smooth="yes"/>
      <point x="365" y="597"/>
      <point x="401" y="602"/>
      <point x="469" y="602" type="curve" smooth="yes"/>
      <point x="559" y="602"/>
      <point x="640" y="571"/>
      <point x="643" y="478" type="curve" smooth="yes"/>
      <point x="646" y="390"/>
      <point x="573" y="340"/>
      <point x="520" y="340" type="curve" smooth="yes"/>
      <point x="514" y="340"/>
      <point x="507" y="340"/>
      <point x="499" y="342" type="curve"/>
      <point x="550" y="279"/>
      <point x="588" y="238"/>
      <point x="682" y="181" type="curve"/>
      <point x="652" y="160"/>
      <point x="632" y="137"/>
      <point x="614" y="107" type="curve"/>
      <point x="522" y="194"/>
      <point x="487" y="247"/>
      <point x="416" y="366" type="curve"/>
      <point x="422" y="370"/>
      <point x="438" y="380"/>
      <point x="443" y="388" type="curve"/>
      <point x="452" y="380"/>
      <point x="460" y="372"/>
    </contour>
  </outline>
</glyph>
<glyph name="macron" format="1">
  <advance width="364"/>
  <unicode hex="00AF"/>
  <outline>
    <contour>
      <point x="294" y="550" type="curve"/>
      <point x="251" y="551"/>
      <point x="202" y="551"/>
      <point x="154" y="551" type="curve" smooth="yes"/>
      <point x="119" y="551"/>
      <point x="84" y="551"/>
      <point x="52" y="550" type="curve"/>
      <point x="60" y="564"/>
      <point x="68" y="592"/>
      <point x="70" y="614" type="curve"/>
      <point x="111" y="613"/>
      <point x="156" y="612"/>
      <point x="202" y="612" type="curve" smooth="yes"/>
      <point x="240" y="612"/>
      <point x="278" y="613"/>
      <point x="312" y="614" type="curve"/>
      <point x="304" y="599"/>
      <point x="296" y="565"/>
    </contour>
  </outline>
</glyph>
<glyph name="plusminus" format="1">
  <advance width="470"/>
  <unicode hex="00B1"/>
  <outline>
    <contour>
      <point x="23" y="69" type="line"/>
      <point x="23" y="104" type="line"/>
      <point x="212" y="104" type="line"/>
      <point x="212" y="270" type="line"/>
      <point x="23" y="270" type="line"/>
      <point x="23" y="305" type="line"/>
      <point x="212" y="305" type="line"/>
      <point x="212" y="473" type="line"/>
      <point x="248" y="473" type="line"/>
      <point x="248" y="305" type="line"/>
      <point x="438" y="305" type="line"/>
      <point x="438" y="270" type="line"/>
      <point x="248" y="270" type="line"/>
      <point x="248" y="104" type="line"/>
      <point x="438" y="104" type="line"/>
      <point x="438" y="69" type="line"/>
    </contour>
  </outline>
</glyph>
<glyph name="acute" format="1">
  <advance width="364"/>
  <unicode hex="00B4"/>
  <outline>
    <contour>
      <point x="119" y="486" type="curve"/>
      <point x="93" y="505" type="line"/>
      <point x="127" y="560"/>
      <point x="161" y="621"/>
      <point x="188" y="688" type="curve"/>
      <point x="224" y="655"/>
      <point x="250" y="642"/>
      <point x="284" y="624" type="curve"/>
      <point x="234" y="591"/>
      <point x="168" y="534"/>
    </contour>
  </outline>
</glyph>
<glyph name="paragraph" format="1">
  <advance width="518"/>
  <unicode hex="00B6"/>
  <outline>
    <contour>
      <point x="286" y="215" type="curve" smooth="yes"/>
      <point x="299" y="261"/>
      <point x="295" y="244"/>
      <point x="306" y="294" type="curve"/>
      <point x="259" y="275"/>
      <point x="211" y="257"/>
      <point x="167" y="258" type="curve" smooth="yes"/>
      <point x="89" y="260"/>
      <point x="51" y="322"/>
      <point x="51" y="375" type="curve" smooth="yes"/>
      <point x="51" y="531"/>
      <point x="195" y="641"/>
      <point x="349" y="641" type="curve" smooth="yes"/>
      <point x="382" y="641"/>
      <point x="442" y="634"/>
      <point x="502" y="634" type="curve" smooth="yes"/>
      <point x="528" y="634"/>
      <point x="553" y="635"/>
      <point x="576" y="639" type="curve"/>
      <point x="579" y="602" type="line"/>
      <point x="507" y="591"/>
      <point x="499" y="578"/>
      <point x="486" y="526" type="curve" smooth="yes"/>
      <point x="466" y="445"/>
      <point x="387" y="80"/>
      <point x="379" y="0" type="curve"/>
      <point x="366" y="1"/>
      <point x="333" y="-2"/>
      <point x="319" y="-5" type="curve"/>
      <point x="339" y="71"/>
      <point x="439" y="507"/>
      <point x="455" y="592" type="curve"/>
      <point x="418" y="596" type="line"/>
      <point x="393" y="501"/>
      <point x="327" y="190"/>
      <point x="316" y="142" type="curve" smooth="yes"/>
      <point x="302" y="78"/>
      <point x="282" y="59"/>
      <point x="235" y="33" type="curve" smooth="yes"/>
      <point x="204" y="16"/>
      <point x="164" y="1"/>
      <point x="111" y="-10" type="curve"/>
      <point x="111" y="15"/>
      <point x="99" y="84"/>
      <point x="85" y="112" type="curve"/>
      <point x="128" y="117"/>
      <point x="186" y="129"/>
      <point x="222" y="142" type="curve" smooth="yes"/>
      <point x="267" y="159"/>
      <point x="275" y="174"/>
    </contour>
    <contour>
      <point x="315" y="335" type="curve"/>
      <point x="336" y="429"/>
      <point x="350" y="501"/>
      <point x="367" y="595" type="curve"/>
      <point x="351" y="598"/>
      <point x="338" y="598"/>
      <point x="325" y="598" type="curve" smooth="yes"/>
      <point x="253" y="598"/>
      <point x="173" y="529"/>
      <point x="170" y="395" type="curve" smooth="yes"/>
      <point x="170" y="356"/>
      <point x="194" y="327"/>
      <point x="233" y="327" type="curve"/>
      <point x="270" y="326"/>
      <point x="286" y="329"/>
    </contour>
  </outline>
</glyph>
<glyph name="periodcentered" format="1">
  <advance width="224"/>
  <unicode hex="00B7"/>
  <outline>
    <contour>
      <point x="92" y="249" type="curve" smooth="yes"/>
      <point x="44" y="253"/>
      <point x="34" y="284"/>
      <point x="39" y="314" type="curve" smooth="yes"/>
      <point x="45" y="350"/>
      <point x="75" y="384"/>
      <point x="123" y="380" type="curve" smooth="yes"/>
      <point x="169" y="376"/>
      <point x="181" y="345"/>
      <point x="175" y="315" type="curve" smooth="yes"/>
      <point x="169" y="279"/>
      <point x="146" y="244"/>
    </contour>
  </outline>
</glyph>
<glyph name="cedilla" format="1">
  <advance width="364"/>
  <unicode hex="00B8"/>
  <outline>
    <contour>
      <point x="126" y="-240" type="curve"/>
      <point x="103" y="-200" type="line"/>
      <point x="127" y="-198"/>
      <point x="139" y="-197"/>
      <point x="159" y="-192" type="curve" smooth="yes"/>
      <point x="175" y="-187"/>
      <point x="203" y="-172"/>
      <point x="178" y="-142" type="curve" smooth="yes"/>
      <point x="169" y="-132"/>
      <point x="154" y="-123"/>
      <point x="137" y="-114" type="curve"/>
      <point x="165" y="-76"/>
      <point x="188" y="-35"/>
      <point x="208" y="9" type="curve"/>
      <point x="250" y="8" type="line"/>
      <point x="238" y="-12"/>
      <point x="230" y="-25"/>
      <point x="222" y="-46" type="curve"/>
      <point x="234" y="-55"/>
      <point x="238" y="-59"/>
      <point x="244" y="-66" type="curve" smooth="yes"/>
      <point x="255" y="-79"/>
      <point x="265" y="-98"/>
      <point x="258" y="-122" type="curve" smooth="yes"/>
      <point x="244" y="-172"/>
      <point x="225" y="-203"/>
      <point x="183" y="-221" type="curve" smooth="yes"/>
      <point x="165" y="-229"/>
      <point x="149" y="-235"/>
    </contour>
  </outline>
</glyph>
<glyph name="onesuperior" format="1">
  <advance width="293"/>
  <unicode hex="00B9"/>
  <outline>
    <contour>
      <point x="105" y="604" type="curve"/>
      <point x="100" y="605" type="line"/>
      <point x="106" y="620"/>
      <point x="115" y="652"/>
      <point x="115" y="657" type="curve"/>
      <point x="186" y="684"/>
      <point x="224" y="698"/>
      <point x="308" y="712" type="curve"/>
      <point x="311" y="687" type="line"/>
      <point x="300" y="681"/>
      <point x="282" y="675"/>
      <point x="275" y="645" type="curve" smooth="yes"/>
      <point x="261" y="583"/>
      <point x="248" y="519"/>
      <point x="235" y="442" type="curve" smooth="yes"/>
      <point x="228" y="402"/>
      <point x="253" y="407"/>
      <point x="298" y="398" type="curve"/>
      <point x="286" y="362" type="line"/>
      <point x="251" y="365"/>
      <point x="212" y="366"/>
      <point x="172" y="366" type="curve" smooth="yes"/>
      <point x="132" y="366"/>
      <point x="92" y="365"/>
      <point x="57" y="362" type="curve"/>
      <point x="61" y="398" type="line"/>
      <point x="120" y="409"/>
      <point x="135" y="404"/>
      <point x="144" y="441" type="curve" smooth="yes"/>
      <point x="160" y="506"/>
      <point x="173" y="570"/>
      <point x="185" y="640" type="curve"/>
      <point x="164" y="632"/>
      <point x="132" y="619"/>
    </contour>
  </outline>
</glyph>
<glyph name="ordmasculine" format="1">
  <advance width="353"/>
  <unicode hex="00BA"/>
  <outline>
    <contour>
      <point x="180" y="314" type="curve" smooth="yes"/>
      <point x="108" y="314"/>
      <point x="70" y="370"/>
      <point x="76" y="442" type="curve" smooth="yes"/>
      <point x="80" y="487"/>
      <point x="91" y="525"/>
      <point x="105" y="553" type="curve" smooth="yes"/>
      <point x="120" y="583"/>
      <point x="137" y="604"/>
      <point x="175" y="622" type="curve" smooth="yes"/>
      <point x="210" y="638"/>
      <point x="233" y="643"/>
      <point x="253" y="643" type="curve" smooth="yes"/>
      <point x="335" y="643"/>
      <point x="367" y="587"/>
      <point x="368" y="527" type="curve" smooth="yes"/>
      <point x="368" y="486"/>
      <point x="359" y="433"/>
      <point x="340" y="400" type="curve" smooth="yes"/>
      <point x="326" y="374"/>
      <point x="314" y="358"/>
      <point x="268" y="336" type="curve" smooth="yes"/>
      <point x="225" y="315"/>
      <point x="207" y="314"/>
    </contour>
    <contour>
      <point x="173" y="440" type="curve" smooth="yes"/>
      <point x="173" y="412"/>
      <point x="180" y="391"/>
      <point x="193" y="381" type="curve" smooth="yes"/>
      <point x="223" y="359"/>
      <point x="241" y="375"/>
      <point x="250" y="400" type="curve" smooth="yes"/>
      <point x="259" y="424"/>
      <point x="270" y="464"/>
      <point x="271" y="512" type="curve" smooth="yes"/>
      <point x="272" y="541"/>
      <point x="266" y="566"/>
      <point x="252" y="578" type="curve" smooth="yes"/>
      <point x="223" y="601"/>
      <point x="207" y="585"/>
      <point x="197" y="560" type="curve" smooth="yes"/>
      <point x="181" y="521"/>
      <point x="173" y="490"/>
    </contour>
  </outline>
</glyph>
<glyph name="guillemotright" format="1">
  <advance width="432"/>
  <unicode hex="00BB"/>
  <outline>
    <contour>
      <point x="217" y="216" type="curve"/>
      <point x="213" y="191" type="line"/>
      <point x="137" y="136"/>
      <point x="104" y="111"/>
      <point x="30" y="45" type="curve"/>
      <point x="7" y="81" type="line"/>
      <point x="63" y="141"/>
      <point x="75" y="156"/>
      <point x="112" y="210" type="curve"/>
      <point x="103" y="259"/>
      <point x="94" y="291"/>
      <point x="66" y="359" type="curve"/>
      <point x="99" y="384" type="line"/>
      <point x="152" y="301"/>
      <point x="166" y="272"/>
    </contour>
    <contour>
      <point x="392" y="216" type="curve"/>
      <point x="388" y="191" type="line"/>
      <point x="312" y="136"/>
      <point x="279" y="111"/>
      <point x="205" y="45" type="curve"/>
      <point x="182" y="81" type="line"/>
      <point x="238" y="141"/>
      <point x="250" y="156"/>
      <point x="287" y="210" type="curve"/>
      <point x="278" y="259"/>
      <point x="269" y="291"/>
      <point x="241" y="359" type="curve"/>
      <point x="274" y="384" type="line"/>
      <point x="327" y="301"/>
      <point x="341" y="272"/>
    </contour>
  </outline>
</glyph>
<glyph name="onequarter" format="1">
  <advance width="760"/>
  <unicode hex="00BC"/>
  <outline>
    <contour>
      <point x="375" y="74" type="curve"/>
      <point x="371" y="78" type="line"/>
      <point x="380" y="93"/>
      <point x="387" y="114"/>
      <point x="391" y="131" type="curve"/>
      <point x="411" y="145"/>
      <point x="416" y="147"/>
      <point x="431" y="160" type="curve" smooth="yes"/>
      <point x="471" y="195"/>
      <point x="524" y="245"/>
      <point x="565" y="293" type="curve" smooth="yes"/>
      <point x="579" y="310"/>
      <point x="588" y="318"/>
      <point x="598" y="340" type="curve"/>
      <point x="621" y="338"/>
      <point x="648" y="341"/>
      <point x="669" y="345" type="curve"/>
      <point x="659" y="316"/>
      <point x="634" y="195"/>
      <point x="625" y="131" type="curve"/>
      <point x="636" y="131"/>
      <point x="646" y="130"/>
      <point x="657" y="130" type="curve" smooth="yes"/>
      <point x="675" y="130"/>
      <point x="692" y="132"/>
      <point x="707" y="140" type="curve"/>
      <point x="714" y="134" type="line"/>
      <point x="689" y="108"/>
      <point x="677" y="93"/>
      <point x="664" y="71" type="curve"/>
      <point x="648" y="76"/>
      <point x="631" y="78"/>
      <point x="615" y="79" type="curve"/>
      <point x="608" y="40"/>
      <point x="608" y="11"/>
      <point x="610" y="-1" type="curve"/>
      <point x="545" y="-8"/>
      <point x="529" y="-14"/>
      <point x="490" y="-35" type="curve"/>
      <point x="485" y="-28" type="line"/>
      <point x="507" y="9"/>
      <point x="516" y="37"/>
      <point x="525" y="83" type="curve"/>
      <point x="514" y="84"/>
      <point x="503" y="84"/>
      <point x="492" y="84" type="curve" smooth="yes"/>
      <point x="449" y="84"/>
      <point x="404" y="79"/>
    </contour>
    <contour>
      <point x="90" y="528" type="curve"/>
      <point x="85" y="529" type="line"/>
      <point x="91" y="544"/>
      <point x="100" y="576"/>
      <point x="100" y="581" type="curve"/>
      <point x="171" y="608"/>
      <point x="209" y="622"/>
      <point x="293" y="636" type="curve"/>
      <point x="296" y="611" type="line"/>
      <point x="285" y="605"/>
      <point x="267" y="599"/>
      <point x="260" y="569" type="curve" smooth="yes"/>
      <point x="246" y="507"/>
      <point x="233" y="443"/>
      <point x="220" y="366" type="curve" smooth="yes"/>
      <point x="213" y="326"/>
      <point x="238" y="331"/>
      <point x="283" y="322" type="curve"/>
      <point x="271" y="286" type="line"/>
      <point x="236" y="289"/>
      <point x="197" y="290"/>
      <point x="157" y="290" type="curve" smooth="yes"/>
      <point x="117" y="290"/>
      <point x="77" y="289"/>
      <point x="42" y="286" type="curve"/>
      <point x="46" y="322" type="line"/>
      <point x="105" y="333"/>
      <point x="120" y="328"/>
      <point x="129" y="365" type="curve" smooth="yes"/>
      <point x="145" y="430"/>
      <point x="158" y="494"/>
      <point x="170" y="564" type="curve"/>
      <point x="149" y="556"/>
      <point x="117" y="543"/>
    </contour>
    <contour>
      <point x="698" y="658" type="curve"/>
      <point x="731" y="629" type="line"/>
      <point x="577" y="480"/>
      <point x="216" y="125"/>
      <point x="64" y="-25" type="curve"/>
      <point x="33" y="5" type="line"/>
      <point x="186" y="154"/>
      <point x="546" y="507"/>
    </contour>
    <contour>
      <point x="558" y="234" type="line"/>
      <point x="520" y="188"/>
      <point x="482" y="157"/>
      <point x="448" y="130" type="curve"/>
      <point x="485" y="135"/>
      <point x="505" y="135"/>
      <point x="534" y="134" type="curve"/>
    </contour>
  </outline>
</glyph>
<glyph name="onehalf" format="1">
  <advance width="760"/>
  <unicode hex="00BD"/>
  <outline>
    <contour>
      <point x="76" y="523" type="curve"/>
      <point x="71" y="524" type="line"/>
      <point x="77" y="539"/>
      <point x="86" y="571"/>
      <point x="86" y="576" type="curve"/>
      <point x="157" y="603"/>
      <point x="195" y="617"/>
      <point x="279" y="631" type="curve"/>
      <point x="282" y="606" type="line"/>
      <point x="271" y="600"/>
      <point x="253" y="594"/>
      <point x="246" y="564" type="curve" smooth="yes"/>
      <point x="232" y="502"/>
      <point x="219" y="438"/>
      <point x="206" y="361" type="curve" smooth="yes"/>
      <point x="199" y="321"/>
      <point x="224" y="326"/>
      <point x="269" y="317" type="curve"/>
      <point x="257" y="281" type="line"/>
      <point x="222" y="284"/>
      <point x="183" y="285"/>
      <point x="143" y="285" type="curve" smooth="yes"/>
      <point x="103" y="285"/>
      <point x="63" y="284"/>
      <point x="28" y="281" type="curve"/>
      <point x="32" y="317" type="line"/>
      <point x="91" y="328"/>
      <point x="106" y="323"/>
      <point x="115" y="360" type="curve" smooth="yes"/>
      <point x="131" y="425"/>
      <point x="144" y="489"/>
      <point x="156" y="559" type="curve"/>
      <point x="135" y="551"/>
      <point x="103" y="538"/>
    </contour>
    <contour>
      <point x="546" y="115" type="curve" smooth="yes"/>
      <point x="573" y="142"/>
      <point x="592" y="174"/>
      <point x="592" y="190" type="curve" smooth="yes"/>
      <point x="592" y="201"/>
      <point x="588" y="223"/>
      <point x="552" y="223" type="curve" smooth="yes"/>
      <point x="535" y="223"/>
      <point x="496" y="220"/>
      <point x="476" y="211" type="curve"/>
      <point x="491" y="232"/>
      <point x="506" y="273"/>
      <point x="511" y="302" type="curve"/>
      <point x="523" y="306"/>
      <point x="580" y="308"/>
      <point x="593" y="308" type="curve" smooth="yes"/>
      <point x="656" y="308"/>
      <point x="677" y="270"/>
      <point x="677" y="235" type="curve" smooth="yes"/>
      <point x="677" y="206"/>
      <point x="662" y="180"/>
      <point x="642" y="158" type="curve" smooth="yes"/>
      <point x="607" y="121"/>
      <point x="570" y="85"/>
      <point x="527" y="50" type="curve"/>
      <point x="555" y="52"/>
      <point x="573" y="51"/>
      <point x="592" y="49" type="curve" smooth="yes"/>
      <point x="612" y="47"/>
      <point x="621" y="47"/>
      <point x="640" y="75" type="curve"/>
      <point x="667" y="58" type="line"/>
      <point x="643" y="25"/>
      <point x="631" y="-1"/>
      <point x="615" y="-40" type="curve"/>
      <point x="587" y="-34"/>
      <point x="554" y="-31"/>
      <point x="520" y="-31" type="curve" smooth="yes"/>
      <point x="484" y="-31"/>
      <point x="447" y="-34"/>
      <point x="411" y="-42" type="curve"/>
      <point x="420" y="-24"/>
      <point x="430" y="10"/>
      <point x="436" y="39" type="curve"/>
      <point x="463" y="45"/>
      <point x="509" y="78"/>
    </contour>
    <contour>
      <point x="697" y="658" type="curve"/>
      <point x="730" y="629" type="line"/>
      <point x="576" y="480"/>
      <point x="215" y="125"/>
      <point x="63" y="-25" type="curve"/>
      <point x="32" y="5" type="line"/>
      <point x="185" y="154"/>
      <point x="545" y="507"/>
    </contour>
  </outline>
</glyph>
<glyph name="threequarters" format="1">
  <advance width="760"/>
  <unicode hex="00BE"/>
  <outline>
    <contour>
      <point x="375" y="74" type="curve"/>
      <point x="371" y="78" type="line"/>
      <point x="380" y="93"/>
      <point x="387" y="114"/>
      <point x="391" y="131" type="curve"/>
      <point x="411" y="145"/>
      <point x="416" y="147"/>
      <point x="431" y="160" type="curve" smooth="yes"/>
      <point x="471" y="195"/>
      <point x="524" y="245"/>
      <point x="565" y="293" type="curve" smooth="yes"/>
      <point x="579" y="310"/>
      <point x="588" y="318"/>
      <point x="598" y="340" type="curve"/>
      <point x="621" y="338"/>
      <point x="648" y="341"/>
      <point x="669" y="345" type="curve"/>
      <point x="659" y="316"/>
      <point x="634" y="195"/>
      <point x="625" y="131" type="curve"/>
      <point x="636" y="131"/>
      <point x="646" y="130"/>
      <point x="657" y="130" type="curve" smooth="yes"/>
      <point x="675" y="130"/>
      <point x="692" y="132"/>
      <point x="707" y="140" type="curve"/>
      <point x="714" y="134" type="line"/>
      <point x="689" y="108"/>
      <point x="677" y="93"/>
      <point x="664" y="71" type="curve"/>
      <point x="648" y="76"/>
      <point x="631" y="78"/>
      <point x="615" y="79" type="curve"/>
      <point x="608" y="40"/>
      <point x="608" y="11"/>
      <point x="610" y="-1" type="curve"/>
      <point x="545" y="-8"/>
      <point x="529" y="-14"/>
      <point x="490" y="-35" type="curve"/>
      <point x="485" y="-28" type="line"/>
      <point x="507" y="9"/>
      <point x="516" y="37"/>
      <point x="525" y="83" type="curve"/>
      <point x="514" y="84"/>
      <point x="503" y="84"/>
      <point x="492" y="84" type="curve" smooth="yes"/>
      <point x="449" y="84"/>
      <point x="404" y="79"/>
    </contour>
    <contour>
      <point x="116" y="276" type="curve" smooth="yes"/>
      <point x="85" y="282"/>
      <point x="43" y="297"/>
      <point x="19" y="310" type="curve"/>
      <point x="41" y="343"/>
      <point x="53" y="358"/>
      <point x="67" y="400" type="curve"/>
      <point x="79" y="389"/>
      <point x="132" y="359"/>
      <point x="151" y="353" type="curve" smooth="yes"/>
      <point x="177" y="344"/>
      <point x="189" y="352"/>
      <point x="191" y="366" type="curve" smooth="yes"/>
      <point x="193" y="386"/>
      <point x="187" y="404"/>
      <point x="181" y="415" type="curve" smooth="yes"/>
      <point x="175" y="425"/>
      <point x="164" y="436"/>
      <point x="150" y="440" type="curve" smooth="yes"/>
      <point x="137" y="443"/>
      <point x="126" y="443"/>
      <point x="110" y="443" type="curve"/>
      <point x="116" y="453"/>
      <point x="124" y="470"/>
      <point x="128" y="483" type="curve"/>
      <point x="141" y="483"/>
      <point x="151" y="484"/>
      <point x="157" y="486" type="curve" smooth="yes"/>
      <point x="174" y="491"/>
      <point x="187" y="503"/>
      <point x="189" y="512" type="curve" smooth="yes"/>
      <point x="193" y="527"/>
      <point x="180" y="534"/>
      <point x="158" y="534" type="curve" smooth="yes"/>
      <point x="136" y="534"/>
      <point x="107" y="531"/>
      <point x="93" y="526" type="curve"/>
      <point x="107" y="544"/>
      <point x="122" y="587"/>
      <point x="131" y="624" type="curve"/>
      <point x="142" y="625"/>
      <point x="170" y="626"/>
      <point x="184" y="626" type="curve" smooth="yes"/>
      <point x="216" y="626"/>
      <point x="235" y="619"/>
      <point x="251" y="605" type="curve" smooth="yes"/>
      <point x="261" y="596"/>
      <point x="265" y="584"/>
      <point x="265" y="571" type="curve" smooth="yes"/>
      <point x="265" y="553"/>
      <point x="258" y="535"/>
      <point x="249" y="523" type="curve" smooth="yes"/>
      <point x="237" y="508"/>
      <point x="226" y="497"/>
      <point x="203" y="482" type="curve"/>
      <point x="234" y="479"/>
      <point x="278" y="445"/>
      <point x="259" y="390" type="curve" smooth="yes"/>
      <point x="246" y="352"/>
      <point x="214" y="311"/>
      <point x="159" y="282" type="curve" smooth="yes"/>
      <point x="144" y="274"/>
      <point x="136" y="272"/>
    </contour>
    <contour>
      <point x="697" y="658" type="curve"/>
      <point x="730" y="629" type="line"/>
      <point x="576" y="480"/>
      <point x="215" y="125"/>
      <point x="63" y="-25" type="curve"/>
      <point x="32" y="5" type="line"/>
      <point x="185" y="154"/>
      <point x="545" y="507"/>
    </contour>
    <contour>
      <point x="558" y="234" type="line"/>
      <point x="520" y="188"/>
      <point x="482" y="157"/>
      <point x="448" y="130" type="curve"/>
      <point x="485" y="135"/>
      <point x="505" y="135"/>
      <point x="534" y="134" type="curve"/>
    </contour>
  </outline>
</glyph>
<glyph name="questiondown" format="1">
  <advance width="410"/>
  <unicode hex="00BF"/>
  <outline>
    <contour>
      <point x="243" y="274" type="curve"/>
      <point x="281" y="271" type="line"/>
      <point x="266" y="228"/>
      <point x="245" y="151"/>
      <point x="228" y="91" type="curve"/>
      <point x="200" y="99"/>
      <point x="162" y="108"/>
      <point x="133" y="111" type="curve" smooth="yes"/>
      <point x="88" y="115"/>
      <point x="54" y="106"/>
      <point x="35" y="71" type="curve" smooth="yes"/>
      <point x="18" y="40"/>
      <point x="39" y="4"/>
      <point x="107" y="-35" type="curve" smooth="yes"/>
      <point x="163" y="-67"/>
      <point x="248" y="-94"/>
      <point x="303" y="-102" type="curve"/>
      <point x="280" y="-135"/>
      <point x="264" y="-173"/>
      <point x="254" y="-216" type="curve"/>
      <point x="229" y="-210"/>
      <point x="207" y="-202"/>
      <point x="181" y="-193" type="curve" smooth="yes"/>
      <point x="140" y="-179"/>
      <point x="83" y="-154"/>
      <point x="45" y="-129" type="curve" smooth="yes"/>
      <point x="-11" y="-91"/>
      <point x="-47" y="-49"/>
      <point x="-36" y="16" type="curve" smooth="yes"/>
      <point x="-26" y="78"/>
      <point x="0" y="130"/>
      <point x="34" y="165" type="curve" smooth="yes"/>
      <point x="69" y="201"/>
      <point x="98" y="216"/>
      <point x="144" y="213" type="curve" smooth="yes"/>
      <point x="164" y="212"/>
      <point x="199" y="206"/>
      <point x="218" y="201" type="curve"/>
      <point x="228" y="225"/>
      <point x="232" y="234"/>
    </contour>
    <contour>
      <point x="299" y="446" type="curve" smooth="yes"/>
      <point x="346" y="442"/>
      <point x="357" y="411"/>
      <point x="352" y="381" type="curve" smooth="yes"/>
      <point x="347" y="345"/>
      <point x="317" y="311"/>
      <point x="269" y="315" type="curve" smooth="yes"/>
      <point x="223" y="319"/>
      <point x="211" y="350"/>
      <point x="217" y="380" type="curve"/>
      <point x="222" y="416"/>
      <point x="244" y="451"/>
    </contour>
  </outline>
</glyph>
<glyph name="Aacute" format="1">
  <advance width="750"/>
  <unicode hex="00C1"/>
  <outline>
    <contour>
      <point x="397" y="-2" type="curve"/>
      <point x="398" y="36" type="line"/>
      <point x="464" y="53"/>
      <point x="471" y="59"/>
      <point x="469" y="91" type="curve" smooth="yes"/>
      <point x="468" y="105"/>
      <point x="460" y="174"/>
      <point x="455" y="195" type="curve"/>
      <point x="429" y="189"/>
      <point x="395" y="179"/>
      <point x="376" y="175" type="curve"/>
      <point x="359" y="174"/>
      <point x="343" y="174"/>
      <point x="327" y="174" type="curve" smooth="yes"/>
      <point x="291" y="174"/>
      <point x="255" y="176"/>
      <point x="208" y="183" type="curve"/>
      <point x="186" y="142"/>
      <point x="173" y="115"/>
      <point x="166" y="99" type="curve" smooth="yes"/>
      <point x="154" y="69"/>
      <point x="153" y="54"/>
      <point x="212" y="36" type="curve"/>
      <point x="202" y="-2" type="line"/>
      <point x="170" y="2"/>
      <point x="132" y="4"/>
      <point x="94" y="4" type="curve" smooth="yes"/>
      <point x="53" y="4"/>
      <point x="11" y="2"/>
      <point x="-25" y="-2" type="curve"/>
      <point x="-24" y="23"/>
      <point x="-23" y="36"/>
      <point x="-23" y="36" type="curve"/>
      <point x="44" y="52"/>
      <point x="52" y="60"/>
      <point x="83" y="102" type="curve" smooth="yes"/>
      <point x="157" y="205"/>
      <point x="275" y="395"/>
      <point x="351" y="533" type="curve" smooth="yes"/>
      <point x="363" y="556"/>
      <point x="370" y="572"/>
      <point x="370" y="591" type="curve" smooth="yes"/>
      <point x="370" y="601"/>
      <point x="368" y="612"/>
      <point x="364" y="625" type="curve"/>
      <point x="407" y="628"/>
      <point x="451" y="637"/>
      <point x="489" y="652" type="curve"/>
      <point x="504" y="542"/>
      <point x="572" y="211"/>
      <point x="600" y="106" type="curve" smooth="yes"/>
      <point x="611" y="67"/>
      <point x="627" y="52"/>
      <point x="683" y="36" type="curve"/>
      <point x="674" y="-3" type="line"/>
      <point x="636" y="2"/>
      <point x="588" y="5"/>
      <point x="540" y="5" type="curve" smooth="yes"/>
      <point x="489" y="5"/>
      <point x="438" y="2"/>
    </contour>
    <contour>
      <point x="234" y="229" type="curve"/>
      <point x="271" y="223"/>
      <point x="304" y="220"/>
      <point x="336" y="220" type="curve" smooth="yes"/>
      <point x="375" y="220"/>
      <point x="412" y="224"/>
      <point x="450" y="229" type="curve"/>
      <point x="428" y="350"/>
      <point x="416" y="394"/>
      <point x="391" y="508" type="curve"/>
      <point x="336" y="406"/>
      <point x="293" y="329"/>
    </contour>
    <contour>
      <point x="533" y="840" type="curve"/>
      <point x="534" y="816"/>
      <point x="554" y="757"/>
      <point x="562" y="735" type="curve"/>
      <point x="470" y="725"/>
      <point x="432" y="719"/>
      <point x="345" y="697" type="curve"/>
      <point x="332" y="731" type="line"/>
      <point x="401" y="761"/>
      <point x="440" y="782"/>
    </contour>
  </outline>
</glyph>
<glyph name="Aring" format="1">
  <advance width="750"/>
  <unicode hex="00C5"/>
  <outline>
    <contour>
      <point x="397" y="-2" type="curve"/>
      <point x="398" y="36" type="line"/>
      <point x="464" y="53"/>
      <point x="471" y="59"/>
      <point x="469" y="91" type="curve" smooth="yes"/>
      <point x="468" y="105"/>
      <point x="460" y="174"/>
      <point x="455" y="195" type="curve"/>
      <point x="429" y="189"/>
      <point x="395" y="179"/>
      <point x="376" y="175" type="curve"/>
      <point x="359" y="174"/>
      <point x="343" y="174"/>
      <point x="327" y="174" type="curve" smooth="yes"/>
      <point x="291" y="174"/>
      <point x="255" y="176"/>
      <point x="208" y="183" type="curve"/>
      <point x="186" y="142"/>
      <point x="173" y="115"/>
      <point x="166" y="99" type="curve" smooth="yes"/>
      <point x="154" y="69"/>
      <point x="153" y="54"/>
      <point x="212" y="36" type="curve"/>
      <point x="202" y="-2" type="line"/>
      <point x="170" y="2"/>
      <point x="132" y="4"/>
      <point x="94" y="4" type="curve" smooth="yes"/>
      <point x="53" y="4"/>
      <point x="11" y="2"/>
      <point x="-25" y="-2" type="curve"/>
      <point x="-24" y="23"/>
      <point x="-23" y="36"/>
      <point x="-23" y="36" type="curve"/>
      <point x="44" y="52"/>
      <point x="52" y="60"/>
      <point x="83" y="102" type="curve" smooth="yes"/>
      <point x="157" y="205"/>
      <point x="275" y="395"/>
      <point x="351" y="533" type="curve" smooth="yes"/>
      <point x="363" y="556"/>
      <point x="370" y="572"/>
      <point x="370" y="591" type="curve" smooth="yes"/>
      <point x="370" y="601"/>
      <point x="368" y="612"/>
      <point x="364" y="625" type="curve"/>
      <point x="407" y="628"/>
      <point x="451" y="637"/>
      <point x="489" y="652" type="curve"/>
      <point x="504" y="542"/>
      <point x="572" y="211"/>
      <point x="600" y="106" type="curve" smooth="yes"/>
      <point x="611" y="67"/>
      <point x="627" y="52"/>
      <point x="683" y="36" type="curve"/>
      <point x="674" y="-3" type="line"/>
      <point x="636" y="2"/>
      <point x="588" y="5"/>
      <point x="540" y="5" type="curve" smooth="yes"/>
      <point x="489" y="5"/>
      <point x="438" y="2"/>
    </contour>
    <contour>
      <point x="234" y="229" type="curve"/>
      <point x="271" y="223"/>
      <point x="304" y="220"/>
      <point x="336" y="220" type="curve" smooth="yes"/>
      <point x="375" y="220"/>
      <point x="412" y="224"/>
      <point x="450" y="229" type="curve"/>
      <point x="428" y="350"/>
      <point x="416" y="394"/>
      <point x="391" y="508" type="curve"/>
      <point x="336" y="406"/>
      <point x="293" y="329"/>
    </contour>
    <contour>
      <point x="362" y="756" type="curve" smooth="yes"/>
      <point x="371" y="814"/>
      <point x="413" y="840"/>
      <point x="458" y="840" type="curve" smooth="yes"/>
      <point x="515" y="840"/>
      <point x="534" y="795"/>
      <point x="528" y="756" type="curve" smooth="yes"/>
      <point x="519" y="699"/>
      <point x="473" y="671"/>
      <point x="431" y="671" type="curve" smooth="yes"/>
      <point x="373" y="671"/>
      <point x="356" y="720"/>
    </contour>
    <contour>
      <point x="408" y="755" type="curve" smooth="yes"/>
      <point x="404" y="731"/>
      <point x="417" y="712"/>
      <point x="437" y="712" type="curve" smooth="yes"/>
      <point x="460" y="712"/>
      <point x="478" y="728"/>
      <point x="482" y="755" type="curve" smooth="yes"/>
      <point x="485" y="777"/>
      <point x="473" y="799"/>
      <point x="451" y="799" type="curve" smooth="yes"/>
      <point x="427" y="799"/>
      <point x="412" y="781"/>
    </contour>
  </outline>
</glyph>
<glyph name="Iacute" format="1">
  <advance width="360"/>
  <unicode hex="00CD"/>
  <outline>
    <contour>
      <point x="118" y="639" type="line"/>
      <point x="119" y="639" type="line"/>
      <point x="167" y="634"/>
      <point x="209" y="631"/>
      <point x="252" y="631" type="curve" smooth="yes"/>
      <point x="295" y="631"/>
      <point x="338" y="634"/>
      <point x="388" y="639" type="curve"/>
      <point x="384" y="600" type="line"/>
      <point x="314" y="588"/>
      <point x="310" y="585"/>
      <point x="297" y="534" type="curve" smooth="yes"/>
      <point x="271" y="431"/>
      <point x="235" y="242"/>
      <point x="212" y="108" type="curve" smooth="yes"/>
      <point x="210" y="95"/>
      <point x="209" y="86"/>
      <point x="209" y="78" type="curve" smooth="yes"/>
      <point x="209" y="51"/>
      <point x="223" y="47"/>
      <point x="272" y="36" type="curve"/>
      <point x="259" y="-3" type="line"/>
      <point x="210" y="1"/>
      <point x="168" y="3"/>
      <point x="126" y="3" type="curve" smooth="yes"/>
      <point x="83" y="3"/>
      <point x="40" y="1"/>
      <point x="-9" y="-3" type="curve"/>
      <point x="-6" y="36" type="line"/>
      <point x="76" y="53"/>
      <point x="73" y="55"/>
      <point x="86" y="107" type="curve" smooth="yes"/>
      <point x="120" y="244"/>
      <point x="149" y="396"/>
      <point x="171" y="533" type="curve" smooth="yes"/>
      <point x="180" y="584"/>
      <point x="171" y="590"/>
      <point x="105" y="600" type="curve"/>
    </contour>
    <contour>
      <point x="357" y="840" type="curve"/>
      <point x="358" y="816"/>
      <point x="378" y="757"/>
      <point x="386" y="735" type="curve"/>
      <point x="294" y="725"/>
      <point x="256" y="719"/>
      <point x="169" y="697" type="curve"/>
      <point x="156" y="731" type="line"/>
      <point x="225" y="761"/>
      <point x="264" y="782"/>
    </contour>
  </outline>
</glyph>
<glyph name="Icircumflex" format="1">
  <advance width="360"/>
  <unicode hex="00CE"/>
  <outline>
    <contour>
      <point x="118" y="639" type="line"/>
      <point x="119" y="639" type="line"/>
      <point x="167" y="634"/>
      <point x="209" y="631"/>
      <point x="252" y="631" type="curve" smooth="yes"/>
      <point x="295" y="631"/>
      <point x="338" y="634"/>
      <point x="388" y="639" type="curve"/>
      <point x="384" y="600" type="line"/>
      <point x="314" y="588"/>
      <point x="310" y="585"/>
      <point x="297" y="534" type="curve" smooth="yes"/>
      <point x="271" y="431"/>
      <point x="235" y="242"/>
      <point x="212" y="108" type="curve" smooth="yes"/>
      <point x="210" y="95"/>
      <point x="209" y="86"/>
      <point x="209" y="78" type="curve" smooth="yes"/>
      <point x="209" y="51"/>
      <point x="223" y="47"/>
      <point x="272" y="36" type="curve"/>
      <point x="259" y="-3" type="line"/>
      <point x="210" y="1"/>
      <point x="168" y="3"/>
      <point x="126" y="3" type="curve" smooth="yes"/>
      <point x="83" y="3"/>
      <point x="40" y="1"/>
      <point x="-9" y="-3" type="curve"/>
      <point x="-6" y="36" type="line"/>
      <point x="76" y="53"/>
      <point x="73" y="55"/>
      <point x="86" y="107" type="curve" smooth="yes"/>
      <point x="120" y="244"/>
      <point x="149" y="396"/>
      <point x="171" y="533" type="curve" smooth="yes"/>
      <point x="180" y="584"/>
      <point x="171" y="590"/>
      <point x="105" y="600" type="curve"/>
    </contour>
    <contour>
      <point x="292" y="837" type="curve"/>
      <point x="324" y="789"/>
      <point x="347" y="762"/>
      <point x="395" y="722" type="curve"/>
      <point x="373" y="693" type="line"/>
      <point x="269" y="734" type="line"/>
      <point x="149" y="692" type="line"/>
      <point x="130" y="720" type="line"/>
      <point x="193" y="756"/>
      <point x="242" y="791"/>
    </contour>
  </outline>
</glyph>
<glyph name="Oslash" format="1">
  <advance width="767"/>
  <unicode hex="00D8"/>
  <outline>
    <contour>
      <point x="532" y="27" type="curve" smooth="yes"/>
      <point x="490" y="9"/>
      <point x="425" y="-7"/>
      <point x="382" y="-12" type="curve" smooth="yes"/>
      <point x="368" y="-14"/>
      <point x="354" y="-15"/>
      <point x="340" y="-15" type="curve" smooth="yes"/>
      <point x="261" y="-15"/>
      <point x="195" y="13"/>
      <point x="148" y="53" type="curve"/>
      <point x="116" y="23"/>
      <point x="88" y="-4"/>
      <point x="65" y="-27" type="curve"/>
      <point x="27" y="11" type="line"/>
      <point x="112" y="92" type="line"/>
      <point x="82" y="132"/>
      <point x="63" y="180"/>
      <point x="57" y="224" type="curve" smooth="yes"/>
      <point x="56" y="234"/>
      <point x="55" y="246"/>
      <point x="55" y="258" type="curve" smooth="yes"/>
      <point x="55" y="332"/>
      <point x="78" y="435"/>
      <point x="121" y="498" type="curve" smooth="yes"/>
      <point x="145" y="533"/>
      <point x="182" y="580"/>
      <point x="242" y="607" type="curve" smooth="yes"/>
      <point x="278" y="624"/>
      <point x="341" y="642"/>
      <point x="384" y="649" type="curve" smooth="yes"/>
      <point x="404" y="652"/>
      <point x="424" y="653"/>
      <point x="443" y="653" type="curve" smooth="yes"/>
      <point x="513" y="653"/>
      <point x="576" y="633"/>
      <point x="632" y="589" type="curve"/>
      <point x="710" y="665" type="line"/>
      <point x="749" y="626" type="line"/>
      <point x="670" y="551" type="line"/>
      <point x="699" y="514"/>
      <point x="713" y="472"/>
      <point x="720" y="438" type="curve" smooth="yes"/>
      <point x="723" y="421"/>
      <point x="725" y="401"/>
      <point x="725" y="381" type="curve" smooth="yes"/>
      <point x="725" y="290"/>
      <point x="694" y="176"/>
      <point x="650" y="116" type="curve" smooth="yes"/>
      <point x="615" y="67"/>
      <point x="583" y="50"/>
    </contour>
    <contour>
      <point x="235" y="479" type="curve"/>
      <point x="204" y="420"/>
      <point x="185" y="335"/>
      <point x="189" y="265" type="curve" smooth="yes"/>
      <point x="190" y="235"/>
      <point x="196" y="207"/>
      <point x="207" y="183" type="curve"/>
      <point x="544" y="505" type="line"/>
      <point x="532" y="522"/>
      <point x="518" y="536"/>
      <point x="501" y="548" type="curve" smooth="yes"/>
      <point x="461" y="574"/>
      <point x="422" y="589"/>
      <point x="385" y="589" type="curve" smooth="yes"/>
      <point x="328" y="589"/>
      <point x="277" y="555"/>
    </contour>
    <contour>
      <point x="571" y="457" type="curve"/>
      <point x="464" y="356"/>
      <point x="340" y="238"/>
      <point x="235" y="137" type="curve"/>
      <point x="250" y="118"/>
      <point x="268" y="102"/>
      <point x="289" y="90" type="curve" smooth="yes"/>
      <point x="328" y="67"/>
      <point x="366" y="55"/>
      <point x="401" y="55" type="curve" smooth="yes"/>
      <point x="464" y="55"/>
      <point x="518" y="93"/>
      <point x="552" y="175" type="curve"/>
      <point x="574" y="225"/>
      <point x="590" y="281"/>
      <point x="590" y="347" type="curve" smooth="yes"/>
      <point x="590" y="360"/>
      <point x="589" y="373"/>
      <point x="588" y="387" type="curve" smooth="yes"/>
      <point x="585" y="410"/>
      <point x="580" y="434"/>
    </contour>
  </outline>
</glyph>
<glyph name="Udieresis" format="1">
  <advance width="745"/>
  <unicode hex="00DC"/>
  <outline>
    <contour>
      <point x="297" y="534" type="curve" smooth="yes"/>
      <point x="275" y="449"/>
      <point x="238" y="288"/>
      <point x="223" y="208" type="curve" smooth="yes"/>
      <point x="220" y="192"/>
      <point x="218" y="176"/>
      <point x="218" y="162" type="curve" smooth="yes"/>
      <point x="218" y="75"/>
      <point x="277" y="37"/>
      <point x="356" y="37" type="curve" smooth="yes"/>
      <point x="478" y="37"/>
      <point x="523" y="90"/>
      <point x="553" y="205" type="curve" smooth="yes"/>
      <point x="579" y="308"/>
      <point x="601" y="411"/>
      <point x="618" y="522" type="curve" smooth="yes"/>
      <point x="625" y="573"/>
      <point x="620" y="587"/>
      <point x="546" y="600" type="curve"/>
      <point x="559" y="639" type="line"/>
      <point x="560" y="639" type="line"/>
      <point x="608" y="634"/>
      <point x="639" y="631"/>
      <point x="671" y="631" type="curve" smooth="yes"/>
      <point x="703" y="631"/>
      <point x="735" y="634"/>
      <point x="785" y="639" type="curve"/>
      <point x="781" y="600" type="line"/>
      <point x="713" y="587"/>
      <point x="705" y="573"/>
      <point x="690" y="521" type="curve" smooth="yes"/>
      <point x="659" y="414"/>
      <point x="637" y="309"/>
      <point x="611" y="196" type="curve" smooth="yes"/>
      <point x="575" y="38"/>
      <point x="480" y="-29"/>
      <point x="323" y="-24" type="curve" smooth="yes"/>
      <point x="172" y="-20"/>
      <point x="99" y="61"/>
      <point x="99" y="161" type="curve" smooth="yes"/>
      <point x="99" y="177"/>
      <point x="101" y="193"/>
      <point x="104" y="209" type="curve" smooth="yes"/>
      <point x="125" y="309"/>
      <point x="155" y="427"/>
      <point x="172" y="533" type="curve" smooth="yes"/>
      <point x="180" y="584"/>
      <point x="171" y="590"/>
      <point x="105" y="600" type="curve"/>
      <point x="118" y="639" type="line"/>
      <point x="119" y="639" type="line"/>
      <point x="167" y="634"/>
      <point x="209" y="631"/>
      <point x="252" y="631" type="curve" smooth="yes"/>
      <point x="295" y="631"/>
      <point x="338" y="634"/>
      <point x="388" y="639" type="curve"/>
      <point x="384" y="600" type="line"/>
      <point x="314" y="588"/>
      <point x="311" y="585"/>
    </contour>
    <contour>
      <point x="413" y="689" type="curve"/>
      <point x="374" y="686"/>
      <point x="363" y="715"/>
      <point x="364" y="736" type="curve" smooth="yes"/>
      <point x="365" y="762"/>
      <point x="385" y="787"/>
      <point x="419" y="790" type="curve"/>
      <point x="455" y="791"/>
      <point x="467" y="766"/>
      <point x="465" y="744" type="curve"/>
      <point x="465" y="717"/>
      <point x="447" y="690"/>
    </contour>
    <contour>
      <point x="576" y="689" type="curve"/>
      <point x="538" y="686"/>
      <point x="527" y="715"/>
      <point x="528" y="736" type="curve" smooth="yes"/>
      <point x="529" y="762"/>
      <point x="549" y="787"/>
      <point x="582" y="790" type="curve"/>
      <point x="618" y="791"/>
      <point x="630" y="766"/>
      <point x="629" y="744" type="curve"/>
      <point x="629" y="717"/>
      <point x="610" y="690"/>
    </contour>
  </outline>
</glyph>
<glyph name="Yacute" format="1">
  <advance width="637"/>
  <unicode hex="00DD"/>
  <outline>
    <contour>
      <point x="296" y="545" type="curve" smooth="yes"/>
      <point x="319" y="470"/>
      <point x="350" y="359"/>
      <point x="364" y="279" type="curve"/>
      <point x="426" y="374"/>
      <point x="456" y="421"/>
      <point x="512" y="520" type="curve" smooth="yes"/>
      <point x="519" y="534"/>
      <point x="525" y="546"/>
      <point x="525" y="558" type="curve" smooth="yes"/>
      <point x="525" y="575"/>
      <point x="513" y="590"/>
      <point x="475" y="602" type="curve"/>
      <point x="483" y="639" type="line"/>
      <point x="513" y="636"/>
      <point x="552" y="634"/>
      <point x="592" y="634" type="curve" smooth="yes"/>
      <point x="626" y="634"/>
      <point x="661" y="635"/>
      <point x="689" y="639" type="curve"/>
      <point x="690" y="602" type="line"/>
      <point x="644" y="586"/>
      <point x="636" y="582"/>
      <point x="606" y="542" type="curve" smooth="yes"/>
      <point x="459" y="342"/>
      <point x="340" y="143"/>
      <point x="274" y="9" type="curve"/>
      <point x="196" y="-134"/>
      <point x="227" y="-109"/>
      <point x="93" y="-201" type="curve"/>
      <point x="90" y="-175"/>
      <point x="70" y="-114"/>
      <point x="44" y="-68" type="curve"/>
      <point x="193" y="-6"/>
      <point x="232" y="45"/>
      <point x="279" y="135" type="curve"/>
      <point x="263" y="244"/>
      <point x="222" y="412"/>
      <point x="172" y="531" type="curve" smooth="yes"/>
      <point x="157" y="568"/>
      <point x="146" y="585"/>
      <point x="90" y="601" type="curve"/>
      <point x="99" y="640" type="line"/>
      <point x="137" y="635"/>
      <point x="181" y="632"/>
      <point x="226" y="632" type="curve" smooth="yes"/>
      <point x="273" y="632"/>
      <point x="320" y="635"/>
      <point x="361" y="639" type="curve"/>
      <point x="360" y="601" type="line"/>
      <point x="294" y="584"/>
      <point x="286" y="577"/>
    </contour>
    <contour>
      <point x="531" y="840" type="curve"/>
      <point x="532" y="816"/>
      <point x="552" y="757"/>
      <point x="560" y="735" type="curve"/>
      <point x="468" y="725"/>
      <point x="430" y="719"/>
      <point x="343" y="697" type="curve"/>
      <point x="330" y="731" type="line"/>
      <point x="399" y="761"/>
      <point x="438" y="782"/>
    </contour>
  </outline>
</glyph>
<glyph name="Thorn" format="1">
  <advance width="624"/>
  <unicode hex="00DE"/>
  <outline>
    <contour>
      <point x="118" y="639" type="line"/>
      <point x="119" y="639" type="line"/>
      <point x="167" y="634"/>
      <point x="209" y="631"/>
      <point x="252" y="631" type="curve" smooth="yes"/>
      <point x="295" y="631"/>
      <point x="338" y="634"/>
      <point x="388" y="639" type="curve"/>
      <point x="384" y="600" type="line"/>
      <point x="314" y="588"/>
      <point x="310" y="585"/>
      <point x="297" y="534" type="curve" smooth="yes"/>
      <point x="296" y="529"/>
      <point x="295" y="525"/>
      <point x="295" y="520" type="curve"/>
      <point x="325" y="521"/>
      <point x="355" y="522"/>
      <point x="390" y="522" type="curve" smooth="yes"/>
      <point x="485" y="520"/>
      <point x="561" y="483"/>
      <point x="581" y="385" type="curve" smooth="yes"/>
      <point x="583" y="373"/>
      <point x="585" y="360"/>
      <point x="585" y="347" type="curve" smooth="yes"/>
      <point x="585" y="302"/>
      <point x="571" y="255"/>
      <point x="551" y="223" type="curve" smooth="yes"/>
      <point x="515" y="167"/>
      <point x="419" y="131"/>
      <point x="338" y="131" type="curve" smooth="yes"/>
      <point x="307" y="131"/>
      <point x="284" y="138"/>
      <point x="263" y="146" type="curve"/>
      <point x="272" y="161"/>
      <point x="285" y="190"/>
      <point x="290" y="211" type="curve"/>
      <point x="321" y="191"/>
      <point x="353" y="181"/>
      <point x="370" y="185" type="curve"/>
      <point x="404" y="190"/>
      <point x="423" y="210"/>
      <point x="439" y="250" type="curve" smooth="yes"/>
      <point x="449" y="274"/>
      <point x="456" y="311"/>
      <point x="456" y="345" type="curve" smooth="yes"/>
      <point x="456" y="357"/>
      <point x="455" y="369"/>
      <point x="453" y="380" type="curve" smooth="yes"/>
      <point x="440" y="435"/>
      <point x="414" y="470"/>
      <point x="356" y="470" type="curve" smooth="yes"/>
      <point x="335" y="470"/>
      <point x="304" y="469"/>
      <point x="281" y="465" type="curve"/>
      <point x="257" y="357"/>
      <point x="231" y="215"/>
      <point x="212" y="108" type="curve" smooth="yes"/>
      <point x="210" y="95"/>
      <point x="209" y="86"/>
      <point x="209" y="78" type="curve" smooth="yes"/>
      <point x="209" y="51"/>
      <point x="223" y="47"/>
      <point x="272" y="36" type="curve"/>
      <point x="259" y="-3" type="line"/>
      <point x="210" y="1"/>
      <point x="168" y="3"/>
      <point x="126" y="3" type="curve" smooth="yes"/>
      <point x="83" y="3"/>
      <point x="40" y="1"/>
      <point x="-9" y="-3" type="curve"/>
      <point x="-6" y="36" type="line"/>
      <point x="76" y="53"/>
      <point x="73" y="55"/>
      <point x="86" y="107" type="curve" smooth="yes"/>
      <point x="120" y="244"/>
      <point x="149" y="396"/>
      <point x="171" y="533" type="curve" smooth="yes"/>
      <point x="180" y="584"/>
      <point x="171" y="590"/>
      <point x="105" y="600" type="curve"/>
    </contour>
  </outline>
</glyph>
<glyph name="germandbls" format="1">
  <advance width="518"/>
  <unicode hex="00DF"/>
  <outline>
    <contour>
      <point x="180" y="9" type="curve"/>
      <point x="200" y="42"/>
      <point x="219" y="77"/>
      <point x="233" y="126" type="curve"/>
      <point x="256" y="108"/>
      <point x="287" y="94"/>
      <point x="307" y="87" type="curve" smooth="yes"/>
      <point x="320" y="83"/>
      <point x="330" y="81"/>
      <point x="337" y="81" type="curve" smooth="yes"/>
      <point x="362" y="81"/>
      <point x="358" y="102"/>
      <point x="346" y="134" type="curve" smooth="yes"/>
      <point x="335" y="163"/>
      <point x="287" y="250"/>
      <point x="259" y="295" type="curve" smooth="yes"/>
      <point x="252" y="305"/>
      <point x="250" y="316"/>
      <point x="250" y="327" type="curve" smooth="yes"/>
      <point x="250" y="342"/>
      <point x="256" y="356"/>
      <point x="265" y="364" type="curve" smooth="yes"/>
      <point x="293" y="387"/>
      <point x="325" y="406"/>
      <point x="350" y="434" type="curve" smooth="yes"/>
      <point x="374" y="461"/>
      <point x="379" y="483"/>
      <point x="378" y="505" type="curve" smooth="yes"/>
      <point x="377" y="539"/>
      <point x="355" y="585"/>
      <point x="325" y="610" type="curve" smooth="yes"/>
      <point x="309" y="624"/>
      <point x="296" y="631"/>
      <point x="285" y="631" type="curve" smooth="yes"/>
      <point x="269" y="631"/>
      <point x="257" y="614"/>
      <point x="249" y="578" type="curve" smooth="yes"/>
      <point x="221" y="460"/>
      <point x="161" y="109"/>
      <point x="134" y="-19" type="curve" smooth="yes"/>
      <point x="123" y="-71"/>
      <point x="113" y="-106"/>
      <point x="75" y="-135" type="curve"/>
      <point x="23" y="-172"/>
      <point x="-5" y="-193"/>
      <point x="-49" y="-227" type="curve" smooth="yes"/>
      <point x="-78" y="-249"/>
      <point x="-102" y="-248"/>
      <point x="-133" y="-246" type="curve" smooth="yes"/>
      <point x="-162" y="-245"/>
      <point x="-211" y="-236"/>
      <point x="-241" y="-229" type="curve"/>
      <point x="-220" y="-200"/>
      <point x="-191" y="-128"/>
      <point x="-182" y="-97" type="curve"/>
      <point x="-148" y="-115"/>
      <point x="-106" y="-133"/>
      <point x="-59" y="-142" type="curve" smooth="yes"/>
      <point x="-15" y="-150"/>
      <point x="2" y="-99"/>
      <point x="9" y="-77" type="curve" smooth="yes"/>
      <point x="35" y="13"/>
      <point x="76" y="220"/>
      <point x="98" y="360" type="curve"/>
      <point x="85" y="360"/>
      <point x="58" y="359"/>
      <point x="36" y="358" type="curve"/>
      <point x="34" y="380" type="line"/>
      <point x="60" y="388"/>
      <point x="80" y="400"/>
      <point x="106" y="419" type="curve"/>
      <point x="115" y="456"/>
      <point x="120" y="495"/>
      <point x="133" y="546" type="curve" smooth="yes"/>
      <point x="148" y="607"/>
      <point x="161" y="618"/>
      <point x="202" y="652" type="curve" smooth="yes"/>
      <point x="222" y="669"/>
      <point x="270" y="694"/>
      <point x="300" y="705" type="curve" smooth="yes"/>
      <point x="315" y="710"/>
      <point x="332" y="714"/>
      <point x="349" y="714" type="curve" smooth="yes"/>
      <point x="372" y="714"/>
      <point x="395" y="708"/>
      <point x="414" y="690" type="curve" smooth="yes"/>
      <point x="452" y="655"/>
      <point x="472" y="618"/>
      <point x="483" y="583" type="curve" smooth="yes"/>
      <point x="486" y="572"/>
      <point x="490" y="554"/>
      <point x="490" y="534" type="curve" smooth="yes"/>
      <point x="490" y="510"/>
      <point x="485" y="484"/>
      <point x="466" y="463" type="curve"/>
      <point x="437" y="428"/>
      <point x="413" y="413"/>
      <point x="389" y="392" type="curve"/>
      <point x="362" y="370"/>
      <point x="365" y="355"/>
      <point x="377" y="333" type="curve" smooth="yes"/>
      <point x="391" y="309"/>
      <point x="430" y="249"/>
      <point x="446" y="215" type="curve" smooth="yes"/>
      <point x="456" y="195"/>
      <point x="461" y="175"/>
      <point x="461" y="156" type="curve" smooth="yes"/>
      <point x="461" y="139"/>
      <point x="457" y="122"/>
      <point x="447" y="105" type="curve" smooth="yes"/>
      <point x="428" y="71"/>
      <point x="412" y="53"/>
      <point x="376" y="23" type="curve" smooth="yes"/>
      <point x="341" y="-7"/>
      <point x="299" y="-11"/>
      <point x="257" y="-7" type="curve" smooth="yes"/>
      <point x="228" y="-5"/>
      <point x="210" y="-1"/>
    </contour>
  </outline>
</glyph>
<glyph name="atilde" format="1">
  <advance width="497"/>
  <unicode hex="00E3"/>
  <outline>
    <contour>
      <point x="266" y="-13" type="curve" smooth="yes"/>
      <point x="237" y="-13"/>
      <point x="224" y="9"/>
      <point x="224" y="32" type="curve"/>
      <point x="182" y="12"/>
      <point x="129" y="-11"/>
      <point x="101" y="-11" type="curve" smooth="yes"/>
      <point x="50" y="-11"/>
      <point x="14" y="40"/>
      <point x="21" y="120" type="curve" smooth="yes"/>
      <point x="26" y="181"/>
      <point x="43" y="247"/>
      <point x="78" y="309" type="curve" smooth="yes"/>
      <point x="107" y="362"/>
      <point x="129" y="378"/>
      <point x="197" y="408" type="curve" smooth="yes"/>
      <point x="231" y="423"/>
      <point x="260" y="428"/>
      <point x="290" y="428" type="curve" smooth="yes"/>
      <point x="302" y="428"/>
      <point x="313" y="427"/>
      <point x="325" y="426" type="curve" smooth="yes"/>
      <point x="348" y="424"/>
      <point x="412" y="416"/>
      <point x="439" y="407" type="curve"/>
      <point x="419" y="383"/>
      <point x="414" y="364"/>
      <point x="409" y="350" type="curve" smooth="yes"/>
      <point x="380" y="268"/>
      <point x="355" y="148"/>
      <point x="353" y="106" type="curve"/>
      <point x="350" y="65"/>
      <point x="383" y="67"/>
      <point x="401" y="67" type="curve" smooth="yes"/>
      <point x="412" y="67"/>
      <point x="430" y="68"/>
      <point x="445" y="69" type="curve"/>
      <point x="448" y="35" type="line"/>
      <point x="400" y="15"/>
      <point x="289" y="-13"/>
    </contour>
    <contour>
      <point x="143" y="131" type="curve" smooth="yes"/>
      <point x="140" y="92"/>
      <point x="150" y="69"/>
      <point x="184" y="69" type="curve" smooth="yes"/>
      <point x="202" y="69"/>
      <point x="215" y="70"/>
      <point x="229" y="74" type="curve"/>
      <point x="255" y="197"/>
      <point x="273" y="278"/>
      <point x="298" y="366" type="curve"/>
      <point x="289" y="370"/>
      <point x="276" y="374"/>
      <point x="264" y="375" type="curve" smooth="yes"/>
      <point x="233" y="380"/>
      <point x="215" y="374"/>
      <point x="182" y="300" type="curve" smooth="yes"/>
      <point x="161" y="253"/>
      <point x="147" y="183"/>
    </contour>
    <contour>
      <point x="342" y="611" type="curve" smooth="yes"/>
      <point x="365" y="610"/>
      <point x="381" y="608"/>
      <point x="401" y="607" type="curve" smooth="yes"/>
      <point x="436" y="606"/>
      <point x="459" y="618"/>
      <point x="494" y="656" type="curve"/>
      <point x="524" y="631" type="line"/>
      <point x="490" y="592"/>
      <point x="464" y="568"/>
      <point x="441" y="548" type="curve" smooth="yes"/>
      <point x="416" y="526"/>
      <point x="396" y="518"/>
      <point x="362" y="520" type="curve" smooth="yes"/>
      <point x="299" y="525" type="line" smooth="yes"/>
      <point x="277" y="526"/>
      <point x="262" y="524"/>
      <point x="221" y="482" type="curve"/>
      <point x="190" y="505" type="line"/>
      <point x="225" y="550"/>
      <point x="244" y="567"/>
      <point x="262" y="583" type="curve" smooth="yes"/>
      <point x="290" y="607"/>
      <point x="306" y="613"/>
    </contour>
  </outline>
</glyph>
<glyph name="aring" format="1">
  <advance width="497"/>
  <unicode hex="00E5"/>
  <outline>
    <contour>
      <point x="266" y="-13" type="curve" smooth="yes"/>
      <point x="237" y="-13"/>
      <point x="224" y="9"/>
      <point x="224" y="32" type="curve"/>
      <point x="182" y="12"/>
      <point x="129" y="-11"/>
      <point x="101" y="-11" type="curve" smooth="yes"/>
      <point x="50" y="-11"/>
      <point x="14" y="40"/>
      <point x="21" y="120" type="curve" smooth="yes"/>
      <point x="26" y="181"/>
      <point x="43" y="247"/>
      <point x="78" y="309" type="curve" smooth="yes"/>
      <point x="107" y="362"/>
      <point x="129" y="378"/>
      <point x="197" y="408" type="curve" smooth="yes"/>
      <point x="231" y="423"/>
      <point x="260" y="428"/>
      <point x="290" y="428" type="curve" smooth="yes"/>
      <point x="302" y="428"/>
      <point x="313" y="427"/>
      <point x="325" y="426" type="curve" smooth="yes"/>
      <point x="348" y="424"/>
      <point x="412" y="416"/>
      <point x="439" y="407" type="curve"/>
      <point x="419" y="383"/>
      <point x="414" y="364"/>
      <point x="409" y="350" type="curve" smooth="yes"/>
      <point x="380" y="268"/>
      <point x="355" y="148"/>
      <point x="353" y="106" type="curve"/>
      <point x="350" y="65"/>
      <point x="383" y="67"/>
      <point x="401" y="67" type="curve" smooth="yes"/>
      <point x="412" y="67"/>
      <point x="430" y="68"/>
      <point x="445" y="69" type="curve"/>
      <point x="448" y="35" type="line"/>
      <point x="400" y="15"/>
      <point x="289" y="-13"/>
    </contour>
    <contour>
      <point x="143" y="131" type="curve" smooth="yes"/>
      <point x="140" y="92"/>
      <point x="150" y="69"/>
      <point x="184" y="69" type="curve" smooth="yes"/>
      <point x="202" y="69"/>
      <point x="215" y="70"/>
      <point x="229" y="74" type="curve"/>
      <point x="255" y="197"/>
      <point x="273" y="278"/>
      <point x="298" y="366" type="curve"/>
      <point x="289" y="370"/>
      <point x="276" y="374"/>
      <point x="264" y="375" type="curve" smooth="yes"/>
      <point x="233" y="380"/>
      <point x="215" y="374"/>
      <point x="182" y="300" type="curve" smooth="yes"/>
      <point x="161" y="253"/>
      <point x="147" y="183"/>
    </contour>
    <contour>
      <point x="259" y="561" type="curve" smooth="yes"/>
      <point x="268" y="619"/>
      <point x="310" y="645"/>
      <point x="355" y="645" type="curve" smooth="yes"/>
      <point x="412" y="645"/>
      <point x="431" y="600"/>
      <point x="425" y="561" type="curve" smooth="yes"/>
      <point x="416" y="504"/>
      <point x="370" y="476"/>
      <point x="328" y="476" type="curve" smooth="yes"/>
      <point x="270" y="476"/>
      <point x="253" y="525"/>
    </contour>
    <contour>
      <point x="305" y="560" type="curve" smooth="yes"/>
      <point x="301" y="536"/>
      <point x="314" y="517"/>
      <point x="334" y="517" type="curve" smooth="yes"/>
      <point x="357" y="517"/>
      <point x="375" y="533"/>
      <point x="379" y="560" type="curve" smooth="yes"/>
      <point x="382" y="582"/>
      <point x="370" y="604"/>
      <point x="348" y="604" type="curve" smooth="yes"/>
      <point x="324" y="604"/>
      <point x="309" y="586"/>
    </contour>
  </outline>
</glyph>
<glyph name="ae" format="1">
  <advance width="608"/>
  <unicode hex="00E6"/>
  <outline>
    <contour>
      <point x="325" y="426" type="curve" smooth="yes"/>
      <point x="344" y="424"/>
      <point x="382" y="420"/>
      <point x="409" y="413" type="curve"/>
      <point x="434" y="424"/>
      <point x="453" y="429"/>
      <point x="472" y="429" type="curve" smooth="yes"/>
      <point x="486" y="429"/>
      <point x="501" y="427"/>
      <point x="517" y="422" type="curve" smooth="yes"/>
      <point x="545" y="413"/>
      <point x="582" y="384"/>
      <point x="579" y="325" type="curve"/>
      <point x="574" y="262"/>
      <point x="518" y="213"/>
      <point x="450" y="213" type="curve" smooth="yes"/>
      <point x="434" y="213"/>
      <point x="398" y="216"/>
      <point x="368" y="220" type="curve"/>
      <point x="362" y="187"/>
      <point x="359" y="157"/>
      <point x="360" y="138" type="curve" smooth="yes"/>
      <point x="362" y="98"/>
      <point x="374" y="66"/>
      <point x="428" y="66" type="curve" smooth="yes"/>
      <point x="468" y="66"/>
      <point x="490" y="69"/>
      <point x="522" y="75" type="curve"/>
      <point x="527" y="37" type="line"/>
      <point x="491" y="23"/>
      <point x="447" y="7"/>
      <point x="404" y="-6" type="curve" smooth="yes"/>
      <point x="385" y="-12"/>
      <point x="366" y="-16"/>
      <point x="348" y="-16" type="curve" smooth="yes"/>
      <point x="324" y="-16"/>
      <point x="300" y="-8"/>
      <point x="278" y="14" type="curve" smooth="yes"/>
      <point x="269" y="23"/>
      <point x="262" y="32"/>
      <point x="257" y="42" type="curve"/>
      <point x="212" y="21"/>
      <point x="127" y="-11"/>
      <point x="101" y="-11" type="curve" smooth="yes"/>
      <point x="50" y="-11"/>
      <point x="14" y="40"/>
      <point x="21" y="120" type="curve" smooth="yes"/>
      <point x="26" y="181"/>
      <point x="43" y="247"/>
      <point x="78" y="309" type="curve" smooth="yes"/>
      <point x="107" y="362"/>
      <point x="129" y="378"/>
      <point x="197" y="408" type="curve" smooth="yes"/>
      <point x="231" y="423"/>
      <point x="260" y="428"/>
      <point x="290" y="428" type="curve" smooth="yes"/>
      <point x="302" y="428"/>
      <point x="313" y="427"/>
    </contour>
    <contour>
      <point x="244" y="112" type="curve" smooth="yes"/>
      <point x="246" y="151"/>
      <point x="258" y="199"/>
      <point x="270" y="252" type="curve" smooth="yes"/>
      <point x="271" y="258"/>
      <point x="294" y="344"/>
      <point x="301" y="365" type="curve"/>
      <point x="291" y="369"/>
      <point x="276" y="374"/>
      <point x="264" y="375" type="curve" smooth="yes"/>
      <point x="233" y="380"/>
      <point x="215" y="374"/>
      <point x="182" y="300" type="curve" smooth="yes"/>
      <point x="161" y="253"/>
      <point x="147" y="183"/>
      <point x="143" y="131" type="curve" smooth="yes"/>
      <point x="140" y="92"/>
      <point x="150" y="69"/>
      <point x="184" y="69" type="curve" smooth="yes"/>
      <point x="200" y="69"/>
      <point x="229" y="74"/>
      <point x="245" y="77" type="curve"/>
      <point x="243" y="89"/>
      <point x="243" y="100"/>
    </contour>
    <contour>
      <point x="390" y="316" type="curve" smooth="yes"/>
      <point x="385" y="300"/>
      <point x="381" y="280"/>
      <point x="377" y="261" type="curve"/>
      <point x="392" y="259"/>
      <point x="409" y="258"/>
      <point x="421" y="258" type="curve" smooth="yes"/>
      <point x="439" y="258"/>
      <point x="471" y="266"/>
      <point x="477" y="300" type="curve" smooth="yes"/>
      <point x="480" y="322"/>
      <point x="471" y="344"/>
      <point x="457" y="354" type="curve" smooth="yes"/>
      <point x="447" y="361"/>
      <point x="438" y="364"/>
      <point x="430" y="364" type="curve" smooth="yes"/>
      <point x="412" y="364"/>
      <point x="400" y="348"/>
    </contour>
  </outline>
</glyph>
